<?xml version="1.0" encoding="UTF-8" standalone="no"?>
<!-- Created with Inkscape (http://www.inkscape.org/) -->

<svg
   version="1.1"
   id="svg1"
   width="1086.416"
   height="831.68359"
   viewBox="0 0 1086.416 831.68357"
   sodipodi:docname="Campus Map.svg"
   xml:space="preserve"
   inkscape:version="1.4 (86a8ad7, 2024-10-11)"
   inkscape:export-filename="..\images\campus.svg"
   inkscape:export-xdpi="96"
   inkscape:export-ydpi="96"
   xmlns:inkscape="http://www.inkscape.org/namespaces/inkscape"
   xmlns:sodipodi="http://sodipodi.sourceforge.net/DTD/sodipodi-0.dtd"
   xmlns:xlink="http://www.w3.org/1999/xlink"
   xmlns="http://www.w3.org/2000/svg"
   xmlns:svg="http://www.w3.org/2000/svg"><defs
     id="defs1"><linearGradient
       id="swatch4"
       inkscape:swatch="solid"><stop
         style="stop-color:#000000;stop-opacity:1;"
         offset="0"
         id="stop4" /></linearGradient><filter
       style="color-interpolation-filters:sRGB"
       inkscape:label="Blur"
       id="filter190"
       x="-0.17057454"
       y="-0.60775152"
       width="1.3411491"
       height="2.215503"><feGaussianBlur
         in="SourceGraphic"
         stdDeviation="6.04457"
         result="blur1"
         id="feGaussianBlur188" /><feComposite
         in="blur1"
         in2="blur1"
         operator="in"
         result="composite1"
         id="feComposite188" /><feComposite
         in="composite1"
         in2="composite1"
         k2="2"
         operator="arithmetic"
         result="composite2"
         id="feComposite189"
         k1="0"
         k3="0"
         k4="0" /><feColorMatrix
         in="composite2"
         values="1 0 0 0 0 0 1 0 0 0 0 0 1 0 0 0 0 0 11.7944 -4.31776 "
         result="colormatrix1"
         id="feColorMatrix189" /><feGaussianBlur
         stdDeviation="1"
         result="blur2"
         id="feGaussianBlur189" /><feColorMatrix
         in="blur2"
         values="1 0 0 0 0 0 1 0 0 0 0 0 1 0 0 0 0 0 5 -1 "
         result="colormatrix2"
         id="feColorMatrix190" /><feBlend
         in="SourceGraphic"
         in2="colormatrix2"
         stdDeviation="17"
         mode="normal"
         result="blend"
         id="feBlend190" /><feComposite
         in="blend"
         in2="colormatrix2"
         operator="in"
         result="fbSourceGraphic"
         id="feComposite190" /><feColorMatrix
         result="fbSourceGraphicAlpha"
         in="fbSourceGraphic"
         values="0 0 0 -1 0 0 0 0 -1 0 0 0 0 -1 0 0 0 0 1 0"
         id="feColorMatrix197" /><feGaussianBlur
         id="feGaussianBlur197"
         stdDeviation="4.68243 5.61692"
         result="blur"
         in="fbSourceGraphic" /></filter><clipPath
       clipPathUnits="userSpaceOnUse"
       id="clipPath14"><path
         id="path15"
         style="fill:#ff0000;fill-opacity:1;fill-rule:nonzero;stroke:none"
         d="M 0,0 V 831.68359 H 1086.416 V 0 Z m 214.03125,564.9668 c 0.0926,10e-4 0.12862,0.0578 0.21484,0.0664 0.0103,9e-5 0.021,-3.1e-4 0.0312,0 0.24871,0.008 0.47407,0.0858 0.66407,0.2168 1.01061,0.45517 1.22714,1.47268 0.33984,2.22852 -0.0946,0.21753 -0.21637,0.44255 -0.37695,0.67382 -0.64271,0.92565 -1.29519,1.84483 -1.98047,2.74024 -1.01975,1.3526 -2.203,2.56709 -3.4336,3.72656 -0.66913,0.5792 -1.2643,1.23374 -1.89453,1.85352 -2.23401,2.19694 -4.45385,-0.06 -2.21875,-2.25586 0.64707,-0.6357 1.25867,-1.30791 1.94532,-1.90235 0.0962,-0.0903 0.18963,-0.18421 0.28515,-0.27539 -1.02528,-0.24777 -1.53271,-1.49081 -0.21875,-2.95312 0.11005,-0.12249 0.22003,-0.24471 0.33008,-0.36719 0.84438,-0.94516 1.69486,-1.88416 2.79102,-2.54883 0.84713,-0.50793 1.74346,-0.9345 2.7207,-1.125 0.28831,-0.0562 0.55569,-0.0812 0.80078,-0.0781 z" /></clipPath></defs><sodipodi:namedview
     id="namedview1"
     pagecolor="#505050"
     bordercolor="#eeeeee"
     borderopacity="1"
     inkscape:showpageshadow="0"
     inkscape:pageopacity="0"
     inkscape:pagecheckerboard="0"
     inkscape:deskcolor="#505050"
     showgrid="true"
     inkscape:zoom="1.0268334"
     inkscape:cx="452.3616"
     inkscape:cy="435.31891"
     inkscape:window-width="1920"
     inkscape:window-height="1059"
     inkscape:window-x="-8"
     inkscape:window-y="-8"
     inkscape:window-maximized="1"
     inkscape:current-layer="layer4"
     inkscape:export-bgcolor="#ffffff00"><inkscape:grid
       id="grid4"
       units="px"
       originx="0"
       originy="0"
       spacingx="1"
       spacingy="0.99999997"
       empcolor="#0099e5"
       empopacity="0.30196078"
       color="#0099e5"
       opacity="0.14901961"
       empspacing="5"
       enabled="true"
       visible="true" /><inkscape:page
       x="0"
       y="0"
       width="1086.416"
       height="831.68359"
       id="page2"
       margin="0"
       bleed="0" /></sodipodi:namedview><g
     inkscape:groupmode="layer"
     id="layer2"
     inkscape:label="bg reference"
     style="display:inline"><image
       width="1086.4158"
       height="831.68317"
       preserveAspectRatio="none"
       style="display:none;image-rendering:optimizeQuality"
       xlink:href="../../../../../Downloads/Documents/ShareX/Screenshots/2025-03/zen-03.07.25-01.26.50PM.png"
       id="image1"
       x="600.04926"
       y="322.0441"
       inkscape:label="Background"
       sodipodi:insensitive="true"
       transform="translate(-600.04926,-322.0441)" /><rect
       style="display:inline;opacity:1;fill:#ffffff;stroke:none;stroke-width:1;stroke-dasharray:none;stroke-opacity:1"
       id="rect3"
       width="1086.4158"
       height="831.68317"
       x="0"
       y="0"
       inkscape:label="White BG" /><path
       id="path20"
       style="display:inline;fill:#008000;fill-opacity:1;stroke:none;stroke-width:0.5;stroke-dasharray:none;stroke-opacity:1"
       d="M 120,0 C 74.999998,0 90,84.999998 90,165 90,244.99999 0,280 0,315 0,350 10,365 10,445 10,525 0,610 0,610 V 831.68359 H 1086.416 L 1085,650 C 1085,490.00001 940,480 940,440 940,400 890,330 810,270 730,210 460,230 460,190 460,150.00001 470,0 320,0 Z m -11.375,23.541016 c 2.15064,1e-6 4.30355,2.129959 4.31055,6.390625 0.002,1.148257 0.003,2.297195 -0.0156,3.445312 -0.0667,2.198291 -0.135,4.397081 -0.24414,6.59375 -0.1303,2.128933 -0.2349,4.25929 -0.3164,6.390625 -0.0241,0.641818 -0.0451,1.283806 -0.0645,1.925781 -0.0182,0.601421 -0.0824,1.153889 -0.17773,1.667969 0.57321,1.030301 0.99085,2.32463 0.99023,4.06836 -4e-5,0.116422 5e-5,0.233185 0,0.349609 0,0.907378 0.001,1.81528 -0.002,2.722656 -0.002,0.648742 -0.003,1.296695 -0.0176,1.945313 -0.0147,0.505961 -0.036,1.013263 -0.10156,1.515625 -0.0506,0.400022 -0.12322,0.797696 -0.13672,1.201171 -0.0646,1.007279 -0.14771,2.012851 -0.26367,3.015626 -0.12052,1.072867 -0.26818,2.142777 -0.39453,3.214843 -0.15053,1.419612 -0.2566,2.843589 -0.40235,4.263672 -0.11897,1.232214 -0.20641,2.466885 -0.29883,3.701172 1.49712,0.76314 2.7463,2.668717 2.91016,5.771484 0.0827,1.565881 0.16425,3.131656 0.25195,4.697266 0.19723,3.61633 0.39424,7.233467 0.55664,10.851563 0.0746,1.754231 0.15872,3.509282 0.13672,5.265622 -0.0499,3.9786 -1.95561,6.09825 -3.96093,6.36133 -7e-5,0.0261 0.002,0.0521 0.002,0.0781 1.1e-4,1.29001 -7.6e-4,2.57913 0,3.86914 0.001,1.03307 -0.001,2.06656 0.006,3.09961 0.005,0.95834 0.0116,1.91687 0.0332,2.875 0.0328,1.42207 0.081,2.84288 0.15039,4.26367 0.11134,2.35076 0.21988,4.70246 0.29688,7.05468 0.0916,2.70755 0.1445,5.41627 0.1875,8.125 0.0235,1.90657 0.0148,3.81208 0.0176,5.71876 1.0594,0.7272 1.64081,1.73849 1.85157,3.23046 0.0336,0.52275 0.0506,1.04246 0.0391,1.56641 v 1.39258 h -0.002 c 0,6.68964 -5.28965,8.10275 -7.57032,4.28906 -0.0896,0.0241 -0.14902,0.0348 -0.24218,0.0606 -0.6836,-0.66853 -1.48671,-1.2338 -2.05078,-2.00586 -0.54884,-0.75118 -0.57026,-2.5199 -0.59766,-3.48242 -0.0298,-1.42544 -0.0292,-2.84971 -0.0332,-4.27539 -0.008,-2.12867 0.008,-4.25819 -0.0195,-6.38672 -0.0426,-2.64734 -0.0935,-5.29522 -0.18359,-7.94141 -0.0756,-2.31372 -0.18139,-4.62524 -0.29101,-6.9375 -0.0728,-1.4902 -0.12361,-2.98112 -0.15821,-4.47266 -0.0229,-1.00959 -0.0302,-2.01948 -0.0352,-3.02929 -0.005,-1.04589 -0.005,-2.09278 -0.006,-3.13867 -7.6e-4,-1.29183 -0.002,-2.58317 -0.002,-3.875 0.004,-1.31338 -0.0601,-2.62479 -0.0957,-3.9375 -0.0149,-1.35029 -0.071,-2.69946 -0.11719,-4.04883 -0.0547,-1.638153 -0.0817,-3.277226 -0.10156,-4.916018 -0.0156,-1.386169 -0.0204,-2.771956 -0.0234,-4.158203 -0.003,-1.54468 -0.003,-3.090084 -0.004,-4.634766 -0.0194,-1.562453 0.0145,-3.123896 0.0586,-4.685547 0.0502,-1.808651 0.15437,-3.615966 0.26367,-5.421875 0.11427,-1.920127 0.27851,-3.835478 0.46289,-5.75 0.14628,-1.446144 0.25812,-2.896203 0.41016,-4.341797 0.12465,-1.091333 0.278,-2.17787 0.40039,-3.269531 0.10004,-0.865348 0.17372,-1.734217 0.22852,-2.603515 0.0189,-0.579491 0.11444,-1.152289 0.18554,-1.726563 0.0281,-0.224025 0.0341,-0.450201 0.0391,-0.675781 0.0112,-0.578405 0.0107,-1.155878 0.0117,-1.734375 0.001,-0.901308 0.004,-1.803768 0.004,-2.705078 v -0.347657 c 1.3e-4,-0.560115 0.12573,-0.984212 0.19531,-1.470703 -0.65749,-1.077087 -1.06258,-2.583321 -1.0039,-4.523437 0.0201,-0.665054 0.0414,-1.331202 0.0664,-1.996094 0.083,-2.165399 0.18764,-4.329231 0.32031,-6.492188 0.10668,-2.101137 0.16738,-4.203946 0.23438,-6.30664 0.0193,-1.099713 0.0161,-2.200917 0.0156,-3.300781 -0.002,-4.260672 2.14624,-6.390627 4.29688,-6.390625 z m -4.19141,124.736324 c -10e-4,4.1e-4 -0.003,0.002 -0.004,0.002 -0.0198,0.006 -0.0374,0.0723 -0.0273,0.0547 0.004,-0.007 0.0226,-0.041 0.0312,-0.0566 z m 3.77344,19.59571 c 0.55526,-0.0185 1.12214,0.14197 1.67774,0.41015 0.47039,-0.18099 0.93517,-0.27663 1.38085,-0.28711 2.84338,-0.0669 4.89811,3.19239 2.51758,7.95508 v 0.002 c 0.0636,0.32061 0.12959,0.64065 0.20313,0.95899 0.0112,0.0462 0.0471,0.18417 0.0332,0.13867 -0.0985,-0.32382 -0.23881,-0.45106 -0.35156,-0.6875 -0.0402,0.22362 -0.0713,0.45792 -0.10742,0.67774 -0.0206,0.13628 -0.0418,0.27192 -0.0625,0.4082 -0.005,0.0297 -0.009,0.0584 -0.0137,0.0879 0.12953,0.10381 0.37126,0.15267 0.46289,0.27148 0.11864,0.007 0.23592,0.0154 0.35156,0.0273 0.0168,0.002 0.0131,0.54727 0.0137,0.60547 -0.012,0.5006 0.0375,0.99892 0.0703,1.49804 0.0463,0.73555 0.0657,1.47226 0.0801,2.20899 0.008,0.51101 0.0136,1.02213 0.0176,1.5332 0.015,2.11776 -0.50533,3.71248 -1.29688,4.7832 0.14375,0.68197 0.27445,1.3835 0.26172,2.23243 -0.005,0.3477 -0.0134,0.69536 -0.0234,1.04296 -0.0205,0.71226 -0.0434,1.42596 -0.0957,2.13672 -0.0422,0.61222 -0.0666,1.2216 -0.0488,1.83594 -0.002,0.88921 -0.006,1.77879 -0.0137,2.66797 -0.01,0.949 -0.0229,1.89934 -0.0625,2.84766 -0.0329,0.74515 -0.0958,1.48828 -0.0937,2.23437 v 2.79688 3.43359 c 0,1.25937 -2e-5,2.51797 0,3.77734 2e-5,1.24893 -1.4e-4,2.49912 0,3.74805 0,1.14143 -9e-4,2.2824 0.002,3.42383 0.002,1.34082 0.003,2.68066 0.008,4.02148 0.006,1.58379 0.0119,3.16834 0.0371,4.75196 0.0271,1.5841 0.0709,3.1686 0.12695,4.75195 0.0384,1.54173 0.0364,3.08337 0.082,4.625 0.044,1.5854 0.12034,3.17006 0.14844,4.75586 0.0346,1.60009 0.0873,3.20034 0.16797,4.79883 0.0627,1.54836 0.11315,3.09681 0.11719,4.64648 0.001,1.27768 0.002,2.55631 0.008,3.83398 0.006,1.10767 0.0143,2.21497 0.0449,3.32227 0.0355,1.19091 0.0897,2.38133 0.19531,3.56836 0.13963,1.61073 0.30646,3.21866 0.43946,4.83008 0.19261,1.98347 0.46068,3.96098 0.58007,5.95117 0.15077,2.28023 0.2861,4.56536 0.26367,6.85156 -0.0112,1.7811 -0.0243,3.56148 -0.082,5.3418 -0.0405,1.10672 -0.11078,2.21215 -0.21875,3.31445 0.41605,0.0975 0.64096,0.3744 0.61914,0.88867 0.004,5.3e-4 0.007,-7.2e-4 0.0117,0.002 0.1037,0.0122 0.0135,0.18212 -0.0195,0.30273 -0.0283,0.45233 -0.061,0.90469 -0.125,1.35352 -0.0201,0.12756 -0.0715,0.51165 -0.0625,0.38281 0.004,-0.0539 0.0187,-0.21591 0.0137,-0.16211 -0.019,0.21676 -0.0368,0.43499 -0.0684,0.65039 -0.0448,0.32296 -0.0965,0.56465 -0.10546,0.77734 -0.0445,0.63009 -0.10397,1.26013 -0.22461,1.88086 -0.10447,0.54779 -0.21022,1.09549 -0.33594,1.63868 -0.89674,3.87459 -3.15361,5.45362 -5.12891,5.22656 -2.53982,2.25091 -6.65041,0.43407 -6.65039,-5.45508 V 297.375 c 0,-0.28121 -1e-5,-0.56254 0,-0.84375 1e-5,-0.43366 -4e-5,-0.86712 0,-1.30078 5e-5,-0.47353 -3.2e-4,-0.94835 0,-1.42188 0,-0.46858 -10e-4,-0.93768 0.002,-1.40625 0.003,-0.52267 0.006,-1.04383 0.0176,-1.5664 0.0164,-0.73105 0.0409,-1.4617 0.0899,-2.19141 0.0506,-0.73965 0.12844,-1.47785 0.18554,-2.2168 0.0337,-0.49331 0.0705,-0.98311 0.0488,-1.47851 0,-0.68001 -10e-4,-1.36102 0.004,-2.04102 0.003,-0.69737 0.008,-1.39464 0.0273,-2.09179 0.0211,-0.65337 0.0466,-1.30692 0.13672,-1.95508 0.0193,-0.1253 0.0384,-0.25177 0.0586,-0.37695 2.9e-4,-0.002 0.002,0.003 0.002,0.006 0.0141,-0.16354 0.0338,-0.32752 0.0527,-0.49023 0.0648,-0.45591 0.14458,-0.90848 0.23828,-1.35938 0.0991,-0.5101 0.17354,-1.02506 0.27344,-1.53515 0.10162,-0.53906 0.20929,-1.07805 0.33789,-1.61133 0.353,-1.46372 0.90298,-2.59936 1.55664,-3.43945 -0.0233,-0.22251 -0.0426,-0.44529 -0.0645,-0.66797 -0.13655,-1.64121 -0.30574,-3.28134 -0.44922,-4.92188 -0.12021,-1.34922 -0.18146,-2.70105 -0.22266,-4.05468 -0.0331,-1.1777 -0.0418,-2.35708 -0.0488,-3.53516 -0.006,-1.29155 -0.007,-2.58344 -0.008,-3.875 -0.004,-1.4347 -0.0522,-2.86926 -0.11133,-4.30273 -0.0833,-1.65317 -0.13577,-3.30613 -0.17187,-4.96094 -0.0288,-1.56813 -0.10454,-3.13537 -0.14844,-4.70313 -0.0488,-1.54828 -0.0414,-3.0981 -0.082,-4.64648 -0.0573,-1.60744 -0.0994,-3.21602 -0.12695,-4.82422 -0.0259,-1.62146 -0.035,-3.24165 -0.041,-4.86328 -0.005,-1.34956 -0.007,-2.69926 -0.008,-4.04883 -6.6e-4,-1.14356 1.5e-4,-2.28808 0,-3.43164 -1.4e-4,-1.24927 2e-5,-2.49878 0,-3.74805 -2e-5,-1.25942 1e-5,-2.51792 0,-3.77734 v -3.43359 -2.79688 c -0.0104,-0.8709 0.0648,-1.73989 0.10156,-2.60937 0.0351,-0.85408 0.0457,-1.70783 0.0547,-2.5625 0.009,-0.86551 0.01,-1.73212 0.0117,-2.59766 -0.0164,-0.80633 0.0164,-1.60993 0.0723,-2.41406 0.044,-0.59443 0.0611,-1.18946 0.0781,-1.78516 0.009,-0.30804 0.0145,-0.61765 0.0195,-0.92578 0.0297,-1.9999 0.55145,-3.47949 1.29297,-4.5293 -0.15965,-0.68044 -0.25181,-1.44502 -0.25781,-2.29687 -0.003,-0.47559 -0.008,-0.95221 -0.0156,-1.42774 -0.005,-0.279 -0.0209,-0.55734 -0.0293,-0.83593 -0.79747,-1.18505 -1.20037,-2.9811 -0.83789,-5.33204 0.005,-0.032 0.0107,-0.0637 0.0156,-0.0957 -0.0656,-0.31085 -0.13212,-0.62152 -0.20117,-0.93164 -1.01278,-4.54873 1.03275,-7.16707 3.40234,-7.24609 z M 49.873047,333.49219 c 0.394055,0.007 0.788299,0.0239 1.181641,0.0508 0.880535,0.0845 1.754551,0.23615 2.55664,0.63086 0.357475,0.1863 0.705692,0.38067 1.048828,0.58984 0.405605,0.22467 0.819664,0.43966 1.203125,0.70117 0.423196,0.29195 0.911417,0.47187 1.373047,0.69141 0.877417,0.39782 1.752189,0.80768 2.554688,1.3457 0.585682,0.40269 1.139378,0.8466 1.605468,1.38672 0.331932,0.36046 0.659661,0.72614 0.962891,1.11133 0.438694,0.55303 0.897277,1.09553 1.248047,1.71094 0.131588,0.27493 0.272616,0.54486 0.394531,0.82422 0.240645,0.55142 0.32638,1.15633 0.460938,1.73828 0.05641,0.61563 0.119274,1.21096 0.06445,1.82617 -0.02217,0.44161 -0.05433,0.88339 -0.109375,1.32227 -0.04312,0.39312 -0.05187,0.78458 -0.04687,1.18164 -0.0112,0.66871 -0.02768,1.33839 -0.07227,2.00586 -0.032,0.44398 -0.08832,0.8863 -0.103516,1.33007 -0.01801,0.64576 -0.04345,1.29462 -0.171874,1.92969 -0.272186,0.98941 -0.466245,1.56856 -1.191407,2.39844 -0.791229,0.90548 -1.754618,1.21269 -2.96875,1.45898 -0.395666,0.0802 -0.805819,-0.0433 -1.208984,-0.0645 -0.55086,-0.22001 -1.10893,-0.42235 -1.652344,-0.66016 -0.08638,-0.0378 -0.540192,-0.39192 -0.576172,-0.41992 -0.0049,-0.004 -0.01907,-0.0186 -0.01367,-0.0156 -0.0011,-7.5e-4 -0.0029,9.3e-4 -0.0039,-0.002 -0.200611,-0.13374 -0.251563,-0.28489 -0.433594,-0.42187 -0.317283,0.0557 -0.63488,0.10596 -0.953125,0.15039 -1.017471,0.13501 -2.042859,0.18841 -3.068359,0.19141 -1.482826,-0.0239 -2.964522,-0.0804 -4.445313,-0.16016 -1.736854,-0.1123 -3.475071,-0.17961 -5.214843,-0.22461 -1.730312,-0.0374 -3.459377,-0.11706 -5.189453,-0.16406 -1.506075,-0.0323 -3.010317,-0.11422 -4.515625,-0.16993 -0.985549,-0.0376 -1.972834,-0.0596 -2.958985,-0.0723 -0.909351,-0.0125 -1.817567,-0.002 -2.726562,-0.0312 -0.668764,-0.0261 -1.335477,-0.0856 -2.003906,-0.11719 -0.358399,-0.0165 -0.717483,-0.0223 -1.076172,-0.0293 -1.788277,-0.0332 -3.186218,-0.44309 -4.210938,-1.0625 -0.928397,6.55517 -8.115848,6.29362 -8.43164,-1.51171 -0.0034,-0.0837 -0.0078,-0.1664 -0.01367,-0.25 -0.0034,-0.0622 -0.03028,-0.20935 0.01953,0.0332 0.01674,0.0815 -0.06384,-0.32634 -0.05078,-0.24414 -0.128696,-0.57503 -0.218559,-1.15616 -0.261719,-1.74414 -0.02233,-0.4369 -0.03504,-0.87306 -0.02734,-1.31055 v -0.96484 -1.42969 c 0,-4.26067 2.152723,-6.39062 4.304688,-6.39063 0.07772,0 0.154803,0.004 0.232421,0.01 0.30298,-1.1127 0.871711,-2.29874 2.027344,-3.52344 0.04927,-0.0522 0.09864,-0.10455 0.148438,-0.15625 0.107075,-0.11118 0.08431,-0.0888 0.11914,-0.125 0.559346,-0.76035 1.174766,-1.48971 2.019532,-1.95117 0.273285,-0.1277 0.540978,-0.26896 0.820312,-0.38281 0.732141,-0.29841 1.549804,-0.34856 2.330078,-0.35156 0.468347,0.003 0.936146,0.007 1.404297,0.0215 0.663742,0.0211 1.32881,0.0442 1.988281,0.12695 0.523493,0.0709 1.04348,0.17104 1.566407,0.24414 0.505052,0.0653 1.010201,0.14202 1.521484,0.11915 0.60476,-0.001 1.209713,-0.003 1.814453,-0.008 0.75693,-0.007 1.512784,-0.017 2.269531,-0.0351 0.965731,-0.0246 1.931704,-0.0617 2.896485,-0.11133 0.901625,-0.0273 1.803106,-0.0213 2.705078,-0.0293 1.017656,-0.008 2.035624,-0.0143 3.052734,-0.0508 0.512975,-0.0213 1.026005,-0.0503 1.529297,-0.16016 0.684554,-0.11006 1.372126,-0.19659 2.046875,-0.36132 1.00541,-0.20865 2.018903,-0.39583 3.048828,-0.41993 0.394003,-0.009 0.787586,-0.01 1.181641,-0.004 z m -0.90625,8.60742 c -0.532093,0.014 -1.049847,0.13575 -1.568359,0.24414 -0.794391,0.19527 -1.607193,0.29127 -2.41211,0.42773 -0.832391,0.16546 -1.679462,0.22453 -2.52539,0.26563 -1.1254,0.0432 -2.252821,0.0516 -3.378907,0.0606 -0.827606,0.0169 -1.65526,-0.0119 -2.482422,0.0215 -0.988217,0.0523 -1.977556,0.0896 -2.966797,0.11524 -0.803733,0.0198 -1.608179,0.0321 -2.412109,0.0391 -0.627251,0.005 -1.253587,0.005 -1.880859,0.006 -0.88405,0.0221 -1.761907,-0.0764 -2.636719,-0.18946 -0.527111,-0.0484 -1.042759,-0.18704 -1.568359,-0.24414 -0.382634,-0.0395 -0.767962,-0.0486 -1.152344,-0.0605 -0.02346,-7.2e-4 -0.04685,8.8e-4 -0.07031,-0.002 -0.07676,0.0786 -0.153942,0.15793 -0.228515,0.23828 -0.666874,0.71853 -1.337795,1.22573 -1.998047,1.63672 h 5.453125 8.957031 c 1.12574,0.002 2.251221,-0.002 3.376953,-0.002 1.125732,2e-5 2.251277,0.004 3.376953,0.0176 2.130438,0.0378 4.262026,0.0801 6.392579,0.11133 1.279102,0.0191 2.556713,0.0311 3.835937,0.0371 0.693009,0.002 1.386576,0.003 2.080078,0.004 -0.02999,-0.0326 -0.05785,-0.0672 -0.08789,-0.0996 0.08277,0.0785 -0.03056,-0.0352 -0.06641,-0.0723 -0.415307,-0.26745 -0.871784,-0.45518 -1.320312,-0.65821 -0.843555,-0.35897 -1.656085,-0.77881 -2.433594,-1.26367 -0.231307,-0.16566 -0.423305,-0.25257 -0.757812,-0.4375 -0.04299,-0.0236 -0.08635,-0.0459 -0.128907,-0.0703 -0.1093,-0.0627 -0.138786,-0.0827 -0.183593,-0.10938 -0.404041,-0.0152 -0.809588,-0.041 -1.212891,-0.0156 z m -26.396485,0.66797 c -0.03938,10e-4 0.08014,0.01 0.119141,0.006 0.01276,-0.002 0.02082,-0.004 0.0332,-0.006 -0.05054,-7.3e-4 -0.101822,-0.001 -0.152344,0 z m 64.431641,16.23047 c 1.146253,-0.0107 2.30914,0.36948 3.097656,1.14453 0.426553,0.41926 0.753566,0.93048 1.085938,1.42773 0.197213,0.29504 0.435139,1.06171 0.541015,1.36914 0.418375,1.36831 0.650747,2.78626 0.84375,4.20117 0.215824,1.64959 0.274833,3.31336 0.320313,4.97461 0.04368,1.86669 0.0536,3.73445 0.0625,5.60157 0.0072,1.67017 0.0084,3.33958 0.0098,5.00976 0.01587,1.81287 -0.005,3.62398 -0.07422,5.43555 -0.07024,1.45886 -0.146999,2.91731 -0.199219,4.37695 -0.01775,0.89633 -0.108499,1.78919 -0.162109,2.6836 -0.03813,0.63207 -0.05137,1.26542 -0.0625,1.89843 -0.0079,0.61769 -0.0075,1.23443 -0.03516,1.85157 -0.0466,0.57233 -0.08523,1.14512 -0.111329,1.71875 -0.02168,0.59312 -0.09589,1.18237 -0.146484,1.77343 -0.02198,0.24802 -0.03819,0.49744 -0.05078,0.7461 -0.230819,4.55934 -2.808381,6.54701 -5.083985,6.10351 -2.508497,1.12245 -5.6686,-0.90097 -5.607421,-6.08398 0.0141,-1.19487 -0.02209,-2.38886 -0.08203,-3.58203 -0.157323,-2.4153 -0.293018,-4.83304 -0.421875,-7.25 -0.132216,-2.26043 -0.214914,-4.52171 -0.271484,-6.78516 -0.0391,-1.64744 -0.05723,-3.29554 -0.07031,-4.94336 -0.02457,-0.97884 0.04546,-1.95645 0.08984,-2.93359 0.03902,-0.83477 0.109684,-1.66759 0.183594,-2.5 0.09606,-0.92155 0.135709,-1.84783 0.167969,-2.77344 0.02962,-1.04115 0.10444,-2.0806 0.15039,-3.12109 0.03479,-0.79969 0.05403,-1.60009 0.06641,-2.40039 -0.0063,-0.63464 0.0705,-1.26614 0.132812,-1.89649 0.02646,-0.22025 0.03412,-0.44061 0.04102,-0.66211 0.0381,-1.16731 0.486254,-2.38023 1.28125,-3.25 0.195098,-0.21345 0.406396,-0.4112 0.609375,-0.61719 0.559333,-0.50553 1.203646,-0.80409 1.734375,-1.07617 0.592341,-0.28839 1.273185,-0.43498 1.960937,-0.4414 z m -60.490234,12.60156 c 0.843989,0 1.686221,0.33292 2.40039,0.98828 0.19909,-0.0671 0.395866,-0.14148 0.59961,-0.19531 0.248914,-0.0605 0.502101,-0.0948 0.755859,-0.12696 2.952648,-0.37504 2.92345,0.74848 2.019531,2.29297 0.355137,-0.009 0.404937,0.31265 0.416016,1.08985 0.197971,0.3621 0.371545,0.70536 0.525391,0.96289 0.225181,0.81595 0.378132,1.64869 0.49414,2.48633 0.08869,0.65634 0.129433,1.31723 0.158203,1.97851 0.01643,0.40829 0.0253,0.81798 0.0293,1.22656 0.0089,0.55779 0.0064,1.11274 -0.01953,1.66993 -0.03208,0.39489 -0.08488,0.78874 -0.117187,1.18359 -0.107538,1.41361 -0.254946,1.53364 -1.072266,1.2832 -6.13e-4,0.29372 0.0075,0.58711 0.0078,0.88086 -9e-4,0.70958 -0.0033,1.41935 -0.0098,2.12891 -0.0069,0.65394 -0.01576,1.3095 -0.04492,1.96289 -0.03173,0.66393 -0.07756,1.32621 -0.136719,1.98828 -0.0544,0.71268 -0.04246,1.42973 -0.09961,2.14258 -0.03682,0.67661 -0.06856,1.3512 -0.04297,2.0293 0.0067,0.8868 0.01402,1.77368 0.04102,2.66015 0.03557,1.1128 0.08831,2.22663 0.185546,3.33594 0.120371,1.35951 0.277468,2.71432 0.394532,4.07422 0.133502,1.25612 0.337555,2.50458 0.535156,3.75195 0.217741,1.3129 0.472881,2.62049 0.638672,3.94141 0.177762,1.46726 0.296244,2.94017 0.259766,4.41992 -0.0011,1.25791 -0.0026,2.51555 -0.0098,3.77344 -0.0077,1.11402 -0.01633,2.22826 -0.05273,3.34179 -0.04476,1.24053 -0.109419,2.481 -0.269532,3.71289 -0.158713,1.22778 -0.355052,2.45129 -0.537109,3.67579 -0.180641,1.14691 -0.346046,2.30475 -0.699219,3.41406 -0.287661,0.89616 -0.572044,1.79845 -1.144531,2.56445 -0.182479,0.22272 -0.351704,0.45628 -0.546875,0.66797 -0.933194,1.01217 -2.318803,1.56834 -3.689453,1.52734 -0.405701,-0.0139 -0.812354,-0.0412 -1.210938,-0.12304 -1.509751,-0.36855 -2.509392,-1.02524 -3.320312,-2.41211 -0.136844,-0.35284 -0.291883,-0.69911 -0.410157,-1.0586 -0.166689,-0.50676 -0.153203,-1.05837 -0.158203,-1.58593 -3e-6,-0.28432 1.8e-5,-0.56921 0,-0.85352 -2e-5,-0.27256 1.74e-4,-0.54385 0,-0.81641 -2e-4,-0.22996 -0.0012,-0.46145 -0.002,-0.6914 -0.0013,-0.37025 -0.0033,-0.73916 -0.0078,-1.10938 -0.0061,-0.46476 -0.01365,-0.93019 -0.03516,-1.39453 -0.0021,-0.0466 -0.0032,-0.094 -0.0059,-0.14062 -0.0022,-0.0384 -0.02498,-0.0787 -0.0078,-0.11328 0.01357,-0.028 0.0027,0.1178 0.01953,0.0898 0.07768,-0.12057 -0.291639,-0.35601 -0.08594,-0.44531 -0.05599,-0.39267 -0.101164,-0.78568 -0.146484,-1.17969 -0.07239,-0.60179 -0.122078,-1.20468 -0.142578,-1.81055 -0.04676,-0.7723 -0.120388,-1.54393 -0.117188,-2.31836 -0.0089,-0.73462 -0.01748,-1.46945 -0.05859,-2.20312 -0.0391,-0.65588 -0.127723,-1.30692 -0.234375,-1.95508 -0.15651,-1.06556 -0.307544,-2.13207 -0.492188,-3.19336 -0.191156,-1.2875 -0.337432,-2.57955 -0.419922,-3.87891 -0.113026,-1.31354 -0.231966,-2.62552 -0.285156,-3.94335 -0.04363,-1.4194 -0.0107,-2.83851 0.03125,-4.25782 0.04924,-1.38641 0.11284,-2.77574 0.310547,-4.15039 0.140448,-0.93798 0.335666,-1.8666 0.472656,-2.80469 0.06113,-0.4924 0.108646,-0.98504 0.134766,-1.48046 -0.005,-0.27492 -0.064,-0.55346 -0.06055,-0.82618 -0.06983,-0.93153 -0.07856,-1.86304 -0.05664,-2.79687 0.01401,-1.43337 0.03456,-2.86601 0.07813,-4.29883 0.06005,-1.72254 0.149465,-3.44625 0.357422,-5.1582 0.15088,-1.19911 0.358862,-2.39286 0.443359,-3.59961 0.03707,-0.39618 0.135372,-1.2014 0.138672,-1.35938 v -0.62304 -0.80274 -1.14844 c 0,-4.26067 2.150771,-6.39062 4.302735,-6.39062 z m 2.83789,1.45312 c 0.131592,0.16031 0.257273,0.33065 0.375,0.51758 0.240887,2.8e-4 0.481212,0.005 0.720703,0.0274 -0.216577,-0.1378 -0.420093,-0.27037 -0.662109,-0.42188 -0.109127,-0.0683 -0.265279,-0.10087 -0.433594,-0.12305 z M 708.9375,376.3457 c 1.45568,-0.0597 3.99689,0.56666 8.83203,1.57032 0.92457,0.19192 0.57751,1.80129 0.77539,2.7246 0.0768,0.35875 0.0359,0.73285 0.0449,1.09961 0.0338,1.42994 0.0106,1.7287 -0.0176,3.23243 -0.0849,4.18898 -0.17119,8.37882 -0.41016,12.5625 -0.0976,1.95886 -0.21463,3.91863 -0.17773,5.88086 0.0447,2.39047 -0.4056,4.29847 -1.14844,5.74023 0.0434,1.07084 0.0964,2.14129 0.12695,3.21289 0.11015,2.9234 0.17739,5.84811 0.21289,8.77344 0.0223,1.25458 0.0172,2.50908 0.0332,3.76367 0.0632,0.71639 0.1241,1.4335 0.17774,2.14844 0.0468,0.80897 0.11562,1.61584 0.14062,2.42578 0.10478,3.39156 -0.0166,6.78773 -0.15625,10.17578 -0.0112,0.27106 -0.0224,0.44183 -0.0332,0.69531 0.0274,3.01195 0.065,6.02404 0.14063,9.03516 0.1345,4.92493 0.31473,9.84994 0.71484,14.76172 0.31841,4.11782 0.69997,8.22972 0.87891,12.35742 0.21103,3.62814 0.41263,7.25705 0.5957,10.88672 0.11536,2.41908 0.25531,4.8435 0.16601,7.26562 -0.0616,0.67541 -0.20896,3.44489 -0.90429,3.52149 -0.99498,0.10956 -1.56037,0.17946 -2.38281,0.27929 0.67727,0.0237 1.2659,0.0539 2.04492,0.0684 0.48305,0.009 0.62977,4.02032 0.67187,4.58594 0.1607,2.39131 0.34138,4.78204 0.42578,7.17774 0.12368,2.65195 0.25231,5.30315 0.41211,7.95312 0.20911,2.98847 0.48589,5.97284 0.70117,8.96094 0.20582,2.66513 0.40037,5.3319 0.32227,8.00781 -0.0179,2.91408 -0.0394,5.82706 -0.11914,8.74023 -0.0697,2.25334 -0.15626,4.5115 -0.39648,6.75391 0.0353,3.06671 0.036,6.13243 -0.004,9.19922 -0.0184,0.95287 0.004,1.95508 -0.13867,2.90039 -0.0586,0.38796 0.12952,1.05089 -0.25,1.15039 -10.5123,2.75705 -8.95869,4.80695 -11.25782,1.10742 -0.24693,-0.51793 -0.4547,-1.04607 -0.6289,-1.58593 -0.32625,-0.16664 -0.65624,-0.32945 -0.95313,-0.53321 -1.7503,-1.20122 -1.81672,-3.18088 -1.99414,-4.9375 -0.13462,-1.28788 -0.3348,-2.572 -0.3457,-3.86914 -0.0237,-0.97413 -0.0631,-1.94843 -0.14063,-2.91992 -0.097,-1.29943 -0.18386,-2.59974 -0.22656,-3.90234 -0.0907,-1.95811 -0.13358,-3.91667 -0.14258,-5.87696 -0.0302,-1.78251 -0.0927,-3.56393 -0.14257,-5.3457 -0.36954,3.33852 -0.65799,6.68919 -1.32227,9.98242 -0.57425,2.56717 -0.87915,4.03125 -2.16992,6.43555 -0.18165,0.33836 -0.41719,0.65794 -0.70508,0.91211 -2.39333,2.11297 -1.84315,1.6991 -4.39258,2.41992 -1.58886,-0.44153 -3.20374,-0.7951 -4.76562,-1.32422 -0.22711,-0.0769 -0.37247,-0.306 -0.54297,-0.47461 -0.8501,-0.84067 -1.54326,-1.81467 -2.00195,-2.92383 -0.42863,-1.02907 -0.83285,-2.07214 -1.16407,-3.13671 -0.17383,-0.56485 -0.35048,-1.105 -0.58789,-1.5918 -0.45126,-1.02997 -0.87422,-2.08038 -1.11133,-3.1836 -0.26191,-1.56051 -0.38612,-3.13814 -0.32812,-4.72265 0.0853,-2.79616 0.31253,-5.58637 0.55078,-8.37305 0.29837,-3.17786 0.69752,-6.35001 0.80469,-9.54297 0.14634,-2.76814 0.32201,-5.53505 0.53515,-8.29883 0.1873,-2.48207 0.38491,-4.96986 0.34571,-7.46093 -0.0149,-2.7296 -0.0336,-5.45853 -0.0977,-8.1875 -0.0689,-2.66591 -0.17688,-5.33149 -0.36133,-7.99219 -0.17352,-2.95185 -0.28687,-5.90542 -0.45703,-8.85742 -0.18984,-3.26251 -0.38111,-6.52573 -0.75781,-9.77344 -0.40275,-4.04688 -0.86579,-8.12516 -0.57227,-12.19531 0.24092,-3.50267 0.60803,-6.992 1.03711,-10.47657 0.3665,-3.39974 0.73867,-6.82247 0.54492,-10.24609 -0.18262,-3.76948 -0.5374,-7.52694 -0.97265,-11.27539 -0.43698,-3.89222 -0.92839,-7.78065 -1.23828,-11.68555 -0.009,-0.15225 -0.0113,-0.30474 -0.0195,-0.45703 -0.0287,-0.11965 -0.0633,-0.23771 -0.0918,-0.35742 -0.18373,-0.75491 -0.35492,-1.51349 -0.52539,-2.27148 -0.74662,-3.31987 -0.31177,-5.88418 0.72265,-7.63477 0.0178,-0.2146 0.0248,-0.43003 0.0449,-0.64453 0.20457,-2.3426 0.39723,-4.70046 0.91015,-7 1.14781,-5.14585 4.02901,-7.52316 6.70313,-7.58203 1.68461,-0.0371 3.28393,0.85144 4.31836,2.54297 0.89449,0.31057 1.70969,0.97037 2.44336,1.8164 0.14382,-0.86018 0.38839,-1.77814 0.74804,-2.74804 0.0817,-0.2204 0.1644,-0.44171 0.2461,-0.66211 0.87256,-2.24859 1.78208,-4.55037 3.58984,-6.23047 0.7709,-0.4701 1.50396,-1.01292 2.30664,-1.42383 0.0311,-0.27696 0.0615,-0.55391 0.0996,-0.83008 0.83964,-3.00452 0.91552,-4.21617 2.78711,-4.29297 z M 67.382812,387.0332 c 0.612032,0.007 1.255257,0.33468 1.791016,0.57032 0.09306,0.0392 0.432417,0.26945 0.554688,0.25195 0.466453,0.11337 0.922052,0.27766 1.390625,0.38086 0.306073,0.0654 0.612437,0.12207 0.916015,0.20117 0.116884,0.0304 0.24528,0.0375 0.347656,0.10156 0.713099,0.44644 1.390621,0.94822 2.085938,1.42188 1.075076,2.04421 1.158007,1.55708 0.810547,4.27734 -0.08626,0.6753 -0.914672,1.68442 -1.388672,2.2207 -0.114191,0.13472 -0.239393,0.25983 -0.359375,0.38868 0.02772,0.38908 0.05354,0.77802 0.0957,1.16601 0.161816,1.64813 0.369862,3.29487 0.388672,4.95313 0.03023,1.60726 0.01424,3.2148 0.0293,4.82226 0.01403,1.94289 0.03543,3.88568 0.08008,5.82813 0.06224,2.61369 0.152782,5.22665 0.283203,7.83789 0.105233,2.49426 0.169203,4.98958 0.132813,7.48633 -0.0016,1.34663 2.9e-4,2.69256 -0.01953,4.03906 -0.02505,0.89697 -0.08869,1.7949 -0.457031,2.62891 -0.108458,0.19047 -0.211468,0.38472 -0.318359,0.57617 1.023936,0.79812 1.08328,1.63741 -1.291016,2.55078 -0.433117,0.16662 -0.267611,0.10902 -0.783203,0.26758 -0.0066,0.002 -0.02768,0.007 -0.02148,0.004 0.02595,-0.0128 0.10762,-0.0412 0.08008,-0.0332 -0.04586,0.0141 -0.08968,0.0324 -0.134766,0.0488 -0.811185,0.30006 -1.627942,0.59764 -2.501953,0.64844 -0.406343,-0.0139 -0.814696,0.004 -1.21875,-0.041 -1.532688,-0.17167 -2.83587,-1.17738 -3.679688,-2.41406 -0.610922,-0.93672 -1.126208,-1.92611 -1.652343,-2.91211 -0.615464,-1.19409 -1.217348,-2.40525 -1.664063,-3.67383 -0.08369,-0.31019 -0.17976,-0.61814 -0.25,-0.93164 -0.193601,-0.86409 -0.15403,-1.75926 -0.0625,-2.63281 0.08937,-0.93696 0.192395,-1.87263 0.271485,-2.81055 0.122193,-1.26989 0.264037,-2.53779 0.396484,-3.80664 0.198664,-1.92701 0.338801,-3.85884 0.476563,-5.79102 0.147466,-1.88121 0.356321,-3.75517 0.519531,-5.63476 0.127408,-1.70824 0.199142,-3.4171 0.257812,-5.12891 0.08632,-1.42745 0.214165,-2.85367 0.445313,-4.26562 -0.07627,-0.87386 -0.149492,-1.7474 -0.228516,-2.6211 -0.0759,-0.79912 -0.130975,-1.60043 -0.166016,-2.40234 -0.0243,-0.60569 -0.03286,-1.21227 -0.03906,-1.81836 -0.01444,-0.51848 -0.0021,-1.03315 0.02734,-1.55078 0.131551,-1.05872 0.729939,-2.71793 1.767578,-3.27149 0.874201,-0.46637 1.848959,-0.76252 2.828125,-0.91406 0.08579,-0.0133 0.172333,-0.0186 0.259765,-0.0176 z m 634.156248,12.85547 c 0.19121,2.84989 0.4481,5.69441 0.76367,8.53321 0.0133,0.12241 0.041,0.24287 0.0547,0.36523 0.52747,-0.96074 1.27577,-1.70033 2.19531,-2.11914 -0.0105,-0.22453 -0.0208,-0.4493 -0.0312,-0.67383 -0.10842,-2.32287 0.35147,-4.08239 1.01563,-5.54297 -1.43731,0.40679 -2.85294,0.19018 -3.99805,-0.5625 z m 2.51172,20.03321 c 0.0792,0.45551 0.12924,0.91577 0.20899,1.37109 0.83662,4.7767 -0.6355,7.87844 -2.79297,9.2168 0.18673,0.7912 0.39186,1.57783 0.57031,2.37109 1.05552,4.63574 2.01324,9.29735 2.79492,13.98828 0.12942,-2.49983 0.22348,-4.2913 0.33008,-6.74609 -0.0158,-1.8072 -0.0312,-3.6147 -0.041,-5.42188 0.002,-3.01498 -0.0421,-6.02848 -0.0781,-9.04297 -0.16954,-1.94203 -0.40647,-3.8793 -0.99219,-5.73632 z m 79.54102,11.09765 c 0.72618,0.0396 1.44151,0.21492 2.10351,0.52149 0.17235,0.0885 0.34804,0.17182 0.51758,0.26562 0.51763,0.28647 0.99333,0.64141 1.45899,1.00781 1.2599,0.17832 2.52935,0.29981 3.79687,0.40235 3.96755,0.29129 7.94783,0.34708 11.92383,0.42578 1.50891,0.0232 3.0167,0.0748 4.52539,0.10742 0.14097,-0.15314 0.28173,-0.30747 0.43555,-0.44531 0.20694,-0.18545 0.43203,-0.34717 0.64843,-0.52149 0.89628,-0.66492 1.95392,-1.02926 3.02149,-1.30859 0.57637,-0.15988 1.15953,-0.25726 1.7539,-0.31836 1.29145,-0.10376 2.58775,-0.0452 3.87891,0.0273 3.03821,0.19759 6.07464,0.41111 9.10937,0.65625 5.64266,0.50221 11.29028,0.93395 16.94141,1.32813 2.34513,0.17069 4.69205,0.30575 7.03906,0.44336 0.16602,-0.0889 0.33474,-0.18373 0.48047,-0.27149 0.46728,-0.2814 1.01344,-0.40487 1.53321,-0.57031 0.87261,-0.27773 1.75732,-0.38528 2.6582,-0.53515 2.47029,-0.34328 4.96036,-0.53041 7.45117,-0.64063 1.80873,-0.13448 3.59081,0.18588 5.35742,0.52734 1.85709,0.38294 3.7354,0.65267 5.61524,0.89844 1.65415,-0.15787 3.30676,-0.33522 4.96484,-0.44922 3.1157,-0.23539 6.23371,-0.44991 9.35352,-0.62304 2.27341,-0.1201 4.54883,-0.21901 6.82226,-0.33789 0.39678,0.0254 2.3763,0.0151 2.4336,0.71289 0.0309,0.37669 0.0102,0.38876 0.0391,0.70898 0.14889,0.0178 0.29691,0.0377 0.44531,0.0645 0.6097,0.15899 1.1883,0.24366 1.72656,0.58399 0.37108,0.23462 0.72475,0.49775 1.05664,0.78515 0.10007,0.0867 0.18454,0.18941 0.26563,0.29493 0.37838,-0.0926 0.75631,-0.18714 1.13476,-0.2793 0.98851,-0.25762 1.98368,-0.47263 2.99805,-0.59375 0.94704,-0.0977 1.89809,-0.13837 2.84766,-0.20117 0.70494,-0.0415 1.40883,-0.10148 2.11133,-0.17188 0.29032,-0.0286 0.31564,-0.035 0.63671,-0.0488 0.0962,-0.004 0.19517,-0.0274 0.28907,-0.006 0.99248,0.22743 1.8431,0.29535 2.49414,1.13086 0.32146,0.41254 0.50392,0.91669 0.75586,1.375 0.31448,1.0534 0.0742,2.09506 -0.1836,3.12305 -0.12902,0.61085 -0.35927,1.13022 -0.69336,1.66992 -0.15647,0.25276 -0.4067,0.49245 -0.61523,0.70703 -0.62588,0.6434 -1.45928,0.96356 -2.25781,1.32422 -0.83356,0.39679 -1.71176,0.6852 -2.59571,0.94532 -0.95728,0.29597 -1.95024,0.42069 -2.94726,0.46679 -0.8894,0.01 -1.7841,-0.0921 -2.63672,-0.35351 -0.19667,-0.0603 -0.39119,-0.13302 -0.58594,-0.19922 -0.62249,-0.2512 -1.2444,-0.50064 -1.87109,-0.74024 -0.48845,0.35936 -0.9862,0.58073 -1.7168,0.75 -0.22917,0.0533 -0.46877,0.0401 -0.70312,0.0605 -0.34069,-0.0616 -0.68162,-0.11914 -1.02149,-0.18359 -0.7081,0.46433 -1.53153,0.88664 -2.79297,0.95898 -0.0794,0.005 -0.15888,0.009 -0.23828,0.0137 -0.65012,0.039 -1.30037,0.0928 -1.95117,0.11914 -0.92024,0.0405 -1.84027,0.10047 -2.76172,0.10547 -1.65832,0.0304 -3.31456,0.0748 -4.97265,0.11524 -2.96111,0.0627 -5.92454,0.0925 -8.88477,0.19336 -2.88372,0.10016 -5.76414,0.25933 -8.64258,0.46093 -2.45402,0.12212 -4.91522,0.12183 -7.35547,-0.21093 -1.45979,-0.20283 -3.09471,-0.42232 -4.49023,-1.05274 -0.0138,0.0349 -0.0151,0.0731 -0.0312,0.10742 -0.9468,2.01658 -3.88398,2.43897 -5.78906,2.75977 -3.16151,0.48225 -6.36506,0.48665 -9.55469,0.46875 -2.70373,-0.0125 -5.405,-0.1581 -8.09571,-0.41797 -2.77066,-0.28681 -5.51712,-0.7613 -8.25976,-1.24023 -1.44805,-0.25211 -2.89424,-0.50994 -4.32813,-0.83399 -1.29443,-0.29429 -2.56241,-0.69247 -3.83398,-1.07031 -0.74339,-0.2295 -1.49357,-0.43944 -2.24023,-0.66016 -2.45864,0.26969 -4.9156,0.55675 -7.37305,0.83594 -0.40592,0.0455 -0.81283,0.0911 -1.21875,0.13672 -0.96693,0.10856 -1.99084,0.28956 -2.9668,0.25586 -0.22343,-0.008 -0.44514,-0.0366 -0.66797,-0.0547 -0.6411,-0.17382 -1.09185,-0.27105 -1.53515,-0.60351 -0.0565,-0.0109 -0.11311,-0.022 -0.16992,-0.0313 -0.20399,-0.0332 -0.40866,-0.0609 -0.61329,-0.0898 -0.84342,-0.11928 -0.73764,-0.10253 -1.65625,-0.21289 -2.01113,-0.2344 -4.02946,-0.40043 -6.04687,-0.57031 -0.73069,-0.0719 -1.46591,-0.10385 -2.19531,-0.18946 -0.091,-0.0107 -0.27844,0.0544 -0.27344,-0.0371 0.0112,-0.20622 0.0401,-0.41124 0.0547,-0.61719 -0.1914,0.0855 -0.38312,0.16971 -0.58399,0.24219 -1.338,0.48717 -2.71136,0.91403 -4.13867,1.02734 -0.31778,0.003 -0.63563,0.0238 -0.95313,0.01 -0.1924,-0.009 -0.38429,-0.0361 -0.57226,-0.0781 -0.96402,-0.2156 -1.74098,-0.56921 -2.47852,-1.23828 -0.16049,-0.16001 -0.32567,-0.31301 -0.48046,-0.47852 -0.63125,-0.67483 -1.12128,-1.48095 -1.60157,-2.26367 -0.14315,-0.31286 -0.30359,-0.61738 -0.42969,-0.9375 -0.0705,-0.17912 -0.12055,-0.36824 -0.16015,-0.55664 -0.19202,-0.9143 -0.20923,-1.73301 0.0684,-2.60547 0.003,-0.14053 0.0153,-0.27892 0.0723,-0.4043 0.26835,-0.59097 0.65488,-1.12131 0.98243,-1.68164 0.13486,-0.11401 0.283,-0.20017 0.42773,-0.29296 0.0636,-0.06 0.11541,-0.13303 0.18164,-0.18946 0.0192,0.009 0.0394,0.0163 0.0586,0.0254 0.10603,-0.0567 0.22616,-0.087 0.3379,-0.13281 0.0256,-0.0145 0.0504,-0.0308 0.0762,-0.0449 0.10667,-0.0586 0.46131,-0.15262 0.34375,-0.1211 -0.1485,0.0398 -0.28097,0.10902 -0.41992,0.16602 -0.0926,0.0526 -0.18573,0.10586 -0.27735,0.16016 0.31665,0.1483 0.63976,0.28387 0.96094,0.42382 0.16267,-0.27454 0.34463,-0.55669 0.63281,-1.04882 0.4312,-0.24868 0.85482,-0.50988 1.29297,-0.7461 0.057,-0.0308 0.1249,-0.036 0.1875,-0.0527 0.40696,-0.10842 0.81895,-0.19673 1.23437,-0.26563 0.19925,-0.0219 0.39772,-0.0503 0.59766,-0.0644 0.24268,-0.0171 0.48645,-0.019 0.72852,-0.006 z M 71.957031,432.125 c 4.13e-4,0.0419 0.0039,0.0807 0.0039,0.12305 8.4e-5,-0.0275 -0.0017,-0.0546 0,-0.082 0.0013,-0.0213 0.01587,0.0837 0.01367,0.0625 -0.007,-0.0673 -0.003,-0.0555 -0.0059,-0.0859 -0.0036,-0.006 -0.0081,-0.0115 -0.01172,-0.0176 z m 708.749999,1.14453 c 0.0697,0.0271 0.1446,0.0401 0.2168,0.0606 -0.006,-0.002 -0.009,-0.006 -0.0156,-0.008 -0.0657,-0.0228 -0.26597,-0.0779 -0.20117,-0.0527 z m 16.78125,9.48633 c 0.0132,0.0269 0.0343,0.0531 0.0508,0.0801 -0.01,-0.0274 -0.0263,-0.0521 -0.0351,-0.0801 -0.005,2e-5 -0.0104,-2e-5 -0.0156,0 z m 59.4336,0.16211 c -0.003,8e-4 -0.0369,0.018 -0.0371,0.0176 0.013,-0.003 -0.002,0.0122 -0.01,0.0234 0.0116,-0.0102 0.0338,-0.0296 0.0469,-0.041 z m -6.76368,2.49609 c 0.0153,0.0159 0.0296,0.033 0.0449,0.0488 0.0295,0.0305 0.09,0.0415 0.125,0.0176 0.0254,-0.0173 -0.0442,-0.0467 -0.0742,-0.0527 -0.0316,-0.006 -0.064,-0.008 -0.0957,-0.0137 z M 84.353516,448.2793 c 0.528231,0.0471 1.060575,0.16898 1.451172,0.23632 0.810895,0.2102 1.512097,0.65896 2.232421,1.0625 0.975404,-0.0769 2.087615,0.20239 3.220703,0.94141 0.07785,-0.0117 0.151606,-0.036 0.230469,-0.0449 0.205633,-0.0234 0.438315,-0.11779 0.619141,-0.0156 1.308061,0.7281 2.508011,1.63692 3.761719,2.45508 0.118625,0.31087 0.288278,0.60576 0.355468,0.93164 0.343502,1.66611 0.06503,3.12729 -0.253906,4.71485 0.686282,0.89604 0.788371,1.626 0.783203,3.01172 9e-4,0.93558 0.0017,1.87105 0.0039,2.80664 0.0045,1.80135 0.0109,3.60101 0.02148,5.40234 0.01745,2.75407 0.04309,5.50957 0.05664,8.26367 0.0054,3.7961 -0.0663,7.59152 -0.21875,11.38477 -0.212722,4.74259 -0.503509,9.48127 -1.027344,14.20117 -0.272122,2.47383 -0.557393,4.94535 -0.859375,7.41602 0.128291,0.77613 0.281173,1.54731 0.488281,2.30468 0.312853,1.16683 0.750248,2.29039 1.197266,3.41016 0.349033,0.88099 0.730666,1.74932 1.068359,2.63476 0.508226,1.31716 0.763539,2.70839 0.966797,4.09961 0.192993,1.39543 0.254601,2.80448 0.300781,4.21094 0.03617,1.19267 0.04649,2.38501 0.05469,3.57813 0.04864,1.25783 -0.08184,2.50285 -0.335938,3.73242 -0.218566,0.97696 -0.607089,1.90303 -1.021484,2.81054 -0.918429,1.97177 -2.600663,2.78349 -4.503907,3.42383 -1.15075,0.35781 -2.348331,0.49739 -3.544921,0.58789 -0.625047,0.0374 -1.250434,0.0775 -1.876953,0.0645 -0.1391,-0.003 -0.281082,0.0163 -0.416016,-0.0176 -0.658551,-0.16549 -1.303885,-0.38572 -1.955078,-0.57813 -0.342963,-0.24384 -0.71847,-0.44466 -1.027344,-0.73047 -1.006273,-0.93106 -1.499949,-2.1183 -1.845703,-3.40624 -0.121399,-0.48366 -0.218953,-0.97056 -0.34375,-1.45313 -0.187377,-0.65815 -0.249615,-1.34119 -0.287109,-2.02148 -0.03626,-0.65998 -0.08647,-1.31942 -0.138672,-1.97852 -0.10257,-1.05806 -0.192297,-2.1168 -0.285157,-3.17578 -0.08452,-1.05311 -0.293908,-2.09053 -0.447265,-3.13477 -0.148989,-1.17278 -0.24336,-2.35097 -0.41211,-3.52148 -0.223515,-1.42357 -0.42948,-2.84828 -0.628906,-4.27539 -0.201441,-1.39144 -0.318295,-2.79455 -0.474609,-4.19141 -0.140131,-1.21819 -0.300911,-2.43223 -0.457031,-3.64844 -0.196928,-1.51548 -0.361608,-3.03647 -0.517579,-4.55664 -0.203566,-1.997 -0.371331,-3.99653 -0.523437,-5.99804 -0.20251,-2.67554 -0.419599,-5.3493 -0.615234,-8.02539 -0.189127,-2.74914 -0.454391,-5.49224 -0.658204,-8.24024 -0.149128,-2.1426 -0.303167,-4.2845 -0.410156,-6.42969 -0.07916,-1.64945 -0.131469,-3.30009 -0.09961,-4.95117 0.05263,-2.03182 0.216909,-4.05842 0.501953,-6.07031 0.268621,-1.79271 0.718467,-3.5511 1.169922,-5.30469 0.323718,-1.20365 0.615791,-2.415 0.9375,-3.61914 0.17301,-0.64765 0.386887,-1.28367 0.558594,-1.93164 0.08626,-0.39038 0.251187,-0.80659 0.335937,-1.17187 0.08564,-0.37175 0.145557,-0.74652 0.216797,-1.1211 0.382229,-1.89612 1.080634,-2.50078 3.226562,-3.85547 0.373901,-0.23603 0.89755,-0.26392 1.425782,-0.21679 z m -50.585938,18.41406 c 3.243789,-0.20126 6.493886,3.00495 6.09375,9.39453 -0.02366,0.37781 -0.04578,0.75647 -0.08789,1.13281 -0.06782,0.56569 -0.186436,1.23521 -0.203126,1.42188 -0.06077,0.47637 -0.127666,0.95297 -0.232421,1.42187 0.0024,-0.0418 0.01,-0.1666 0.0059,-0.125 -0.05798,0.50811 -0.09994,1.01644 -0.169922,1.52344 -0.01718,0.12446 -0.03629,0.24877 -0.05469,0.37305 -0.122172,0.80225 -0.233845,1.60401 -0.328125,2.41015 -0.12224,0.92665 -0.170832,1.86514 -0.238282,2.79688 -0.05156,1.01367 -0.08361,2.02406 -0.0293,3.03906 0.03962,1.4125 0.101242,2.8261 0.220703,4.23438 0.163555,1.89589 0.429134,3.77933 0.605468,5.67382 0.190164,1.83784 0.473142,3.66591 0.72461,5.4961 0.284299,1.96581 0.569793,3.93031 0.851562,5.89648 0.246869,1.93618 0.432337,3.87977 0.578125,5.82617 0.112211,1.59988 0.21887,3.20015 0.31836,4.80079 0.07868,1.40892 0.161884,2.81806 0.208984,4.22851 0.05906,1.23547 0.113905,2.46967 0.08789,3.70703 -3.2e-5,1.03229 1.93e-4,2.06537 0,3.09766 -3e-4,1.05363 8.31e-4,2.10655 -0.002,3.16015 -0.0015,1.1998 -0.002,2.39986 -0.0098,3.59961 -0.009,1.23394 -0.02229,2.46769 -0.05859,3.70118 -0.03682,1.14553 -0.08986,2.29058 -0.175781,3.43359 -0.06626,1.10236 -0.02758,2.21007 -0.103516,3.3125 -0.06623,1.25148 -0.156938,2.50373 -0.341797,3.74414 -0.139059,1.05496 -0.265961,2.11058 -0.443359,3.16016 -0.141143,0.82493 -0.320749,1.64358 -0.412109,2.47656 -0.16079,1.14769 -0.320048,2.29477 -0.47461,3.44336 -0.135422,0.88044 -0.30764,1.75658 -0.40039,2.64258 -0.09888,0.32248 0.04486,1.04141 -0.01172,1.41211 v 1.13281 1.59961 1.69531 2.10547 c 0,12.051 -12.173828,12.051 -12.173828,0 v -2.10547 -1.69531 -1.59961 -1.13281 c -0.0076,-0.69731 0.0015,-1.3932 0.03125,-2.08985 0.07306,-1.27955 0.33012,-2.53814 0.521484,-3.80273 0.06718,-0.51342 0.139761,-1.02614 0.210938,-1.53906 -2.715804,3.75266 -8.485939,2.87074 -10.484375,-4.3125 -1.082681,0.4745 -1.940689,-0.17418 -2.332032,-3.08399 -0.02371,-0.17624 -0.04661,-0.35307 -0.07031,-0.5293 -0.03882,-0.64696 -0.06475,-1.2913 -0.04297,-1.93945 0.0065,-0.43894 0.01523,-0.87714 0.05664,-1.31445 0.07555,-0.7214 0.19517,-1.43872 0.425781,-2.12891 0.02058,-0.0601 0.496637,-1.55318 0.240234,-0.57812 -0.0055,0.0209 0.01138,-0.0418 0.01758,-0.0625 -0.01556,0.21157 0.0022,-0.0393 0.08594,-0.41211 0.103903,-0.46262 0.227962,-0.90422 0.373047,-1.35352 0.02182,-0.0676 0.04577,-0.13387 0.06836,-0.20117 0.05135,-0.15522 0.123838,-0.40973 0.185547,-0.61719 1e-6,-0.20967 -3e-6,-0.41923 0,-0.6289 8e-6,-0.51621 -5.6e-5,-1.03261 0,-1.54883 6.2e-5,-0.46262 -3.41e-4,-0.92605 0,-1.38867 3e-4,-0.43458 0.0016,-0.86817 0.0039,-1.30274 0.0028,-0.4696 0.0068,-0.94074 0.02148,-1.41015 0.0208,-0.64825 0.04914,-1.29498 0.103515,-1.94141 0.0486,-0.539 0.129155,-1.093 0.115235,-1.1582 -6.6e-5,-0.57503 3.3e-4,-1.14958 0,-1.72461 -5e-4,-0.78417 -0.0021,-1.5674 -0.0039,-2.35157 -0.0025,-0.99303 -0.0052,-1.9875 -0.01758,-2.98046 -0.01388,-1.01099 -0.03698,-2.02097 -0.07813,-3.03125 -0.05805,-1.41767 -0.157371,-2.83437 -0.144531,-4.25391 v -3.82813 c -1e-6,-0.79434 8e-6,-1.59043 0,-2.38476 -7e-6,-0.5809 4.8e-5,-1.16129 0,-1.74219 -6.6e-5,-0.72368 2.95e-4,-1.44624 0,-2.16992 -3e-4,-0.78658 -0.0014,-1.57475 -0.0039,-2.36133 -0.002,-0.494 -0.005,-0.98661 -0.01758,-1.48047 -0.02065,-0.88151 -0.04834,-1.76392 -0.09375,-2.64453 -0.06814,-1.25479 -0.158249,-2.50975 -0.324219,-3.75586 -0.135394,-1.06544 -0.301406,-2.1318 -0.291016,-3.20898 0.05813,-6.02522 3.039262,-9.03736 6.03711,-9.03711 1.545026,1.3e-4 3.0764,0.8333 4.232422,2.43359 -0.0081,-0.94611 0.0087,-1.8922 0.05664,-2.83789 0.07041,-1.20914 0.171166,-2.41766 0.308594,-3.62109 0.113883,-0.93446 0.239803,-1.86802 0.380859,-2.79883 0.08797,-0.59533 0.140452,-1.19267 0.220704,-1.78906 -0.05615,0.31103 0.237048,-1.28813 0.173828,-0.97461 -0.0068,-0.4627 0.183132,-0.90903 0.195312,-1.36914 0.01854,-0.1772 0.02649,-0.35543 0.03711,-0.53321 0.336957,-5.63884 3.194474,-8.4689 6.05664,-8.64648 z m -4.794922,47.31445 v 1.60547 3.83008 c -0.0072,1.2521 0.08096,2.50134 0.132813,3.75195 0.04596,1.12084 0.07206,2.24165 0.08789,3.36328 0.01313,1.03919 0.01693,2.07987 0.01953,3.11914 0.0018,0.79184 0.0014,1.58316 0.002,2.375 3.31e-4,0.57719 -6.5e-5,1.15524 0,1.73243 0.02572,0.74124 -0.103088,1.47293 -0.160156,2.20898 -0.03368,0.42449 -0.04938,0.84983 -0.0625,1.27539 -0.01093,0.36508 -0.01351,0.73049 -0.01563,1.0957 -0.0021,0.4145 -0.0035,0.82965 -0.0039,1.24415 -3.38e-4,0.45956 6.1e-5,0.91737 0,1.37695 -5.6e-5,0.51574 8e-6,1.03309 0,1.54883 0.01316,0.68603 -0.0051,1.36793 -0.04492,2.05273 -0.06165,0.6862 -0.294833,1.33698 -0.496093,1.99414 0.07,0.26506 0.135609,0.53695 0.195312,0.81836 0.224629,1.05879 0.420717,2.12395 0.599609,3.19141 0.04608,0.39401 0.128228,0.78212 0.208985,1.16992 0.08405,-0.71115 0.141833,-1.4252 0.177734,-2.14063 0.05221,-1.09502 0.05042,-2.19207 0.09961,-3.28711 0.07741,-1.07011 0.136921,-2.14052 0.169921,-3.21289 0.03281,-1.13516 0.04258,-2.27069 0.05078,-3.40625 0.0076,-1.1752 0.01032,-2.35017 0.01172,-3.52539 0.0011,-1.04953 -2.3e-4,-2.0989 0,-3.14843 1.92e-4,-1.03152 0.0019,-2.06419 0.002,-3.09571 0.02858,-1.04364 -0.0263,-2.08319 -0.07617,-3.125 -0.04505,-1.37752 -0.125875,-2.75296 -0.203125,-4.1289 -0.09613,-1.54233 -0.199439,-3.0854 -0.308594,-4.62696 -0.107337,-1.35392 -0.232165,-2.70712 -0.386719,-4.05664 z m 60.826172,13.79492 c 0.09443,1.08183 0.189461,2.16312 0.292969,3.24415 0.0347,0.44707 0.06295,0.89434 0.09375,1.34179 0.01915,-0.34764 0.0075,-0.69857 0.01367,-1.04297 -0.0077,-1.11983 -0.01726,-2.23996 -0.05078,-3.35937 -6.48e-4,-0.0202 -0.0013,-0.0404 -0.002,-0.0605 -0.104499,-0.0394 -0.233392,-0.0819 -0.347656,-0.12305 z m 381.099612,17.84571 c 13.77698,0.13479 19.54289,15.81188 4.63281,32.43164 7.09516,2.58377 10.53372,5.98023 0.0273,12.24219 -1.92255,1.1459 -3.89525,2.20663 -6.07617,2.78711 -1.22771,0.24449 -2.44878,0.51734 -3.68164,0.73437 -2.02169,0.35589 -4.11617,0.20556 -6.17383,0.15625 -10.11334,6.68351 -19.83804,4.61172 -24.29687,-1.95508 -0.66599,-0.013 -1.33208,-0.0193 -1.99805,-0.0332 -7.81666,-0.17109 -15.63287,-0.38257 -23.44336,-0.74414 -5.97672,-0.28235 -11.95435,-0.58402 -17.91601,-1.10352 -32.89555,-2.86655 -31.44206,-35.19442 -0.44922,-34.50195 0.99977,0.0223 2.03071,0.0787 3.09179,0.17187 5.62157,0.49354 11.25645,0.77464 16.89258,1.03907 7.52173,0.34751 15.04853,0.55237 22.57617,0.71679 3.31228,0.0686 6.62669,0.12792 9.93946,0.16602 0.9677,-0.0338 1.91063,0.13766 2.86133,0.24805 1.27763,-1.34154 2.6217,-2.61843 4.06054,-3.80079 7.40663,-6.08627 14.34243,-8.60958 19.95313,-8.55468 z m -247.19922,8.82617 c 1.36302,-0.0259 2.32518,1.02346 2.42578,2.55664 1.83806,0.39273 2.8347,2.79878 0.8418,5.78906 -0.49547,0.74344 -1.19201,1.31812 -1.86133,1.89649 -1.04139,0.89789 -2.10841,1.76408 -3.17188,2.63476 1.35698,1.23486 2.65156,2.53845 3.91993,3.86328 0.79054,0.7978 1.49168,1.67338 2.1621,2.57227 0.37621,0.48377 0.70377,0.99983 0.97852,1.54687 0.56457,1.16206 0.49018,2.71665 -0.42773,3.69532 -0.25703,0.27404 -0.57643,0.48038 -0.86524,0.7207 -0.72183,0.42584 -1.53396,0.61899 -2.35156,0.75391 -0.8271,0.1207 -1.66322,0.12066 -2.49609,0.084 -0.80416,-0.0463 -1.61446,-0.16719 -2.36719,-0.4668 -0.18124,-0.0721 -0.35677,-0.15742 -0.53516,-0.23632 -0.76553,-0.35629 -1.41658,-0.87853 -2.01758,-1.46289 -0.54298,-0.55435 -1.05452,-1.13765 -1.59179,-1.69727 -0.75119,-0.74934 -1.50239,-1.50124 -2.26953,-2.23438 -0.14326,-0.13605 -0.28978,-0.26909 -0.43555,-0.40234 -0.18038,0.27192 -0.39001,0.54655 -0.63281,0.82422 -0.33824,0.38682 -0.64072,0.80266 -0.9336,1.22461 -0.70239,1.03707 -1.28617,2.14717 -1.91601,3.22851 -0.92277,1.49901 -1.95889,2.93849 -3.33789,4.05665 -0.26155,0.20735 -0.51666,0.42282 -0.78516,0.62109 -0.20274,0.14971 -0.41484,0.28577 -0.62695,0.42187 -0.87814,0.56344 -1.80058,1.07523 -2.80274,1.38282 -0.72753,0.2061 -1.28545,0.35522 -2.04883,0.39062 -1.32178,0.0613 -2.79542,-0.81641 -3.23046,-2.08203 -0.0631,-0.27676 -0.14706,-0.5494 -0.18946,-0.83008 -0.0249,-0.16502 -0.0268,-0.3338 -0.0117,-0.5 0.0639,-0.70478 0.2676,-1.33617 0.66407,-1.92187 0.35522,-0.47405 0.74986,-0.90994 1.14843,-1.34766 0.35058,-0.36561 0.48122,-0.89219 0.71485,-1.32812 0.56662,-1.12426 1.22119,-2.20585 1.97265,-3.2168 0.74696,-0.97984 1.54164,-1.92406 2.40039,-2.8086 0.82207,-0.84766 1.65121,-1.7305 2.7129,-2.27929 0.0371,-0.0151 0.0743,-0.0295 0.11132,-0.0449 -0.18101,-0.46398 -0.37207,-0.92446 -0.58398,-1.375 -0.32181,-0.67509 -0.64248,-1.3608 -1.0332,-2 -0.42043,-0.68781 -0.91178,-1.33388 -1.36719,-1.99805 -0.79479,-1.11041 -1.62562,-2.19772 -2.34571,-3.35938 -0.58517,-1.08429 -1.38935,-2.55927 -0.25976,-3.80859 0.14344,-0.15864 0.28814,-0.29846 0.43359,-0.42969 0.39734,-1.096 1.65083,-1.99739 3.6836,-2.05468 0.33319,-0.009 0.68791,0.004 1.0625,0.043 1.08654,0.11254 1.99663,0.71078 2.85937,1.32813 0.15802,0.12218 0.32121,0.23927 0.47461,0.36719 0.72959,0.60842 1.41075,1.27684 2.10352,1.92578 1.27044,1.19008 0.58174,0.55271 1.95507,1.80273 0.56169,0.50234 1.12966,0.99706 1.69922,1.49024 0.43355,-0.42652 0.86532,-0.8549 1.30274,-1.27735 0.75801,-0.74991 1.5225,-1.4983 2.23242,-2.29492 0.16937,-0.19006 0.32607,-0.39135 0.49023,-0.58594 0.0954,-0.11311 0.20017,-0.21956 0.28907,-0.33789 0.082,-0.10913 0.14815,-0.22945 0.22265,-0.34375 1.13147,-1.73491 2.48348,-2.47423 3.63477,-2.49609 z m -0.20703,23.45898 c 0.005,0.0102 0.009,0.0213 0.0137,0.0312 0.01,0.0163 0.0125,0.0398 0.0293,0.0488 0.0272,0.0144 -0.0258,-0.0529 -0.043,-0.0801 z m 622.38672,10.06446 c 7.11951,0.14244 12.35056,3.50506 14.62109,8.33398 1.60467,-0.36504 3.2344,-0.79032 4.68945,-0.77148 8.92086,0.11548 14.71557,6.95783 13.63672,16.17578 1.45191,0.36191 2.90686,0.71292 4.38086,0.95898 0.0222,-0.10795 0.033,-0.21407 0.0566,-0.32226 0.21905,-1.00412 0.35808,-2.10251 0.97071,-2.92774 2.28844,-3.08301 5.07659,-5.76013 7.61523,-8.64062 2.89187,-1.71501 6.08414,-2.54221 9.37305,-3.02735 0.10598,-0.0156 2.79564,-0.35851 3.10351,-0.35351 1.75261,0.0295 3.50112,0.1667 5.25195,0.25 7.47772,1.32497 12.10413,5.13097 16.79297,10.65039 2.27056,2.8726 3.88629,5.93799 4.94922,9.47266 0.5874,1.95334 0.58646,3.49896 0.70313,5.46093 0.0458,4.52632 -1.38306,8.93302 -4.08399,12.5 1.65349,-0.8145 3.45041,-1.26578 5.31446,-1.32226 7.59217,-0.23004 16.26797,6.01327 20.64257,20.26953 1.52009,4.95381 0.80839,9.42896 -0.8164,14.19922 -0.32342,0.94954 -0.77499,1.86438 -1.32227,2.70508 -1.0007,1.53718 -2.20147,2.93355 -3.30273,4.40039 -2.82928,3.05436 -6.11565,5.58319 -9.46289,8.02929 -0.31156,0.23004 -0.62204,0.45942 -0.9336,0.68946 -17.64113,13.02558 -32.39439,6.19888 -33.37304,-5.71485 -3.72529,0.0175 -7.4508,0.0393 -11.17578,0.0879 -4.79246,0.071 -9.58795,0.15613 -14.3711,0.48438 -4.69857,0.33635 -9.39707,0.80839 -14.01953,1.74023 -4.35905,0.80763 -8.71844,1.6074 -13.03125,2.64258 -5.99575,1.30638 -12.03173,2.555 -18.18945,2.73047 -7.68015,-0.0158 -14.17374,-0.38909 -20.69141,-5.39063 -1.68811,-1.29542 -2.72417,-3.2712 -4.08594,-4.90625 -0.79289,-3.79737 -1.71675,-7.5699 -2.37695,-11.39257 -0.0743,-0.42995 0.1171,-0.86433 0.1875,-1.29493 0.2333,-1.42659 0.59813,-2.82348 0.75586,-4.26172 0.49076,-3.77382 0.86,-7.56399 1.52344,-11.31445 0.12606,-0.67681 0.36398,-1.32847 0.5,-2.0039 -7.25401,-4.19832 -10.87185,-15.34826 -3.72266,-30.05665 0.31379,-0.64557 0.62762,-1.29191 0.94141,-1.9375 1.0338,-1.89634 1.74519,-3.32744 3.02539,-5.10742 0.74374,-1.03409 1.535,-2.02509 2.35937,-2.98437 -1.55457,-2.53817 -0.0944,-5.23779 7.0586,-8.18555 1.13319,-0.46699 2.29513,-0.78407 3.45117,-1.13281 1.81664,-1.30903 3.68041,-2.5496 5.63476,-3.66016 6.48264,-3.68375 12.41522,-5.17239 17.41993,-5.07226 z m 71.08203,29.40234 c 0.0121,0.11547 0.0486,0.22851 0.0644,0.34375 0.004,-0.0334 0.006,-0.0579 0.01,-0.0918 -0.0312,-0.11564 -0.0833,-0.33909 -0.0742,-0.25195 z M 28.582031,632.77148 c 6.789759,0.17415 9.700703,4.00632 8.833985,7.32618 0.08364,-0.006 0.163181,-0.023 0.248046,-0.0254 2.335564,-0.0649 5.120088,1.29782 7.490235,4.69531 0.219669,0.31489 0.437534,0.63042 0.626953,0.96484 0.314228,0.56085 0.620795,1.12781 0.871094,1.7207 0.291946,0.81553 0.571825,1.63715 0.640625,2.50977 0.05982,0.71556 0.23915,1.42558 0.18164,2.15039 -8e-4,0.70778 -0.0018,1.41527 -0.0059,2.12305 -0.0047,0.66214 -0.01068,1.32457 -0.03516,1.98633 -0.0301,0.75913 -0.07003,1.51891 -0.179688,2.27148 -0.01192,0.0854 -0.02107,0.17086 -0.03516,0.25586 -0.002,0.22266 -0.0034,0.4454 -0.0098,0.66797 -0.01602,0.7582 -0.03786,1.51734 -0.09961,2.27344 -0.04394,0.55075 -0.127594,1.15741 -0.121094,1.41015 v 2.25586 c 10e-7,0.76487 -2e-6,1.53006 0,2.29492 2e-6,0.881 -1.3e-5,1.76158 0,2.64258 1.5e-5,0.78419 -1.05e-4,1.56933 0,2.35352 1.12e-4,0.69615 0.0013,1.39174 0.002,2.08789 7e-4,0.60694 0.0017,1.21339 0.0059,1.82031 0.0051,0.67859 0.01269,1.35675 0.0293,2.03516 0.02391,0.94064 0.05689,1.88111 0.115234,2.82031 0.06659,1.14976 0.117516,2.30099 0.0957,3.45312 0.0023,0.71081 0.0039,1.42015 0.01758,2.13086 0.01392,0.66946 0.03722,1.33952 0.08008,2.00782 0.06751,1.08358 0.165981,2.1659 0.181641,3.25195 0.01965,0.81846 0.04235,1.63772 0.121094,2.45312 0.08052,0.93873 0.152254,1.87622 0.177734,2.81836 0.05667,1.02147 0.156671,2.04248 0.144531,3.06641 -0.0032,0.86446 -0.0066,1.72945 -0.02539,2.59375 -0.02358,0.86832 -0.06134,1.73852 -0.199219,2.59766 -0.123689,0.69861 -0.264273,1.39628 -0.46875,2.07617 0.02075,-0.34774 0.0093,-0.0975 -0.05469,0.34765 -0.09076,0.63104 -0.213467,1.2479 -0.365235,1.86719 -0.02481,0.10121 -0.05621,0.2023 -0.08398,0.30274 -0.240171,0.88927 -0.480067,1.77589 -0.783203,2.64648 -0.192429,0.61834 -0.379565,1.23706 -0.458985,1.88281 -0.117953,0.65026 -0.255707,1.29029 -0.304687,1.95118 -0.128165,0.82137 -0.04953,1.67439 -0.148438,2.5 -0.04214,0.91366 0.0068,1.83 0.01367,2.74414 0.02194,0.78706 0.05601,1.57485 0.125,2.35937 0.07168,0.86224 0.139621,1.72335 0.175781,2.58789 0.05778,0.8099 0.165741,1.61713 0.181641,2.42969 0.01872,0.57299 0.04619,1.14435 0.105469,1.71484 0.07301,0.83458 0.12918,1.66948 0.11914,2.50781 0.0084,0.4697 0.01759,0.94203 0.05859,1.41016 0.0689,0.72328 0.187825,1.43914 0.326172,2.15234 0.337169,1.81575 0.683767,3.62976 0.966797,5.45508 0.334764,2.1249 0.647257,4.25582 0.84375,6.39844 0.147854,1.77527 0.25305,3.55342 0.123047,5.33398 -0.08386,1.15135 -0.224543,2.29851 -0.460938,3.42969 -0.188309,0.76819 -0.422212,1.46276 -0.550781,2.1543 -0.256963,1.15744 -0.5893,2.29767 -1.150391,3.34961 -5.671477,10.63302 -16.278062,5.33538 -10.888671,-5.44336 0.03975,-0.0795 0.08133,-0.15878 0.121093,-0.23828 -0.0081,0.01 -0.02899,0.0416 -0.02539,0.0293 0.01593,-0.0549 0.0531,-0.10376 0.0625,-0.16016 0.0067,-0.0403 -0.01387,0.11333 -0.05469,0.11133 -0.07256,-0.003 0.07221,-0.1687 0.0098,-0.0937 0.106878,-0.66905 0.295958,-1.32188 0.49414,-1.96875 0.13252,-0.43252 0.207423,-0.55262 0.0918,-0.35157 0.07121,-0.52302 0.196272,-1.04643 0.201172,-1.57617 0.09384,-1.18713 2.24e-4,-2.37019 -0.101562,-3.55273 -0.176293,-1.84855 -0.448891,-3.68782 -0.740235,-5.52149 -0.266444,-1.71725 -0.592312,-3.42273 -0.910156,-5.13086 -0.206106,-1.05039 -0.364528,-2.10909 -0.472656,-3.17382 -0.07798,-0.79212 -0.09786,-1.58748 -0.113281,-2.38282 0.0185,-0.56282 -0.02723,-1.11691 -0.07617,-1.67578 -0.07837,-0.78724 -0.117352,-1.57873 -0.144532,-2.36914 -0.02733,-0.64736 -0.10727,-1.2906 -0.15625,-1.9375 -0.012,-0.28444 -0.04068,-0.56762 -0.05859,-0.85156 0.0021,0.043 0.0018,0.0859 0.0039,0.12891 0.059,1.19105 0.180702,2.37841 0.257812,3.56836 0.07117,1.14827 0.10288,2.29906 0.125,3.44921 0.01583,0.88053 0.02169,1.75998 0.02539,2.64063 0.0029,0.76261 0.0034,1.52646 0.0039,2.28906 4.72e-4,0.78207 -7.6e-5,1.56364 0,2.3457 -9.9e-4,0.21102 -0.01703,0.42184 -0.02344,0.63282 0.0036,0.0915 0.02345,0.17914 0.02344,0.27148 -1.62e-4,0.54955 5.88e-4,1.09889 0,1.64844 -0.0012,0.89634 -0.0039,1.79312 -0.0078,2.68945 -0.0073,1.40941 -0.01727,2.81927 -0.04102,4.22852 -0.04174,2.26566 -0.09497,4.53063 -0.230469,6.79297 -0.17062,2.28767 -0.407814,4.57062 -0.849609,6.82422 -0.0486,0.26666 -0.09364,0.53382 -0.140625,0.80078 0.24539,1.28592 0.09522,2.58603 -0.257813,3.85742 -0.109859,0.37616 -0.266978,0.74183 -0.367187,1.12109 -0.01281,0.0485 0.03405,-0.0954 0.05078,-0.14258 -0.122539,0.55593 -0.28021,1.10568 -0.439453,1.65235 -0.707425,2.20613 -1.366381,2.41637 -3.25,1.88086 -4.685471,9.82887 -15.121557,5.30695 -10.861328,-5.53125 0.350555,-0.89183 0.688453,-1.7897 1.072266,-2.66797 0.376674,-0.88569 0.746279,-1.77459 1.154297,-2.64649 0.171309,-0.36607 0.351066,-0.70834 0.535156,-1.03906 5.35e-4,-0.45832 0.0017,-0.91674 0.0039,-1.375 0.0031,-0.58345 0.0063,-1.16686 0.02734,-1.75 0.02671,-0.64065 0.06731,-1.2802 0.134765,-1.91797 0.07433,-0.658 0.182619,-1.31209 0.230469,-1.97265 0.0674,-0.73018 0.17124,-1.4553 0.25,-2.1836 0.03376,-0.329 0.08868,-0.6559 0.128906,-0.98437 -0.139035,-0.60803 -0.248719,-1.25601 -0.318359,-1.95313 -0.02799,-0.28018 -0.06574,-0.56059 -0.115234,-0.83789 -0.166645,-0.98887 -0.388034,-1.9717 -0.433594,-2.97656 -0.07751,-1.12644 -0.188763,-2.25061 -0.291016,-3.375 -0.108658,-1.43776 -0.157346,-2.87715 -0.191406,-4.31836 -0.01304,-0.40564 -0.01344,-0.60296 -0.138672,-1.01367 -0.154015,-0.68042 -0.298066,-1.36236 -0.421875,-2.04883 -0.114436,-0.68403 -0.632597,-4.06278 0.09375,-4.29492 0.74874,-0.23929 1.513058,-0.41486 2.283203,-0.56055 -0.06742,-0.83284 -0.144619,-1.66497 -0.179687,-2.5 -0.06222,-1.25495 -0.114266,-2.5107 -0.08984,-3.76758 -3.6e-5,-1.16914 2.11e-4,-2.33673 0,-3.50586 -2e-4,-0.96426 9.98e-4,-1.93028 -0.002,-2.89453 -0.0017,-1.0103 -0.0042,-2.01901 -0.01172,-3.02929 -0.0097,-1.22906 -0.02229,-2.45889 -0.05859,-3.6875 -0.04031,-1.27119 -0.103465,-2.54057 -0.203125,-3.8086 -0.06906,-1.12805 -0.09141,-2.26213 -0.230468,-3.38476 -0.135769,-1.10433 -0.308385,-2.20332 -0.478516,-3.30274 -0.149697,-1.31517 -0.232869,-2.64043 -0.230469,-3.96484 8e-4,-0.97551 0.0014,-1.95027 0.0059,-2.92578 0.0056,-1.1069 0.01246,-2.21365 0.03711,-3.32032 0.02976,-1.22988 0.07103,-2.46015 0.158203,-3.6875 0.07926,-1.17553 0.14951,-2.34982 0.19336,-3.52734 0.07704,-1.28134 0.199132,-2.55949 0.257812,-3.8418 0.06326,-1.42273 0.102888,-2.84499 0.07617,-4.26953 -6.2e-5,-1.70281 3.5e-4,-3.40655 0,-5.10937 -4e-4,-1.68947 -0.0017,-3.37889 -0.0039,-5.06836 -0.0028,-1.9609 -0.0063,-3.92193 -0.01758,-5.88281 -0.01418,-2.28614 -0.03341,-4.57172 -0.08203,-6.85743 -0.04115,-1.82241 -0.124052,-3.64407 -0.138672,-5.46679 10e-5,-0.59015 -0.0012,-1.17938 0,-1.76953 0.0013,-0.61382 0.0014,-1.22803 0.0098,-1.8418 0.01157,-0.57348 0.03225,-1.14748 0.107422,-1.7168 0.107649,-0.75752 0.259086,-1.51055 0.5,-2.23828 0.490716,-1.48115 1.10736,-2.93307 2.259766,-4.03711 0.488821,-0.37569 0.955671,-0.78222 1.466796,-1.12695 0.249885,-0.16854 0.523231,-0.3053 0.806641,-0.40821 1.086206,-0.39319 2.081269,-0.64844 3.222656,-0.61914 z m 830.355469,9.98633 c -1.1665,2.0212 -2.6622,3.82013 -4.2793,5.50781 1.39553,-0.26503 2.79058,-0.536 4.1875,-0.79492 4.50089,-0.89714 9.05551,-1.4617 13.62305,-1.8789 -1.17805,-0.27971 -2.35639,-0.55889 -3.53516,-0.83008 -2.29093,-0.4149 -4.50289,-1.19102 -6.7832,-1.64453 -1.05675,-0.22112 -2.13412,-0.30124 -3.21289,-0.35938 z M 32.804688,644.2832 c -0.155842,0.0504 -0.256411,0.13688 -0.419922,0.18164 -2.23e-4,0.10613 -0.0017,0.21224 -0.002,0.31836 -0.0012,0.5825 -0.0019,1.16555 -0.002,1.74805 0.02017,1.7296 0.09717,3.458 0.136719,5.1875 0.05031,2.35269 0.0713,4.70741 0.08594,7.06055 0.01136,1.98029 0.01478,3.95914 0.01758,5.93945 0.0021,1.69429 0.0015,3.3897 0.002,5.08398 3.49e-4,1.70365 0.0019,3.40768 0.002,5.11133 0.02574,1.60471 -0.01862,3.20575 -0.08984,4.8086 -0.0537,1.34326 -0.187175,2.68161 -0.265625,4.02343 -0.04474,1.2095 -0.118009,2.41749 -0.199219,3.625 -0.075,1.05191 -0.109895,2.10605 -0.134765,3.16016 -0.02254,1.03021 -0.028,2.05942 -0.0332,3.08984 -0.0045,0.95838 -0.007,1.91856 -0.0078,2.87696 -0.01256,0.5925 0.0387,1.18232 0.07227,1.77343 0.03108,0.54725 -0.02622,0.35718 0.05664,0.59961 0.177996,1.11501 0.339883,2.23339 0.484374,3.35352 0.188567,1.37657 0.212925,2.76605 0.302735,4.15039 0.1092,1.39094 0.177016,2.78538 0.222656,4.17969 0.03986,1.32722 0.05385,2.65471 0.06445,3.98242 0.0028,0.37305 0.0023,0.7461 0.0039,1.11914 0.0901,-0.97794 0.264871,-1.94241 0.4375,-2.9082 0.168436,-1.12824 0.47408,-2.22615 0.808594,-3.31446 0.258634,-0.72659 0.459374,-1.46706 0.658203,-2.21093 0.168264,-0.62508 0.23574,-1.27079 0.355469,-1.90821 0.104527,-0.45281 0.237981,-0.89962 0.337891,-1.35351 0.04473,-0.2032 0.05409,-0.22949 0.01758,-0.11524 0.03447,-0.32274 0.03928,-0.64836 0.04687,-0.97265 0.01572,-0.7749 0.01858,-1.54919 0.02148,-2.32422 -0.0036,-0.78043 -0.0809,-1.56043 -0.125,-2.33985 -0.01828,-0.82159 -0.08158,-1.63703 -0.152344,-2.45507 -0.100411,-1.06431 -0.135709,-2.13298 -0.162109,-3.20118 -0.01701,-0.93104 -0.103719,-1.85987 -0.162109,-2.78906 -0.05372,-0.83487 -0.08135,-1.66955 -0.09961,-2.50586 -0.0156,-0.78431 -0.01898,-1.56907 -0.02148,-2.35351 0.0247,-0.931 -0.02042,-1.85834 -0.07422,-2.78711 -0.06612,-1.06934 -0.104972,-2.13999 -0.132812,-3.21094 -0.01861,-0.75193 -0.0274,-1.50373 -0.0332,-2.25586 -0.0044,-0.63307 -0.0051,-1.2673 -0.0059,-1.90039 -6.87e-4,-0.70019 1.14e-4,-1.39942 0,-2.09961 -1.05e-4,-0.78477 1.4e-5,-1.5707 0,-2.35547 -1.4e-5,-0.88106 3e-6,-1.76151 0,-2.64258 -2e-6,-0.76487 0,-1.53005 0,-2.29492 v -2.25586 c -0.01684,-0.79114 0.09627,-1.57626 0.15625,-2.36328 0.04283,-0.52342 0.05577,-1.04742 0.06641,-1.57226 -0.01206,-0.78587 0.04945,-1.56568 0.15625,-2.34375 0.05072,-0.35297 0.05927,-0.71235 0.07227,-1.06836 0.01901,-0.53413 0.02374,-1.06716 0.02734,-1.60157 0.0039,-0.67925 0.005,-1.3598 0.0059,-2.03906 -0.01983,-0.071 -0.02269,-0.15193 -0.0332,-0.23633 -0.0063,-0.0109 -0.04268,-0.0847 -0.0332,-0.0625 0.0025,0.006 -0.0033,0.002 -0.02734,-0.0293 -2.174123,-2.82434 -2.784264,-5.45072 -2.402343,-7.50196 z m 179.777342,11.43164 c 3.35383,0.042 6.70858,0.0958 10.0625,0.13086 4.27869,0.0233 8.55744,-0.0403 12.83594,-0.0762 5.44715,-0.0468 10.89329,-0.0515 16.33984,0.0644 6.87996,0.12221 13.76014,0.2933 20.63086,0.68555 7.67056,0.43476 15.33497,0.99149 23.00195,1.48438 7.37001,0.49668 14.73565,1.0474 22.10938,1.48632 6.39843,0.37781 12.79775,0.74986 19.20312,0.99024 3.86658,0.15595 7.7329,0.3122 11.59961,0.46484 1.72448,0.0956 3.44269,0.2656 5.16016,0.44727 1.44423,0.12586 2.89317,0.11242 4.3418,0.10742 1.18373,0 2.36704,10e-4 3.55078,-0.002 1.45535,-0.002 2.91187,-0.006 4.36719,-0.0156 1.85594,-0.0141 3.71087,-0.0377 5.5664,-0.0801 2.74123,-0.0674 5.48148,-0.17506 8.22071,-0.29882 2.32609,-0.10777 4.64854,-0.25936 6.97265,-0.4004 3.50226,-0.16282 7.00578,-0.20399 10.51172,-0.15039 2.79174,0.0129 5.58991,-0.0202 8.37695,0.15235 0.50973,4.49538 1.52305,7.1742 1.9961,8.98242 9.72312,1.33144 9.08594,11.90885 -2.14649,12.0293 -0.6599,0.007 -1.32066,0.016 -1.98047,0.0293 -1.0163,0.0216 -2.03253,0.0435 -3.04687,0.11329 -0.62398,0.043 -1.24524,0.11625 -1.87109,0.13085 -0.62561,0.0401 -1.24976,0.0992 -1.87305,0.16602 -1.09074,0.11848 -2.18136,0.24221 -3.27539,0.32813 -1.15807,0.0914 -2.31947,0.1452 -3.47461,0.27343 -1.30938,0.11125 -2.62042,0.20441 -3.9336,0.25391 -1.17835,0.0493 -2.35739,0.12794 -3.52734,0.28125 -1.68447,0.20467 -3.36867,0.38089 -5.06445,0.46289 -1.71328,0.11304 -3.42774,0.20807 -5.14258,0.29297 -1.68089,0.0816 -3.35802,0.21162 -5.03711,0.32226 -1.58116,0.10657 -3.16,0.23398 -4.74219,0.32618 -1.92172,0.11583 -3.84764,0.18639 -5.76953,0.30078 -2.80296,0.1108 -5.60748,0.1094 -8.41211,0.0664 -2.13321,-0.027 -4.26595,-0.0722 -6.39648,-0.1875 -2.05312,-0.1111 -4.1063,-0.2341 -6.15821,-0.36523 -2.60023,-0.20056 -5.19921,-0.42878 -7.79101,-0.71875 -3.00159,-0.34544 -5.99978,-0.71453 -8.99219,-1.13281 -1.74922,-0.2346 -3.49939,-0.47606 -5.26172,-0.58985 -1.86491,-0.1273 -3.7332,-0.20581 -5.60156,-0.25781 -2.65162,-0.077 -5.30134,-0.19525 -7.95312,-0.26562 -2.68809,-0.0822 -5.37377,-0.21536 -8.06055,-0.33008 -2.34478,-0.10189 -4.68985,-0.22045 -7.03516,-0.31055 -2.22515,-0.0897 -4.45245,-0.12909 -6.67578,-0.26367 -1.56332,-0.0734 -3.12844,-0.14015 -4.69336,-0.15235 -1.92757,10e-4 -3.85562,-2e-4 -5.7832,0.002 -3.07796,0.002 -6.15447,0.005 -9.23242,0.0117 -3.52995,0.009 -7.06005,0.0194 -10.58985,0.0547 -3.74908,0.0394 -7.49767,0.10074 -11.24609,0.18164 -3.55853,0.0551 -7.11957,0.0513 -10.67773,0.13282 -2.70707,0.0656 -5.41064,0.20541 -8.11719,0.28711 -2.99945,0.10284 -5.99587,0.25509 -8.99219,0.42578 -2.63572,0.15697 -5.26695,0.41489 -7.9082,0.46679 -2.69973,0.0195 -5.39656,-0.12198 -8.09375,-0.22851 -2.40113,-0.0805 -4.80125,-0.0998 -7.20313,-0.0312 -2.56823,0.0517 -5.13674,0.12663 -7.70312,0.23828 -2.55602,0.0888 -5.11429,0.15906 -7.67188,0.16406 h -7.63476 -4.23828 c -8.59312,0 -11.02503,-6.17434 -7.36329,-9.72656 -0.52416,-1.26684 -0.68362,-2.63301 -0.002,-3.97852 0.49651,-2.12033 2.55261,-4.68845 4.50195,-7.51367 0.15221,-0.22061 3.19392,0.11582 3.71289,0.16602 2.37331,0.22228 4.73275,0.57286 7.10547,0.79883 1.00192,-2.13861 3.58679,-3.99787 7.91797,-4.42774 0.76823,-0.0763 1.53532,-0.16209 2.30274,-0.24609 1.18257,-0.11947 2.36665,-0.24063 3.55078,-0.3418 2.11536,-0.16171 4.2289,-0.35006 6.34765,-0.46289 2.85793,-0.15654 5.71506,-0.30452 8.57422,-0.43555 3.31628,-0.12078 6.63538,-0.20869 9.95313,-0.27539 2.51993,-0.0439 5.03837,-0.0983 7.55859,-0.0371 z m 390.48633,1.05469 c 3.04334,0 6.08594,3.01161 6.08594,9.03711 v 0.84961 c 0.24929,-0.0926 0.49979,-0.18333 0.75195,-0.26758 -0.0447,-0.14797 -0.0915,-0.2952 -0.12891,-0.44531 -0.0213,-0.0853 0.14235,-0.10302 0.21875,-0.14648 0.16579,-0.0943 0.34675,-0.15864 0.5293,-0.21094 v -0.002 c 0.71533,-0.20492 1.30335,-0.17726 1.74219,-0.0117 0.65382,-0.0251 1.30682,-0.0488 1.96094,-0.0645 0.29297,-0.0734 0.59093,-0.12337 0.89257,-0.14258 -0.65733,-0.28991 -0.0275,-0.32253 0.75,-2.82031 0.0114,-0.0369 0.0768,-0.006 0.11524,-0.006 0.21968,-10e-5 0.43893,0.0136 0.6582,0.0254 0.60418,0.0407 1.20922,0.0804 1.81445,0.10157 0.28648,0.007 0.57291,0.0161 0.85938,0.0234 0.0202,-0.24396 0.0475,-0.48751 0.0801,-0.72851 0.009,-0.0694 0.0778,-0.0792 0.16211,-0.0742 0.0843,0.005 0.18404,0.026 0.2539,0.0215 0.41065,-0.0254 0.84439,0.0181 1.25,0.043 0.66049,0.0444 1.0573,0.0669 1.72071,0.12305 0.25587,0.0216 1.29145,0.11048 1.59765,0.17578 0.34006,0.0725 0.79415,-8.5e-4 1.00781,0.27344 0.0865,0.11101 0.15606,0.23098 0.21876,0.35547 0.89674,0.0299 1.79295,0.0694 2.68945,0.10156 0.30702,-0.28748 0.62353,-0.56949 0.88672,-0.88086 0.21144,-0.032 0.42197,-0.0746 0.63476,-0.0957 1.2144,-0.1206 2.45068,-0.11641 3.66797,-0.12891 1.25928,-0.0129 2.60889,-0.0155 3.86719,-0.0195 2.43892,-0.005 4.87749,-0.005 7.31641,-0.002 0.12373,-0.0212 0.28319,-0.085 0.37304,-0.0664 0.0349,0.007 0.0587,0.0271 0.0645,0.0684 0.59636,0.003 0.79563,0.0444 0.75585,0.44726 4.19574,0.003 8.3915,0.11261 12.58399,0.27735 0.17615,-0.22918 0.34634,-0.46091 0.49219,-0.70117 0.20203,-0.0193 0.40296,-0.0433 0.60547,-0.0566 0.39553,-0.026 1.28533,-0.0535 1.67968,-0.0625 0.95982,-0.0228 1.92086,-0.0322 2.88086,-0.043 0.28613,-0.003 0.57129,-0.005 0.85742,-0.008 0.38022,-0.003 0.78753,-0.0191 1.19336,-0.0176 0.40584,0.002 0.81075,0.0202 1.18555,0.0898 0.1843,0.0342 0.36482,0.0884 0.54687,0.13281 0.42788,0.19259 0.62376,0.3611 0.89063,0.60156 0.0895,0.0806 0.17955,0.0658 0.29883,0.20118 0.002,0.002 0.004,0.005 0.006,0.008 0.51242,-0.0733 1.02847,-0.11152 1.54492,-0.14258 2.11867,-0.0888 4.23918,-0.0853 6.35937,-0.0957 4.2818,-0.0183 8.56391,-0.0114 12.84571,-0.0273 3.22457,-0.0172 6.44923,-0.0315 9.67383,-0.0449 0.0488,-0.002 0.0976,-0.006 0.14648,-0.008 0.62902,-0.0259 1.25929,-0.0321 1.88867,-0.0469 0.65414,-0.0154 1.30678,-0.03 1.96094,-0.0449 2.75873,-0.0527 5.51962,-0.0857 8.27539,-0.23242 0.66175,-0.0449 1.32214,-0.10471 1.98242,-0.16211 0.39732,-0.0237 0.79338,-0.0543 1.18945,-0.0937 0.80918,-0.0788 1.62126,-0.13246 2.43165,-0.19726 1.30895,-0.0882 2.61617,-0.19373 3.92773,-0.23633 1.0836,-0.0429 2.16766,-0.0854 3.25,-0.1543 0.41102,-0.64896 0.99948,-0.97462 1.58789,-0.97461 0.45268,10e-6 0.90571,0.19207 1.2793,0.57617 0.0697,-0.002 0.13923,-0.007 0.20898,-0.008 0.069,0.0189 0.15561,-0.0212 0.22461,-0.004 0.41091,0.11595 1.16472,-0.0589 1.22852,0.36329 0.54715,3.61844 0.59872,3.53142 -0.8086,3.92578 -0.0394,0.009 -0.0796,0.013 -0.11914,0.0215 2.62737,0.73113 2.33241,3.88658 -1.29297,4.15039 -0.19271,0.0141 -0.38358,0.0292 -0.57617,0.0449 -0.21973,0.0172 -0.44002,0.0228 -0.66015,0.0312 -0.39789,0.1531 -0.80162,0.1654 -1.16407,0.0508 -0.14782,0.006 -0.29534,0.0212 -0.44336,0.0176 -0.4104,-10e-4 -0.82007,-0.003 -1.23046,-0.006 -0.72002,-0.005 -1.44023,-0.0116 -2.16016,-0.0234 -1.13894,-0.0189 -2.27895,-0.0452 -3.41797,-0.0586 -1.52717,-10e-4 -3.05291,-0.002 -4.58008,-0.006 -2.5852,-0.007 -5.17069,-0.018 -7.75586,-0.0332 -2.08464,-0.0127 -4.16927,-0.0234 -6.2539,-0.0371 -0.38542,0.43317 -0.76991,0.86774 -1.20118,1.25391 -0.0531,0.0475 -0.74862,0.10242 -0.79882,0.10742 -0.67671,0.0613 -1.35535,0.1116 -2.03321,0.1582 -2.03845,0.12806 -4.07613,0.25058 -6.11328,0.39844 -1.44895,0.10057 -2.89914,0.20826 -4.34961,0.28516 -0.96572,0.0493 -1.93171,0.061 -2.89843,0.0781 -1.21466,0.0277 -2.42953,0.0566 -3.64454,0.0312 -1.30159,-0.0236 -2.63132,-0.006 -3.89062,-0.37891 -0.50985,-0.18961 -0.99378,-0.42756 -1.4668,-0.69531 -0.60929,-0.30016 -1.25495,-0.51398 -1.73437,-1.02734 -0.14628,-0.22163 -0.39576,-0.40408 -0.43946,-0.66602 -0.16887,-1.01244 -0.18386,-1.40212 0.0371,-1.875 -0.15967,0.0159 -0.31966,0.0311 -0.47851,0.0547 -0.075,0.0111 -0.14023,0.009 -0.21289,0.0176 0.2137,0.58656 0.38325,1.16703 0.13281,1.68945 -0.53635,1.11887 -2.81279,1.41131 -3.94727,1.5625 -0.85839,0.1144 -3.20981,0.35633 -4.06445,0.42383 -0.9007,0.0711 -1.80354,0.12009 -2.70508,0.17969 -2.30869,0.12823 -4.61813,0.24415 -6.92773,0.35547 -0.008,0.091 -0.0114,0.18251 -0.0215,0.27343 -0.0113,0.1024 -0.20586,0.005 -0.30859,0.008 -0.1438,0.004 -0.28782,0.009 -0.43164,0.0117 -0.83829,0.0168 -1.67729,0.0249 -2.51563,0.0391 -2.36557,0.0457 -4.72979,0.0677 -7.0957,0.0859 -1.56086,0.0145 -3.12309,0.0301 -4.68359,-0.0117 -1.16574,-0.0354 -2.331,-0.0725 -3.4961,-0.125 -0.31261,-0.0134 -0.62514,-0.0307 -0.9375,-0.0488 -0.94696,-0.055 -1.66779,-0.31213 -2.17382,-0.67383 -1.12025,0.32624 -2.2429,0.64429 -3.36524,0.96289 -0.59238,0.076 -1.45683,0.28882 -1.96094,-0.23633 -0.78056,-0.81315 -1.06759,-1.35087 -1.07617,-1.95898 -0.22001,0.0239 -0.44076,0.0411 -0.66015,0.0703 -1.70001,0.19916 -3.39988,0.40271 -5.11133,0.47461 -1.4693,0.0743 -2.93898,0.12387 -4.41016,0.13867 -0.80144,0.0202 -1.60233,0.0555 -2.40234,0.10742 -0.8021,0.0574 -1.60349,0.14073 -2.40235,0.23243 -0.14469,0.01 -0.28868,0.0162 -0.43164,0.0195 -0.49536,0.98303 -1.23894,1.83476 -2.25,2.36132 -0.10585,0.0552 -0.20288,0.10454 -0.30273,0.1543 -0.0386,0.0431 -0.079,0.0854 -0.11719,0.12891 -2.50588,2.26161 -5.5116,2.32378 -8.16406,0.49414 -1.33502,-0.92089 -1.87089,-2.23077 -2.29883,-3.6543 -0.0438,-0.11394 -0.0993,-0.52378 -0.14648,-0.91015 -0.0902,-0.38284 -0.14827,-0.77432 -0.20118,-1.16211 -0.7698,-5.64121 1.67702,-8.98479 4.57032,-9.67774 1.04513,-1.0366 2.30802,-1.55664 3.57031,-1.55664 z m 65.71289,5.74609 c -0.0213,-0.0134 -0.0431,-0.0276 -0.0644,-0.041 -1.30993,-0.8248 -1.37753,-0.22483 -1.16602,0.70898 0.40039,-0.20207 0.87927,-0.36202 1.45899,-0.44921 0.002,-2.9e-4 0.004,2.7e-4 0.006,0 -0.0865,-0.0749 -0.16729,-0.16283 -0.23437,-0.21876 z m -162.88672,-3.12109 c 0.93856,0.024 1.87758,0.0964 2.8125,0.16992 3.22419,0.30227 6.45039,0.56569 9.68359,0.74805 4.81724,0.23996 9.64262,0.29647 14.46485,0.35938 3.558,0.0508 7.11673,0.0888 10.67383,-0.0215 2.33209,-0.0716 4.65952,-0.20126 6.98828,-0.33984 1.53388,-0.0837 3.06332,-0.23315 4.5957,-0.33985 1.01319,-0.0717 2.02771,-0.11487 3.04297,-0.14258 0.34166,0.009 0.6788,-0.0516 1.01758,-0.0937 5.74522,-0.71354 9.06683,1.70902 9.65039,4.58007 0.49148,0.0382 0.98322,0.0716 1.47461,0.11133 1.88561,0.16023 3.77425,0.26894 5.66406,0.36524 1.09116,0.0864 2.40072,0.0854 3.42969,0.48437 0.5232,0.20288 1.02764,0.4531 1.54101,0.67969 1.95818,1.25349 2.83546,2.68876 3.33203,4.88281 0.0639,0.28261 0.11769,0.57407 0.0996,0.86328 -0.0501,0.8129 -0.20196,1.61566 -0.30273,2.42383 -0.58973,1.76212 -1.70511,3.35175 -3.19531,4.47656 -0.37389,0.28221 -0.76808,0.53679 -1.15235,0.80469 -1.32069,0.81587 -2.7324,1.44233 -4.19336,1.95703 -1.08183,0.38097 -2.2037,0.6308 -3.32421,0.86719 -1.55097,0.31703 -3.14187,0.34251 -4.71875,0.38281 -2.2879,0.0442 -4.5771,0.0623 -6.86524,0.0352 -3.46407,-0.049 -6.92731,-0.14942 -10.39062,-0.23242 -4.17298,-0.0747 -8.34504,-0.15916 -12.51758,-0.25586 -3.5975,-0.0621 -7.19426,-0.15425 -10.79102,-0.24805 -3.53214,-0.0745 -7.06199,-0.2242 -10.58984,-0.41016 -3.27678,-0.17811 -6.54986,-0.40785 -9.82227,-0.65234 -2.79655,-0.20572 -5.59056,-0.44912 -8.38086,-0.72656 -0.29957,-0.0344 -0.60043,-0.0503 -0.90039,-0.0801 -0.53418,0.71909 -1.15868,1.36921 -1.95117,1.89453 -0.97143,0.3612 -1.91686,0.80161 -2.91406,1.08398 -0.35623,0.1009 -0.73948,0.0702 -1.10938,0.0547 -0.93483,-0.0393 -1.81081,-0.21969 -2.70898,-0.43945 -1.31232,-0.26685 -2.64795,-0.42513 -3.97852,-0.56836 -1.73437,-0.19417 -3.46473,-0.42066 -5.19336,-0.66016 -2.03145,-0.28098 -4.06387,-0.55462 -6.10351,-0.76953 -2.06985,-0.20586 -4.14506,-0.35832 -6.22266,-0.46094 -2.63888,-0.15739 -5.27671,-0.33739 -7.91601,-0.48828 -0.94507,-0.0595 -1.89652,-0.14591 -2.84375,-0.17383 h -0.58789 c -0.14844,0 -0.43932,0.14833 -0.44532,0 h -0.084 c 0.0137,-2.02562 -0.009,-4.05202 -0.0137,-6.07812 -7.16123,-2.60263 -5.62812,-11.39603 4.61133,-11.45117 2.58007,-0.0139 5.15907,0.0471 7.73828,0.10547 5.75236,0.14252 11.50306,0.332 17.2539,0.52539 3.28485,0.12296 6.57029,0.23464 9.85547,0.34765 0.0181,-0.0137 0.0346,-0.0293 0.0527,-0.043 1.06562,-0.77274 2.22729,-1.3834 3.42968,-1.91016 0.83362,-0.34006 1.67588,-0.65698 2.53516,-0.92578 0.80296,-0.26728 1.62372,-0.43969 2.45898,-0.57032 0.93456,-0.12129 1.87199,-0.14506 2.81055,-0.12109 z m 153.67188,2.66992 c -0.0107,6.9e-4 -0.0139,0.003 0.004,0.006 0.0637,0.0118 0.12765,0.0218 0.19141,0.0332 -10e-4,-8.5e-4 -0.003,-8e-5 -0.004,-0.002 -0.0373,-0.0289 -0.15939,-0.0392 -0.1914,-0.0371 z m -57.07422,0.99805 c 0.021,0.0635 0.0403,0.12929 0.0586,0.19727 0.15189,-0.0345 0.45896,-0.0508 0.59766,-0.0859 -0.21688,-0.0709 -0.4375,-0.0644 -0.65625,-0.11133 z m 25.61914,6.73242 c -0.0704,0.22692 0.0131,0.0265 0.002,0.004 -5.9e-4,-10e-4 2e-4,-0.003 -0.002,-0.004 z m 87.28711,1.34766 c 2.18824,0.0746 2.82622,1.93608 1.45508,3.29297 0.0845,-0.0179 0.16948,-0.0345 0.2539,-0.0527 0.39045,-0.0843 0.75163,-0.12194 1.08008,-0.12304 3.17504,-0.0107 3.39788,3.53893 -0.37305,4.36914 -0.3033,0.0668 -0.60967,0.11972 -0.91406,0.18164 0.9651,1.193 0.16112,3.11412 -2.61719,3.36133 -0.86323,0.0768 -1.72973,0.0948 -2.5957,0.11328 -1.41852,0.0362 -2.83825,-0.005 -4.25586,-0.0547 -0.99543,-0.0352 -1.74642,-0.29876 -2.26367,-0.67774 -0.11144,0.035 -0.2246,0.0644 -0.33594,0.0996 -1.74349,0.55159 -2.97637,0.10939 -3.49609,-0.67578 -0.83219,0.004 -1.66397,0.0384 -2.4961,0.0371 -4.15543,-3e-4 -8.31136,-0.0383 -12.46679,-0.0195 -2.74994,0.0131 -5.49904,0.0229 -8.24805,0.10156 -1.09819,0.0369 -2.19773,0.0847 -3.29297,0.17578 -0.32279,0.0267 -0.64328,0.0516 -0.96289,0.10547 -1.26886,0.21402 -2.19622,-0.032 -2.75976,-0.49609 h -0.25586 c -0.0407,0.002 -0.0581,0.0226 -0.0996,0.0234 -0.11024,0.002 -0.21985,0.004 -0.33008,0.006 -1.27222,0.0273 -2.54424,0.057 -3.81641,0.0859 -1.84432,0.0383 -3.68931,0.0637 -5.5332,0.1211 -2.40487,0.0601 -4.80954,0.11439 -7.21484,0.15039 -2.9222,0.0319 -5.84532,0.0293 -8.76758,0.008 -1.97464,-0.0136 -3.94919,-0.0398 -5.92383,-0.0488 h -1.68945 c -1.11933,0 -1.94145,-0.29824 -2.47266,-0.73633 -0.23872,0.0884 -0.4042,0.21737 -0.68945,0.27735 -0.81982,0.17239 -1.65992,0.2097 -2.49414,0.25 -2.08617,0.0811 -4.17428,0.085 -6.26172,0.0977 -2.06757,0.0112 -4.13553,0.0155 -6.20313,0.0195 -1.26634,-0.007 -2.53277,0.01 -3.79883,0.0332 -0.94008,0.0184 -1.88013,0.0329 -2.82031,0.0449 -0.38498,-0.002 -0.76822,0.0361 -1.15234,0.0566 -0.39687,0.0194 -0.79417,0.0252 -1.19141,0.0312 -2.66143,0.042 -3.6855,-1.6217 -3.04101,-2.89258 -0.69812,-0.87 -0.56848,-2.06704 0.6914,-2.77539 -1.09027,-1.09057 -0.67095,-3.01105 2.07031,-3.53125 0.41408,-0.0786 0.83042,-0.14191 1.25196,-0.16211 0.28133,-0.011 0.56221,-0.01 0.84375,-0.008 0.3387,0.003 0.67696,0.01 1.01562,0.0156 0.80323,0.0153 1.60726,0.0344 2.41016,0.0625 1.19982,0.0406 2.39959,0.0754 3.59961,0.10937 1.58519,0.0552 3.16899,0.11338 4.7539,0.17578 1.97716,0.0803 3.95393,0.16938 5.93165,0.23438 2.33672,0.0715 4.6736,0.14708 7.00976,0.23632 2.91308,0.10593 5.82828,0.23672 8.74414,0.19532 2.86888,-0.0273 5.73518,-0.10742 8.60352,-0.16602 3.44286,-0.0591 6.88667,-0.0876 10.33008,-0.0684 3.99224,0.0122 7.98436,0.0287 11.97656,0.0508 2.35987,0.008 4.72024,0.006 7.08008,-0.01 0.82066,-0.007 1.64329,-0.005 2.46289,-0.0488 1.69612,-0.0913 2.75743,0.53404 3.16406,1.33203 3.15984,-0.23803 6.31896,-0.48415 9.47656,-0.75195 2.00259,-0.15546 4.00593,-0.29928 6.00977,-0.4375 0.89088,-0.0614 1.84059,-0.11912 2.73047,-0.19922 0.37913,-0.0341 0.7581,-0.0797 1.13671,-0.11914 1.3207,-0.15833 2.65835,-0.32467 3.91602,-0.7793 0.47654,-0.16418 0.95203,-0.33527 1.44141,-0.45703 0.51682,-0.12859 0.98257,-0.1781 1.39453,-0.16406 z" /></g><g
     inkscape:groupmode="layer"
     id="layer1"
     inkscape:label="Roads"
     style="display:inline;fill:#afafaf;fill-opacity:1"><rect
       style="opacity:1;fill:#00ffff;fill-opacity:1;stroke:none;stroke-width:1;stroke-dasharray:none;stroke-opacity:1;filter:url(#filter190)"
       id="rect72"
       width="165"
       height="50"
       x="147.5"
       y="200"
       inkscape:label="lake"
       transform="matrix(1,0,0,1.2673201,-6.036913e-6,-48.464026)" /><path
       style="opacity:1;fill:#b3dae5;fill-opacity:1;stroke:none;stroke-width:1;stroke-dasharray:none;stroke-opacity:1"
       d="m 115,619.99998 v 5 H 59.999998 v -45 h -9.999999 v 40 h -10 V 369.99999 h 15 v 70 h -5 v 134.99999 h 9.999999 v -44.99999 h 5 L 65,620 Z"
       id="path304" /><path
       id="path306"
       clip-path="url(#clipPath14)"
       style="opacity:1;fill:#afafaf;fill-opacity:1;stroke:none;stroke-width:1;stroke-dasharray:none;stroke-opacity:1"
       d="m 120,0 v 304.5 l -15,0.5 v 45 70 H 90 v 20 h 15 10 v 205 c 0,0 -50,5 -50,-10 0,-15 -5.000001,-15 -30,-15 H 0 v 180 30 1.68359 H 1086.416 V 800 h -34.2734 l 2.8574,-40 5,-35 5,-140 h -90 c -20,0 -20,25 -20,25 l -5,80 v 40 c 0,0 0,10 -10,10 H 810 c 0,0 -15,0 -20,-10 l -15,-30 c -5,-10 -5,-25 -5,-25 l 5.41797,-0.0156 L 775,610 h -30 v 65 h 15 c 0,0 0,25 10,40 10,15 15,35 35,35 h 145 80 c 10,0 10,10 10,10 l -2.8574,40 H 120 V 655 h 610 c 10.00002,2e-5 10,-10 10,-10 v -85 c 0,-5 5,-10 5,-10 V 320 h -10 v 190 c 0,5 -5,5 -5,5 V 635 H 675 V 330 H 625 V 635 H 465 c 0,0 -23.77257,10 -40,10 H 250 v -85 c 0,0 3,-35 -35,-35 H 155 V 635 H 140 V 350 305 h -5 V 145 h 85 V 125 H 135 V 75 c 0,-15 15,-15 15,-15 h 35 v -5 h 40 V 50 H 150 C 135,50 135,35 135,35 V 0 Z m 88.71289,557.61133 c 0.0604,0.11175 0.12643,0.24351 0.18945,0.38086 0.13119,0.012 0.26385,0.0299 0.39454,0.0644 0.78827,0.19518 1.44918,0.61148 1.76953,1.39063 0.076,0.19694 0.14293,0.395 0.20117,0.5957 0.55209,0.0864 1.06776,0.37788 1.45312,0.84375 0.13566,0.16399 0.24477,0.34738 0.36719,0.52148 0.24211,0.39944 0.46961,0.8078 0.67578,1.22461 0.93234,-0.54306 1.90769,-1.00508 2.86914,-1.49414 0.95659,-0.48162 1.89896,-1.01353 2.91797,-1.35156 0.61178,-0.0704 0.82648,-0.12519 1.13672,0.11914 0.13183,-0.20041 0.26639,-0.39878 0.39453,-0.60156 1.14241,-1.80603 2.75234,-1.59945 3.12891,-0.44336 0.0678,-0.0103 0.13503,-0.0225 0.20312,-0.0312 1.42499,-0.0785 2.04813,0.76163 2.16602,2.0293 0.0353,0.37973 -0.18129,0.82112 -0.30664,1.15234 -0.24158,0.50509 -0.58192,0.94101 -0.95508,1.35156 -0.0328,0.34185 -0.11758,0.69955 -0.11133,1.0293 -0.72602,1.24289 -1.55743,2.42207 -2.33594,3.63281 -0.66693,0.98088 -1.27718,1.96414 -1.82812,2.99609 -0.01,0.073 -0.0238,0.15209 -0.0391,0.23047 0.0634,0.006 0.11521,0.0247 0.14257,0.0703 0.0215,1.1e-4 0.043,0.002 0.0645,0.002 0.006,0.12948 0.009,0.25916 0.0137,0.38867 0.17901,-0.0226 0.36186,-0.0143 0.54297,0.0352 0.18823,-0.0986 0.37929,-0.19439 0.5664,-0.29493 1.20888,0.18718 1.27284,0.0607 1.73829,0.99024 0.0514,0.0443 0.10098,0.0915 0.15429,0.13281 0.30125,0.43822 0.45502,0.92064 0.5293,1.41992 2.45536,-1.55073 4.13296,0.94593 1.63476,2.70313 -0.11432,0.0804 -0.22748,0.16402 -0.3496,0.23242 -0.3176,0.24502 -0.66795,0.4352 -0.99414,0.66797 -0.0157,0.0103 -0.0294,0.0228 -0.0449,0.0332 -0.12976,0.17671 -0.27613,0.34286 -0.4375,0.49805 -0.3025,0.29091 -0.12134,0.0862 -0.22656,0.20703 -0.34065,0.38418 -0.80296,0.60474 -1.24609,0.8418 -0.10012,-0.0494 -0.21564,0.29462 -0.30664,0.19922 -0.62882,-0.65935 -1.07198,-1.03188 -1.42383,-1.30274 -0.29186,0.17872 -0.57446,0.26506 -0.87305,0.25781 -1.10762,0.82927 -2.17855,0.45974 -2.76367,-1.02734 -0.0963,-0.24482 -0.0334,-0.54267 0.0957,-0.84375 -0.5186,-0.0929 -0.87035,-0.31879 -1.09375,-0.62305 -0.36044,0.22603 -0.72208,0.45002 -1.07812,0.6836 -0.216,0.14129 -0.43541,0.27862 -0.6543,0.41601 -0.0569,0.45031 -0.14347,0.89568 -0.33398,1.3125 -0.26452,0.55675 -0.61107,1.06503 -1.03321,1.51563 -0.39008,0.36496 -0.69781,0.80544 -1.08789,1.17187 -0.74874,0.70154 -1.52023,1.37828 -2.35547,1.97657 -0.933,0.72015 -1.89175,1.4063 -2.93359,1.96289 -0.62022,0.33183 -1.2456,0.64064 -1.91016,0.7832 -1.10704,0.9558 -2.25075,1.86578 -3.48242,2.66016 -0.29568,0.20594 -1.22521,1.02426 -1.54687,0.94726 -1.53836,-0.36856 -2.78819,-1.17078 -1.54688,-2.71875 0.46256,-0.59228 0.91278,-1.19544 1.39844,-1.76953 -0.43302,0.14664 -0.86837,0.28528 -1.30859,0.41016 -1.20609,0.30848 -2.0533,0.22734 -2.95118,-0.72266 -0.12587,-0.13318 -0.20313,-0.30644 -0.30468,-0.45898 -0.49623,-1.13346 -0.5999,-2.22773 -0.22461,-3.41797 0.0705,-0.22372 0.18339,-0.4307 0.27539,-0.64649 0.66818,-1.12277 1.56545,-2.08324 2.58984,-2.88672 0.66233,-0.33412 1.09409,-0.47541 1.49024,-0.35937 0.20887,-0.19721 0.4197,-0.39182 0.63086,-0.58594 0.62806,-0.55023 1.3394,-0.9895 2.0332,-1.44922 0.46141,-0.25365 0.85249,-0.60075 1.25976,-0.92968 0.57158,-0.40854 1.0772,-0.895 1.60938,-1.35157 0.58495,-0.50928 1.24851,-0.90447 1.94336,-1.24219 0.34622,-0.19172 0.71536,-0.33993 1.06445,-0.52539 0.15725,-0.12023 0.33752,-0.20273 0.50586,-0.30468 -0.0124,0.006 -0.0265,0.0142 -0.0332,0.01 -0.0162,-0.0113 0.0288,-0.0293 0.043,-0.043 0.28223,-0.25554 0.66637,-0.40738 1.06054,-0.44922 0.0947,-0.072 0.18586,-0.1478 0.28125,-0.21874 0.11522,-0.0874 0.2308,-0.17557 0.34571,-0.26368 -0.1537,-8.5e-4 -0.30685,-0.0206 -0.45313,-0.082 -1.04222,-0.43775 -1.03056,-0.61857 -1.42969,-1.36719 -0.30802,-0.82683 -0.3996,-1.70726 -0.4707,-2.58007 0.0194,-0.0571 -0.0879,-0.40517 -0.11914,-0.38477 -0.0743,0.0485 0.19917,0.26502 -0.084,0.002 -0.0514,-0.0512 -0.10879,-0.0941 -0.16211,-0.14257 -0.10913,5.6e-4 -0.21812,0.004 -0.32813,-0.002 -1.06978,-0.0412 -2.13173,-0.21045 -3.08984,-0.71679 -1.19076,-0.81107 -1.53948,-1.51993 -1.60938,-2.92579 0.0365,-0.70879 0.0659,-1.42604 0.36914,-2.08203 0.58062,-0.92004 1.34796,-1.26491 2.40821,-0.99414 0.0761,0.0223 0.14514,0.0551 0.21875,0.082 0.006,-0.10525 0.0228,-0.20048 0.10937,-0.22265 0.93565,-0.23949 1.92095,-0.21176 2.88086,-0.31836 z m -6.93359,21.50781 c -0.0553,0.0528 -0.11348,0.10268 -0.16797,0.15625 0.0125,0.0242 0.0237,0.0444 0.0371,0.0703 0.0426,-0.0762 0.0868,-0.15128 0.13086,-0.22656 z M 980,600 h 60 c 0,0 10,0 10,10 0,10 -5,125 -5,125 0,0 0,5 -10,5 h -60 c 0,0 -10,-2e-5 -10,-5 v -60 l 5,-65 c 0,0 0,-10 10,-10 z M 15,630 h 35 v 35 135 H 15 Z m 50,35 h 40 V 800 H 65 Z" /><path
       id="rect5-8"
       style="fill:#ff0000;stroke-width:0.790571"
       d="m 0,792 h 15 v 7.50002 H 0 Z m 50,3 h 15 v 5.00002 H 50 Z" /><path
       id="path97-5-1"
       style="fill:#000080;stroke-width:0.5"
       transform="matrix(0.65262795,0,0,0.65262795,58.287935,154.91677)"
       d="m 170,480 -13.66025,3.66025 -10,-10 L 150,460 l 13.66025,-3.66025 10,10 z m 0,35.2948 -13.66025,3.66025 -10,-10 L 150,495.2948 l 13.66025,-3.66025 10,10 z M 0.62929468,634.0241 l -7.44186918,1.99404 -5.4478275,-5.44782 1.994041,-7.44187 7.4418689,-1.99404 5.447828,5.44782 z M 170,550.58961 l -13.66025,3.66025 -10,-10 3.66025,-13.66025 13.66025,-3.66025 10,10 z" /></g><g
     inkscape:groupmode="layer"
     id="layer4"
     inkscape:label="Text"
     style="display:inline"><path
       id="path1"
       style="display:inline;fill:#ff0000;fill-opacity:1;stroke-width:0.494975;stroke-dasharray:none"
       inkscape:transform-center-x="3.1250032"
       inkscape:transform-center-y="2.194978e-06"
       d="M 126.24997,769.99998 145,764.58731 v 10.82534 z m 14.37502,-2.70625 h 29.99999 v 4.99997 h -29.99999 z"
       inkscape:label="Arrow" /><text
       xml:space="preserve"
       style="font-weight:bold;font-size:13.3333px;font-family:sans-serif;-inkscape-font-specification:'sans-serif Bold';text-align:center;writing-mode:lr-tb;direction:ltr;text-anchor:middle;display:inline;fill:#ffffff;fill-opacity:1;stroke:#000000;stroke-width:0.5;stroke-dasharray:none;stroke-opacity:1"
       x="228.11598"
       y="244.54817"
       id="text98"><tspan
         sodipodi:role="line"
         id="tspan98"
         x="228.11598"
         y="244.54817"
         style="fill:#ffffff;fill-opacity:1;stroke:#000000;stroke-opacity:1">FISH POND</tspan></text><text
       xml:space="preserve"
       style="font-weight:bold;font-size:34.1882px;font-family:sans-serif;-inkscape-font-specification:'sans-serif Bold';text-align:center;writing-mode:lr-tb;direction:ltr;text-anchor:middle;display:inline;fill:#ffffff;fill-opacity:1;stroke:none;stroke-width:0.582754;stroke-dasharray:none;stroke-opacity:1"
       x="219.31133"
       y="424.94257"
       id="text99"
       transform="scale(0.85799476,1.1655083)"><tspan
         sodipodi:role="line"
         id="tspan99"
         x="219.31133"
         y="424.94257"
         style="font-style:normal;font-variant:normal;font-weight:normal;font-stretch:normal;font-size:34.1882px;font-family:sans-serif;-inkscape-font-specification:sans-serif;stroke-width:0.582754">}</tspan></text><text
       xml:space="preserve"
       style="font-style:normal;font-variant:normal;font-weight:bold;font-stretch:normal;font-size:10.6667px;font-family:sans-serif;-inkscape-font-specification:'sans-serif Bold';text-align:center;writing-mode:lr-tb;direction:ltr;text-anchor:middle;display:inline;fill:#ffffff;fill-opacity:1;stroke:none;stroke-width:0.5;stroke-dasharray:none;stroke-opacity:1"
       x="224.99998"
       y="488.05225"
       id="text100"><tspan
         sodipodi:role="line"
         id="tspan100"
         x="224.99998"
         y="488.05225"
         style="font-size:10.6667px">GAZEBOS</tspan></text><text
       xml:space="preserve"
       style="font-weight:bold;font-size:13.3333px;font-family:sans-serif;-inkscape-font-specification:'sans-serif Bold';text-align:center;writing-mode:lr-tb;direction:ltr;text-anchor:middle;fill:#ffffff;fill-opacity:1;stroke:#000000;stroke-width:0.5;stroke-dasharray:none;stroke-opacity:1"
       x="558.7771"
       y="820.14581"
       id="text2"><tspan
         sodipodi:role="line"
         id="tspan2"
         x="558.7771"
         y="820.14581">MARTIN POSADAS AVE. SAN PEDRO TALOY</tspan></text><text
       xml:space="preserve"
       style="font-weight:bold;font-size:13.3333px;font-family:sans-serif;-inkscape-font-specification:'sans-serif Bold';text-align:center;writing-mode:lr-tb;direction:ltr;text-anchor:middle;fill:#ffffff;fill-opacity:1;stroke:#000000;stroke-width:0.5;stroke-dasharray:none;stroke-opacity:1"
       x="940"
       y="820"
       id="text3"><tspan
         sodipodi:role="line"
         id="tspan3"
         x="940"
         y="820">SAN CARLOS - URBIZTONDO RD</tspan></text><text
       xml:space="preserve"
       style="font-weight:bold;font-size:13.3333px;font-family:sans-serif;-inkscape-font-specification:'sans-serif Bold';text-align:center;writing-mode:lr-tb;direction:ltr;text-anchor:middle;display:inline;fill:#ffffff;fill-opacity:1;stroke:#000000;stroke-width:0.5;stroke-dasharray:none;stroke-opacity:1"
       x="127"
       y="820"
       id="text4"><tspan
         sodipodi:role="line"
         id="tspan4"
         x="127"
         y="820">TO SAN CARLOS CITY PROPER</tspan></text><text
       xml:space="preserve"
       style="font-weight:bold;font-size:10.6667px;font-family:sans-serif;-inkscape-font-specification:'sans-serif Bold';text-align:center;writing-mode:lr-tb;direction:ltr;text-anchor:middle;fill:#ffffff;fill-opacity:1"
       x="242.21896"
       y="772.85413"
       id="text1"><tspan
         sodipodi:role="line"
         id="tspan1"
         x="242.21896"
         y="772.85413"
         style="font-size:10.6667px;fill:#ffffff">Main Campus Entrance</tspan></text><text
       xml:space="preserve"
       style="font-weight:bold;font-size:5.33333px;font-family:sans-serif;-inkscape-font-specification:'sans-serif Bold';text-align:center;writing-mode:lr-tb;direction:ltr;text-anchor:middle;fill:#ffffff;fill-opacity:1;stroke:none;stroke-width:0.5;stroke-dasharray:none;stroke-opacity:1"
       x="7.5130653"
       y="797.75659"
       id="text7"><tspan
         sodipodi:role="line"
         id="tspan7"
         x="7.5130653"
         y="797.75659"
         style="font-size:5.33333px">EXIT</tspan></text><text
       xml:space="preserve"
       style="font-weight:bold;font-size:8px;font-family:sans-serif;-inkscape-font-specification:'sans-serif Bold';text-align:center;writing-mode:lr-tb;direction:ltr;text-anchor:middle;display:inline;fill:#ffffff;fill-opacity:1;stroke:none;stroke-width:0.5;stroke-dasharray:none;stroke-opacity:1"
       x="84.718513"
       y="787.63055"
       id="text5"><tspan
         sodipodi:role="line"
         id="tspan5"
         x="84.718513"
         y="787.63055">Vehicle</tspan><tspan
         sodipodi:role="line"
         x="84.718513"
         y="797.63055"
         id="tspan6">Entrance</tspan></text></g></svg>
