<?xml version="1.0" encoding="UTF-8" standalone="no"?>
<!-- Created with Inkscape (http://www.inkscape.org/) -->

<svg
   version="1.1"
   id="svg1"
   width="1086.4158"
   height="831.68317"
   viewBox="0 0 1086.4158 831.68314"
   sodipodi:docname="Campus Map.svg"
   xml:space="preserve"
   inkscape:version="1.4 (86a8ad7, 2024-10-11)"
   inkscape:export-filename="..\images\campus.jpg"
   inkscape:export-xdpi="96"
   inkscape:export-ydpi="96"
   xmlns:inkscape="http://www.inkscape.org/namespaces/inkscape"
   xmlns:sodipodi="http://sodipodi.sourceforge.net/DTD/sodipodi-0.dtd"
   xmlns:xlink="http://www.w3.org/1999/xlink"
   xmlns="http://www.w3.org/2000/svg"
   xmlns:svg="http://www.w3.org/2000/svg"><defs
     id="defs1"><linearGradient
       id="swatch136"><stop
         style="stop-color:#4bbf40;stop-opacity:1;"
         offset="0"
         id="stop137" /></linearGradient><linearGradient
       id="swatch4"
       inkscape:swatch="solid"><stop
         style="stop-color:#000000;stop-opacity:1;"
         offset="0"
         id="stop4" /></linearGradient><clipPath
       clipPathUnits="userSpaceOnUse"
       id="clipPath1"><rect
         style="fill:none;stroke:#000000;stroke-width:20;stroke-opacity:1"
         id="rect2"
         width="2929.8857"
         height="1837.5428"
         x="-13.885715"
         y="629.48572" /></clipPath><radialGradient
       inkscape:collect="always"
       xlink:href="#swatch136"
       id="radialGradient139"
       cx="1092.5254"
       cy="722.04492"
       fx="1092.5254"
       fy="722.04492"
       r="502.47659"
       gradientTransform="matrix(1,0,0,0.79605697,0,147.25602)"
       gradientUnits="userSpaceOnUse" /><filter
       inkscape:collect="always"
       style="color-interpolation-filters:sRGB"
       id="filter139"
       x="-0.043105368"
       y="-0.054148597"
       width="1.0862107"
       height="1.1082972"><feGaussianBlur
         inkscape:collect="always"
         stdDeviation="18.049532"
         id="feGaussianBlur139" /></filter></defs><sodipodi:namedview
     id="namedview1"
     pagecolor="#505050"
     bordercolor="#eeeeee"
     borderopacity="1"
     inkscape:showpageshadow="0"
     inkscape:pageopacity="0"
     inkscape:pagecheckerboard="0"
     inkscape:deskcolor="#505050"
     showgrid="true"
     inkscape:zoom="1.0268334"
     inkscape:cx="545.36598"
     inkscape:cy="407.07675"
     inkscape:window-width="1920"
     inkscape:window-height="1059"
     inkscape:window-x="1912"
     inkscape:window-y="-8"
     inkscape:window-maximized="1"
     inkscape:current-layer="svg1"><inkscape:grid
       id="grid4"
       units="px"
       originx="0"
       originy="0"
       spacingx="1"
       spacingy="0.99999997"
       empcolor="#0099e5"
       empopacity="0.30196078"
       color="#0099e5"
       opacity="0.14901961"
       empspacing="5"
       enabled="true"
       visible="true" /></sodipodi:namedview><g
     inkscape:groupmode="layer"
     inkscape:label="background"
     id="bg"
     transform="translate(-600.04926,-322.0441)"
     sodipodi:insensitive="true"><image
       width="1086.4158"
       height="831.68317"
       preserveAspectRatio="none"
       style="image-rendering:optimizeQuality"
       xlink:href="../../../../../Downloads/Documents/ShareX/Screenshots/2025-03/zen-03.07.25-01.26.50PM.png"
       id="image1"
       x="600.04926"
       y="322.0441"
       inkscape:label="Background" /><path
       id="Spraypaint"
       style="opacity:1;fill:url(#radialGradient139);stroke:#000000;stroke-width:0;stroke-dasharray:none;fill-opacity:1;filter:url(#filter139)"
       inkscape:label="Spray Paint Border"
       d="m 765.04883,324.04492 c 0,22.66667 0,45.33334 0,68 26.66666,0 53.33333,0 80,0 0,-23.33333 0,-46.66666 0,-70 -26.66667,0 -53.33334,0 -80,0 0,0.66667 0,1.33334 0,2 z m -85.75,0.25 c 0,100.91667 0,201.83334 0,302.75 -29.75,0 -59.5,0 -89.25,0 0,26.66667 0,53.33334 0,80 1.66666,0 3.33333,0 5,0 0,138.33334 0,276.66667 0,414.99998 41.66666,0 83.33333,0 125,0 0,-31.6666 0,-63.3333 0,-95 210,0 419.99997,0 629.99997,0 0,-98.66664 0,-197.33331 0,-295.99998 0,33.66276 0.01,67.32552 0.012,100.98828 63.3256,0 126.6511,0 189.9766,0 0,-34.99609 0.01,-69.99218 0.012,-104.98828 -63.3333,0 -126.6666,0 -190,0 0,-16.66666 0,-33.33333 0,-50 16.6667,0 33.3334,0 50,0 0,-21.66666 0,-43.33333 0,-65 -25,0 -50,0 -75,0 0,3.33334 0,6.66667 0,10 -21.6666,0 -43.3333,0 -65,0 0,111.66667 0,223.33334 0,335 -3.4505,0 -6.901,0 -10.3515,0 0,-111.54948 0,-223.09896 0,-334.64844 -31.5495,0 -63.099,0 -94.6485,0 0,-12.61718 0,-25.23437 0,-37.85156 -8.6087,0 -17.2174,0 -25.8261,0 -16.6874,-24.69615 -42.9418,-42.77029 -72.0304,-49.35193 -17.7031,-4.09749 -36.3526,-4.14514 -54.0397,0.0663 -20.74738,4.85956 -40.20946,15.27754 -55.55623,30.08766 -18.75673,17.91833 -31.46693,42.07388 -35.48961,67.7104 -0.70581,4.2859 -1.07536,8.61916 -1.44374,12.94194 -1.12695,4.36848 -0.42706,8.90548 -0.624,13.35304 -0.004,72.32852 -0.01,144.65703 -0.0136,216.98555 1.10859,-0.85434 2.21823,-1.70732 3.32617,-2.5625 5.65514,24.84744 19.39346,47.82878 38.80907,64.36646 9.028,7.74996 19.22281,14.13405 30.12257,18.90307 -19.11588,0 -38.23177,0 -57.34765,0 0,-10.7806 0,-21.5612 0,-32.3418 -26.59896,10e-6 -53.19792,0 -79.79688,0 7.6849,-7.68489 15.36979,-15.36979 23.05469,-23.05468 -1.23236,-4.59898 -2.46485,-9.19792 -3.69727,-13.79688 2.60092,-2.60091 5.20183,-5.20182 7.80274,-7.80273 -0.803,-1.38917 -1.60552,-2.77862 -2.40821,-4.16797 0.53696,-0.53401 1.07183,-1.0701 1.60743,-1.60547 -5.25145,-9.10213 -10.50347,-18.20393 -15.75391,-27.30664 -8.53255,-4.92335 -17.06362,-9.84927 -25.5957,-14.77344 -1.83998,1.76523 -3.59938,3.61247 -5.44727,5.36914 -3.00891,0.88121 -5.75052,2.56537 -8.02539,4.70899 -5.41797,0 -10.83594,0 -16.2539,0 -16.27868,16.27926 -32.55723,32.55865 -48.83594,48.83789 0.83203,0.83203 1.66406,1.66406 2.49609,2.49609 -5.73828,5.73828 -11.47656,11.47656 -17.21484,17.21485 3.52891,3.52902 7.05726,7.05862 10.58593,10.58789 -2.29493,2.29556 -4.58944,4.59154 -6.88476,6.88672 9.58268,9.58268 19.16536,19.16536 28.74805,28.74804 -13.35455,-0.001 -26.72167,0.003 -40.06836,-0.002 3.91902,-3.68425 6.24465,-9.10853 5.81826,-14.51055 -0.0348,-65.16249 -0.01,-130.325 -0.0175,-195.4875 -5,0 -10,0 -15,0 0,-31.66666 0,-63.33333 0,-95 -13.33334,0 -26.66667,0 -40,0 0,-1.83333 0,-3.66666 0,-5.5 20,0 40,0 60,0 0,-108.08333 0,-216.16666 0,-324.25 -20.25,0 -40.5,0 -60.75,0 0,0.66667 0,1.33334 0,2 z m 120.75,99.75 c 0,24.33334 0,48.66667 0,73 25,0 50,0 75,0 0,-25 0,-50 0,-75 -25,0 -50,0 -75,0 0,0.66667 0,1.33334 0,2 z M 1030.332,597.06641 c 5.0443,0.0311 10.0823,0.69866 14.9629,1.97265 0.3602,0.10811 1.1041,0.29544 1.6117,0.45104 11.5071,3.31551 22.0236,10.31508 29.0753,20.04832 5.6889,7.86866 9.1276,17.51742 8.9707,27.27631 -0.1975,1.99883 -0.1534,4.00793 0.061,6.00199 0.065,3.05724 -0.022,6.11639 0.015,9.17469 -10e-4,61.80104 0.01,123.60209 -0.029,185.40312 -36.5729,0 -73.1458,0 -109.71875,0 -0.16078,-1.58384 -0.29796,-3.16474 -0.23247,-4.75937 -0.001,-63.90313 -0.003,-127.80625 -0.004,-191.70938 0.31198,-3.12345 -0.20912,-6.28361 0.35383,-9.39015 1.40668,-12.02605 7.81899,-23.23567 17.06008,-30.98154 3.35034,-2.86044 7.225,-5.38661 11.06457,-7.29042 6.568,-3.27431 13.7584,-5.26793 21.0625,-5.9414 0.6552,-0.0602 1.6282,-0.13441 2.4085,-0.17429 1.1117,-0.0572 2.2245,-0.0807 3.3376,-0.0816 z m 404.7168,271.97851 c 0,2.66667 0,5.33334 0,8 -13.3333,0 -26.6666,0 -40,0 0,6.78321 0,13.56641 0,20.34961 -6.6673,0 -13.3346,0 -20.0019,0 0,5.02279 0,10.04557 0,15.06836 -6.5267,0 -13.0534,0 -19.5801,0 0,34.85547 0,69.71094 0,104.56641 6.5267,0 13.0534,0 19.5801,0 0,4.8887 0,9.7773 0,14.666 6.6673,0 13.3346,0 20.0019,0 0,6.7832 0,13.5664 0,20.3496 13.3334,0 26.6667,0 40,0 0,3.3334 0,6.6667 0,10 26.6667,0 53.3334,0 80,0 0,-3.3333 0,-6.6666 0,-10 13.3334,0 26.6667,0 40,0 0,-6.7278 0,-13.4557 0,-20.1836 6.6608,0 13.3216,0 19.9824,0 0,-5.011 1e-4,-10.0221 0,-15.0332 6.657,0 13.3139,0 19.9708,0 0,-34.85544 0,-69.71091 0,-104.56638 -6.6569,0 -13.3138,0 -19.9708,0 0,-5.01107 1e-4,-10.02214 0,-15.0332 -6.6608,0 -13.3216,0 -19.9824,0 0,-6.72787 0,-13.45573 0,-20.1836 -13.3333,0 -26.6666,0 -40,0 0,-3.33333 0,-6.66666 0,-10 -26.6666,0 -53.3333,0 -80,0 0,0.66667 0,1.33334 0,2 z m -310.3476,60.5 c 0,9.16667 0,18.33334 0,27.5 -15.7149,0 -31.4297,0 -47.1446,0 14.7126,-6.42708 28.1454,-15.80762 39.1563,-27.5 2.6628,0 5.3255,0 7.9883,0 z m -289.53909,27.5 c -7.45508,0 -14.91016,0 -22.36523,0 7.45507,-7.45508 14.91015,-14.91015 22.36523,-22.36523 0,7.45508 0,14.91015 0,22.36523 z m -135.11328,35 c -3.33334,0 -6.66667,0 -10,0 0,-6.66666 0,-13.33333 0,-20 -6.66667,0 -13.33334,0 -20,0 0,-3.33333 0,-6.66666 0,-10 10.00001,0.004 20.00001,-0.003 30,-0.0215 0,10.00716 0,20.01432 0,30.02148 z" /></g><g
     inkscape:groupmode="layer"
     id="buildings"
     inkscape:label="buildings"
     style="display:none;stroke-width:0.7;stroke-dasharray:none"><path
       id="SpecSci"
       style="opacity:1;fill:#002bac;stroke:#000000"
       d="M 99.25,20.249998 H 120 V 159.75 H 99.25 Z"
       inkscape:label="Special Science High School / Education Bldg." /><path
       id="DentPharm"
       style="fill:#8200ca;stroke:#000000"
       d="M 99.25,165 H 120 V 304.5 H 99.25 Z"
       inkscape:label="Dentistry &amp; Pharmacy Bldg," /><path
       id="Maintenance"
       style="opacity:1;fill:#9e2a00;stroke:#000000"
       d="m 185,20 h 40 v 30 h -40 z"
       inkscape:label="Maintenance &amp; Engineering Department Bldg." /><path
       id="AS"
       style="opacity:1;fill:#4e5278;stroke:#000000"
       d="m 10,325 h 50 v 40 H 10 Z"
       inkscape:label="Arts &amp; Sciences Bldg." /><path
       id="Memorial"
       style="opacity:1;fill:#c88000;stroke:#000000"
       d="m 220,120 h 34.99999 v 34.99999 H 220 Z"
       inkscape:label="Founder's Memorial Park" /><path
       id="SHS"
       style="opacity:1;fill:#5f5f5f;stroke:#000000"
       d="m 15,370 h 25 v 75 H 15 Z"
       inkscape:label="Senior High School Bldg." /><path
       id="rect9"
       style="opacity:1;fill:#ffeb13;stroke:#000000"
       d="M 15,450 H 40 V 595 H 15 Z" /><path
       id="Alumni"
       style="opacity:1;fill:#b54400;fill-opacity:1;stroke:#000000;stroke-width:0.7;stroke-dasharray:none;stroke-opacity:1"
       d="m 70,350 v 35 H 55 v 55 h 30 v -25 h 15 v -65 z"
       inkscape:label="Alumni Center" /><path
       id="Centrum"
       style="opacity:1;fill:#ff9e05;fill-opacity:1;stroke:#000000;stroke-width:0.7;stroke-dasharray:none;stroke-opacity:1"
       d="m 65,445 v 40 H 50 v 15 15 1 14 h 15 v 15 h 50 V 445 Z"
       inkscape:label="Centrum Bldg." /><path
       id="BSA"
       style="opacity:1;fill:#fff613;stroke:#000000"
       d="M 15,450 H 40 V 595 H 15 Z"
       inkscape:label="Business Administration Bldg." /><path
       id="Cafeteria1"
       style="opacity:1;fill:#ffaf80;fill-opacity:1;stroke:#000000;stroke-width:0.7;stroke-dasharray:none;stroke-opacity:1"
       d="m 85,550 v 20 H 65 v 30 h 50 v -50 z"
       inkscape:label="Cafeteria 1 &amp; Commissary" /><path
       id="OSA"
       style="opacity:1;fill:#b22800;stroke:#000000"
       d="m 65,550 h 20 v 20 H 65 Z"
       inkscape:label="Office of Student Affairs and Services" /><path
       id="Clinic"
       style="opacity:1;fill:#001c99;fill-opacity:1;stroke:#000000;stroke-width:0.7;stroke-dasharray:none;stroke-opacity:1"
       d="m 65,600 v 20 h 40 v -9.94336 H 79.943359 V 600 Z"
       inkscape:label="University Clinic" /><path
       id="Security"
       style="fill:#4e71a3;stroke:#000000"
       d="m 105,610.02832 h 10 v 9.94334 h -10 z"
       inkscape:label="Security Office" /><path
       id="Guidance"
       style="fill:#00ffb4;fill-opacity:1;stroke:#000000;stroke-width:0.7;stroke-dasharray:none"
       d="m 80,600 v 10 h 25 v -5 h 10 v -5 z"
       inkscape:label="Guidance &amp; Testing Center" /><path
       id="Virginian"
       style="fill:#4e71a3;stroke:#000000"
       d="m 105,605 h 10 v 5 h -10 z"
       inkscape:label="The Virginian" /><path
       id="COOP"
       style="fill:#ff6e00;stroke:#000000"
       d="m 55,590 h 4.999999 v 4.99996 H 55 Z"
       inkscape:label="Multipurpose Cooperative Store" /><path
       style="fill:#81fff6;fill-opacity:1;stroke:#000000;stroke-width:0.7;stroke-dasharray:none"
       d="m 229.82979,535.40872 -4.8204,4.8204 h -16.35493 l -28.83632,28.83632 2.49628,2.49628 -17.21572,17.21572 10.58767,10.58766 -6.88629,6.88629 22.20827,22.20827 19.10945,-19.10944 34.17319,-34.1732 1.54941,-1.54941 -3.69685,-13.79685 5.10727,-5.10728 -2.41431,-4.1817 1.61258,-1.61258 -5.40272,-9.3578 -7.68714,-4.43817 -1.73031,1.73031 z"
       id="Chapel"
       inkscape:label="University Chapel" /><path
       id="VMMC"
       style="fill:#3eaeff;fill-opacity:1;stroke:#000000;stroke-width:0.7;stroke-dasharray:none"
       d="m 15,630 v 150 h 35 v -30 h 10 v 30 h 40 V 690 H 60 v 30 H 50 v -90 z"
       inkscape:label="Virgen Milagrosa Medical Center" /><path
       id="MAHS"
       style="fill:#39ff00;stroke:#000000"
       d="m 120,655 h 320 v 30 H 120 Z"
       inkscape:label="Medicine and Allied Health Science Bldg." /><path
       id="Tri"
       style="fill:#73c3ff;stroke:#000000"
       d="m 60,670 h 10 v 20 H 60 Z"
       inkscape:label="VMMC Triage Area" /><path
       id="Engi"
       style="fill:#af3200;stroke:#000000"
       d="m 445,655 h 145 v 30 H 445 Z"
       inkscape:label="Engineering / Nursing Annex Bldg." /><path
       id="RQPM"
       style="fill:#b600e5;stroke:#000000"
       d="m 595,655 h 135 v 30 H 595 Z"
       inkscape:label="Dr. Rosalina Q Posadas Memorial Bldg." /><path
       id="Court"
       style="display:inline;fill:#c3c3c3;stroke:#000000;stroke-width:0.704891"
       d="m 544.6524,320.35245 h 84.99511 V 629.64752 H 544.6524 Z"
       inkscape:label="Tennis / Volleyball / Basketball / Sepak Takraw Court" /><path
       id="Oval"
       style="display:inline;fill:#7c1400;fill-opacity:1;stroke:#000000;stroke-width:0.7;stroke-dasharray:none;stroke-opacity:1"
       d="m 430.25391,230.03711 a 99.746605,99.984726 0 0 0 -99.74805,99.98437 99.746605,99.984726 0 0 0 0.0234,0.33008 h -0.55274 v 189.29297 h 0.66016 a 99.746605,99.984726 0 0 0 -0.38281,5.37109 A 99.746605,99.984726 0 0 0 430,625 99.746605,99.984726 0 0 0 507.61719,587.5 H 535 v -305 H 518.00195 A 99.746605,99.984726 0 0 0 430.25391,230.03711 Z M 430,255 a 75,69.809273 0 0 1 75,69.80859 75,69.809273 0 0 1 -0.0156,0.19532 h 0.0117 V 529.625 a 75,69.809273 0 0 1 0.004,0.18359 75,69.809273 0 0 1 -1.9043,15.54102 H 357.06836 A 75,69.809273 0 0 1 355,529.80859 a 75,69.809273 0 0 1 0.0137,-0.18359 h -0.01 V 325.00391 h 0.0117 A 75,69.809273 0 0 1 355,324.80859 75,69.809273 0 0 1 430,255 Z"
       inkscape:label="International Standard Rubberized Track &amp; Field Oval" /><path
       id="MPPM"
       style="fill:#0063ff;stroke:#000000"
       d="m 680,320 h 50 v 310 h -50 z"
       inkscape:label="Dr. Martin P. Posadas Memorial Stadium" /><path
       id="Hazard"
       style="fill:#97c500;stroke:#000000"
       d="m 745,310 h 35 v 25 h -35 z"
       inkscape:label="Hazardous Waste Safety Facility" /><path
       id="VetMed"
       style="fill:#00c572;stroke:#000000"
       d="m 770,425 h 150 v 25 H 770 Z"
       inkscape:label="College of Veterinary Medicine (Lecture Rooms)" /><path
       id="VetDean"
       style="fill:#00c572;stroke:#000000;stroke-width:0.674199"
       d="m 770.01129,470.01126 h 69.65161 v 19.97747 h -69.65161 z"
       inkscape:label="College of Veterinary Medicine Office of the Dean" /><path
       id="VetLab"
       style="fill:#00c572;stroke:#000000;stroke-width:0.724045"
       d="m 850.362,470.01202 h 69.62598 v 19.97596 H 850.362 Z"
       inkscape:label="Vetenirary Medicine Laboratory Bldg." /><path
       id="EventCenter"
       style="fill:#06ebff;fill-opacity:1;stroke:#000000;stroke-width:0.7;stroke-dasharray:none;stroke-opacity:1"
       d="m 855,565 v 10 h -40 v 20.34961 h -20.00195 v 15.06836 h -19.58008 v 64.56641 h 19.58008 v 14.66601 H 815 V 710 h 40 v 10 h 40 v -10 h 40 v -20.18359 h 19.98242 V 674.7832 h 19.9707 v -64.5664 h -19.9707 V 595.18359 H 935 V 575 h -40 v -10 z"
       inkscape:label="VMUF Event Center" /><path
       id="Henyo"
       style="fill:#ffb206;stroke:#000000;stroke-width:0.92568"
       d="m 255.11284,622.6579 h 49.77432 v 21.87926 h -49.77432 z"
       inkscape:label="Henyo Corner" /><path
       id="Cafeteria2"
       style="fill:#06ffee;stroke:#000000;stroke-width:0.696153"
       inkscape:label="Cafeteria 2"
       d="m 99.248077,159.99808 h 20.753843 v 5.00384 H 99.248077 Z" /></g></svg>
