<?xml version="1.0" encoding="UTF-8" standalone="no"?>
<!-- Created with Inkscape (http://www.inkscape.org/) -->

<svg
   version="1.1"
   id="svg1"
   width="1086.4158"
   height="831.68317"
   viewBox="0 0 1086.4158 831.68314"
   sodipodi:docname="Campus Map.svg"
   xml:space="preserve"
   inkscape:version="1.4 (86a8ad7, 2024-10-11)"
   inkscape:export-filename="..\images\campus.jpg"
   inkscape:export-xdpi="96"
   inkscape:export-ydpi="96"
   xmlns:inkscape="http://www.inkscape.org/namespaces/inkscape"
   xmlns:sodipodi="http://sodipodi.sourceforge.net/DTD/sodipodi-0.dtd"
   xmlns:xlink="http://www.w3.org/1999/xlink"
   xmlns="http://www.w3.org/2000/svg"
   xmlns:svg="http://www.w3.org/2000/svg"><defs
     id="defs1"><rect
       x="364.99999"
       y="549.99998"
       width="130"
       height="39.999999"
       id="rect7" /><linearGradient
       id="swatch136"><stop
         style="stop-color:#4bbf40;stop-opacity:1;"
         offset="0"
         id="stop137" /></linearGradient><linearGradient
       id="swatch4"
       inkscape:swatch="solid"><stop
         style="stop-color:#000000;stop-opacity:1;"
         offset="0"
         id="stop4" /></linearGradient><clipPath
       clipPathUnits="userSpaceOnUse"
       id="clipPath1"><rect
         style="fill:none;stroke:#000000;stroke-width:20;stroke-opacity:1"
         id="rect2"
         width="2929.8857"
         height="1837.5428"
         x="-13.885715"
         y="629.48572" /></clipPath><radialGradient
       inkscape:collect="always"
       xlink:href="#swatch136"
       id="radialGradient139"
       cx="1092.5254"
       cy="722.04492"
       fx="1092.5254"
       fy="722.04492"
       r="502.47659"
       gradientTransform="matrix(1,0,0,0.79605697,0,147.25602)"
       gradientUnits="userSpaceOnUse" /><filter
       inkscape:collect="always"
       style="color-interpolation-filters:sRGB"
       id="filter139"
       x="-0.043105368"
       y="-0.054148597"
       width="1.0862107"
       height="1.1082972"><feGaussianBlur
         inkscape:collect="always"
         stdDeviation="18.049532"
         id="feGaussianBlur139" /></filter><inkscape:path-effect
       effect="fill_between_many"
       method="originald"
       linkedpaths="#RQPM,0,1|"
       id="path-effect26" /></defs><sodipodi:namedview
     id="namedview1"
     pagecolor="#505050"
     bordercolor="#eeeeee"
     borderopacity="1"
     inkscape:showpageshadow="0"
     inkscape:pageopacity="0"
     inkscape:pagecheckerboard="0"
     inkscape:deskcolor="#505050"
     showgrid="true"
     inkscape:zoom="5.8086469"
     inkscape:cx="625.7051"
     inkscape:cy="690.35011"
     inkscape:window-width="1920"
     inkscape:window-height="1059"
     inkscape:window-x="-8"
     inkscape:window-y="-8"
     inkscape:window-maximized="1"
     inkscape:current-layer="buildings"><inkscape:grid
       id="grid4"
       units="px"
       originx="0"
       originy="0"
       spacingx="1"
       spacingy="0.99999997"
       empcolor="#0099e5"
       empopacity="0.30196078"
       color="#0099e5"
       opacity="0.14901961"
       empspacing="5"
       enabled="true"
       visible="true" /></sodipodi:namedview><g
     inkscape:groupmode="layer"
     inkscape:label="background"
     id="bg"
     transform="translate(-600.04926,-322.0441)"
     sodipodi:insensitive="true"
     style="display:inline"><image
       width="1086.4158"
       height="831.68317"
       preserveAspectRatio="none"
       style="display:inline;image-rendering:optimizeQuality"
       xlink:href="../../../../../Downloads/Documents/ShareX/Screenshots/2025-03/zen-03.07.25-01.26.50PM.png"
       id="image1"
       x="600.04926"
       y="322.0441"
       inkscape:label="Background"
       sodipodi:insensitive="true" /><path
       id="Spraypaint"
       style="display:none;opacity:1;fill:url(#radialGradient139);fill-opacity:1;stroke:#000000;stroke-width:0;stroke-dasharray:none;filter:url(#filter139)"
       inkscape:label="Spray Paint Border"
       d="m 765.04883,324.04492 c 0,22.66667 0,45.33334 0,68 26.66666,0 53.33333,0 80,0 0,-23.33333 0,-46.66666 0,-70 -26.66667,0 -53.33334,0 -80,0 0,0.66667 0,1.33334 0,2 z m -85.75,0.25 c 0,100.91667 0,201.83334 0,302.75 -29.75,0 -59.5,0 -89.25,0 0,26.66667 0,53.33334 0,80 1.66666,0 3.33333,0 5,0 0,138.33334 0,276.66667 0,414.99998 41.66666,0 83.33333,0 125,0 0,-31.6666 0,-63.3333 0,-95 210,0 419.99997,0 629.99997,0 0,-98.66664 0,-197.33331 0,-295.99998 0,33.66276 0.01,67.32552 0.012,100.98828 63.3256,0 126.6511,0 189.9766,0 0,-34.99609 0.01,-69.99218 0.012,-104.98828 -63.3333,0 -126.6666,0 -190,0 0,-16.66666 0,-33.33333 0,-50 16.6667,0 33.3334,0 50,0 0,-21.66666 0,-43.33333 0,-65 -25,0 -50,0 -75,0 0,3.33334 0,6.66667 0,10 -21.6666,0 -43.3333,0 -65,0 0,111.66667 0,223.33334 0,335 -3.4505,0 -6.901,0 -10.3515,0 0,-111.54948 0,-223.09896 0,-334.64844 -31.5495,0 -63.099,0 -94.6485,0 0,-12.61718 0,-25.23437 0,-37.85156 -8.6087,0 -17.2174,0 -25.8261,0 -16.6874,-24.69615 -42.9418,-42.77029 -72.0304,-49.35193 -17.7031,-4.09749 -36.3526,-4.14514 -54.0397,0.0663 -20.74738,4.85956 -40.20946,15.27754 -55.55623,30.08766 -18.75673,17.91833 -31.46693,42.07388 -35.48961,67.7104 -0.70581,4.2859 -1.07536,8.61916 -1.44374,12.94194 -1.12695,4.36848 -0.42706,8.90548 -0.624,13.35304 -0.004,72.32852 -0.01,144.65703 -0.0136,216.98555 1.10859,-0.85434 2.21823,-1.70732 3.32617,-2.5625 5.65514,24.84744 19.39346,47.82878 38.80907,64.36646 9.028,7.74996 19.22281,14.13405 30.12257,18.90307 -19.11588,0 -38.23177,0 -57.34765,0 0,-10.7806 0,-21.5612 0,-32.3418 -26.59896,10e-6 -53.19792,0 -79.79688,0 7.6849,-7.68489 15.36979,-15.36979 23.05469,-23.05468 -1.23236,-4.59898 -2.46485,-9.19792 -3.69727,-13.79688 2.60092,-2.60091 5.20183,-5.20182 7.80274,-7.80273 -0.803,-1.38917 -1.60552,-2.77862 -2.40821,-4.16797 0.53696,-0.53401 1.07183,-1.0701 1.60743,-1.60547 -5.25145,-9.10213 -10.50347,-18.20393 -15.75391,-27.30664 -8.53255,-4.92335 -17.06362,-9.84927 -25.5957,-14.77344 -1.83998,1.76523 -3.59938,3.61247 -5.44727,5.36914 -3.00891,0.88121 -5.75052,2.56537 -8.02539,4.70899 -5.41797,0 -10.83594,0 -16.2539,0 -16.27868,16.27926 -32.55723,32.55865 -48.83594,48.83789 0.83203,0.83203 1.66406,1.66406 2.49609,2.49609 -5.73828,5.73828 -11.47656,11.47656 -17.21484,17.21485 3.52891,3.52902 7.05726,7.05862 10.58593,10.58789 -2.29493,2.29556 -4.58944,4.59154 -6.88476,6.88672 9.58268,9.58268 19.16536,19.16536 28.74805,28.74804 -13.35455,-10e-4 -26.72167,0.003 -40.06836,-0.002 3.91902,-3.68425 6.24465,-9.10853 5.81826,-14.51055 -0.0348,-65.16249 -0.01,-130.325 -0.0175,-195.4875 -5,0 -10,0 -15,0 0,-31.66666 0,-63.33333 0,-95 -13.33334,0 -26.66667,0 -40,0 0,-1.83333 0,-3.66666 0,-5.5 20,0 40,0 60,0 0,-108.08333 0,-216.16666 0,-324.25 -20.25,0 -40.5,0 -60.75,0 0,0.66667 0,1.33334 0,2 z m 120.75,99.75 c 0,24.33334 0,48.66667 0,73 25,0 50,0 75,0 0,-25 0,-50 0,-75 -25,0 -50,0 -75,0 0,0.66667 0,1.33334 0,2 z M 1030.332,597.06641 c 5.0443,0.0311 10.0823,0.69866 14.9629,1.97265 0.3602,0.10811 1.1041,0.29544 1.6117,0.45104 11.5071,3.31551 22.0236,10.31508 29.0753,20.04832 5.6889,7.86866 9.1276,17.51742 8.9707,27.27631 -0.1975,1.99883 -0.1534,4.00793 0.061,6.00199 0.065,3.05724 -0.022,6.11639 0.015,9.17469 0,61.80104 0.01,123.60209 -0.029,185.40312 -36.5729,0 -73.1458,0 -109.71875,0 -0.16078,-1.58384 -0.29796,-3.16474 -0.23247,-4.75937 -10e-4,-63.90313 -0.003,-127.80625 -0.004,-191.70938 0.31198,-3.12345 -0.20912,-6.28361 0.35383,-9.39015 1.40668,-12.02605 7.81899,-23.23567 17.06008,-30.98154 3.35034,-2.86044 7.225,-5.38661 11.06461,-7.29042 6.568,-3.27431 13.7584,-5.26793 21.0625,-5.9414 0.6552,-0.0602 1.6282,-0.13441 2.4085,-0.17429 1.1117,-0.0572 2.2245,-0.0807 3.3376,-0.0816 z m 404.7168,271.97851 c 0,2.66667 0,5.33334 0,8 -13.3333,0 -26.6666,0 -40,0 0,6.78321 0,13.56641 0,20.34961 -6.6673,0 -13.3346,0 -20.0019,0 0,5.02279 0,10.04557 0,15.06836 -6.5267,0 -13.0534,0 -19.5801,0 0,34.85547 0,69.71094 0,104.56641 6.5267,0 13.0534,0 19.5801,0 0,4.8887 0,9.7773 0,14.666 6.6673,0 13.3346,0 20.0019,0 0,6.7832 0,13.5664 0,20.3496 13.3334,0 26.6667,0 40,0 0,3.3334 0,6.6667 0,10 26.6667,0 53.3334,0 80,0 0,-3.3333 0,-6.6666 0,-10 13.3334,0 26.6667,0 40,0 0,-6.7278 0,-13.4557 0,-20.1836 6.6608,0 13.3216,0 19.9824,0 0,-5.011 1e-4,-10.0221 0,-15.0332 6.657,0 13.3139,0 19.9708,0 0,-34.85544 0,-69.71091 0,-104.56638 -6.6569,0 -13.3138,0 -19.9708,0 0,-5.01107 1e-4,-10.02214 0,-15.0332 -6.6608,0 -13.3216,0 -19.9824,0 0,-6.72787 0,-13.45573 0,-20.1836 -13.3333,0 -26.6666,0 -40,0 0,-3.33333 0,-6.66666 0,-10 -26.6666,0 -53.3333,0 -80,0 0,0.66667 0,1.33334 0,2 z m -310.3476,60.5 c 0,9.16667 0,18.33334 0,27.5 -15.7149,0 -31.4297,0 -47.1446,0 14.7126,-6.42708 28.1454,-15.80762 39.1563,-27.5 2.6628,0 5.3255,0 7.9883,0 z m -289.53909,27.5 c -7.45508,0 -14.91016,0 -22.36523,0 7.45507,-7.45508 14.91015,-14.91015 22.36523,-22.36523 0,7.45508 0,14.91015 0,22.36523 z m -135.11328,35 c -3.33334,0 -6.66667,0 -10,0 0,-6.66666 0,-13.33333 0,-20 -6.66667,0 -13.33334,0 -20,0 0,-3.33333 0,-6.66666 0,-10 10.00001,0.004 20.00001,-0.003 30,-0.0215 0,10.00716 0,20.01432 0,30.02148 z" /></g><g
     inkscape:groupmode="layer"
     id="layer1"
     inkscape:label="roads"><path
       id="path2"
       style="display:inline;fill:#dadada;fill-opacity:1;stroke-width:0.25;stroke-dasharray:none;stroke:#000000;stroke-opacity:1"
       d="M 105 350 L 105 440 L 115 440 L 115 645 C 115 645 65 650 65 635 C 65 620 59.999999 620 35 620 L 0 620 L 0 830 L 15 830 L 15 630 L 50 630 L 50 665 L 50 830 L 65 830 L 65 665 L 105 665 L 105 830 L 120 830 L 120 655 L 730 655 L 730 630 L 680 630 L 680 490 L 620 490 L 620 630 L 465 630 C 465 630 455 645 425 645 L 140 645 L 140 350 L 105 350 z " /></g><g
     inkscape:groupmode="layer"
     id="layer4"
     inkscape:label="Building Backdrop"><path
       id="rect19"
       style="fill:#ffffff;stroke:#000000;stroke-width:0.7"
       d="m 380,560 h 100 v 30 H 380 Z"
       inkscape:label="Oval" /><path
       id="rect21"
       style="display:inline;stroke-width:0.593138;stroke-dasharray:none;fill:#ffffff;stroke:#000000"
       transform="rotate(45)"
       d="m 541.64378,237.58787 24.74874,-0.70711 1.41421,36.76956 -26.87006,0 z"
       sodipodi:nodetypes="ccccc"
       inkscape:label="Chapel" /></g><g
     inkscape:groupmode="layer"
     id="buildings"
     inkscape:label="buildings"
     style="display:inline;stroke-width:0.7;stroke-dasharray:none"><path
       id="SpecSci"
       style="opacity:1;fill:#002bac;stroke:#000000;stroke-width:0.5;stroke-dasharray:none"
       d="M 99.25,20.249998 H 120 V 159.75 H 99.25 Z"
       inkscape:label="Special Science High School / Education Bldg." /><path
       id="DentPharm"
       style="fill:#8200ca;stroke:#000000;stroke-width:0.5;stroke-dasharray:none"
       d="M 99.25,165 H 120 V 304.5 H 99.25 Z"
       inkscape:label="Dentistry &amp; Pharmacy Bldg," /><path
       id="Maintenance"
       style="opacity:1;fill:#9e2a00;stroke:#000000;stroke-width:0.5;stroke-dasharray:none"
       d="m 185,20 h 40 v 30 h -40 z"
       inkscape:label="Maintenance &amp; Engineering Department Bldg." /><path
       id="AS"
       style="opacity:1;fill:#4e5278;stroke:#000000;stroke-width:0.5;stroke-dasharray:none"
       d="m 10,325 h 50 v 40 H 10 Z"
       inkscape:label="Arts &amp; Sciences Bldg." /><path
       id="Memorial"
       style="opacity:1;fill:#c88000;stroke:#000000;stroke-width:0.5;stroke-dasharray:none"
       d="m 220,120 h 34.99999 v 34.99999 H 220 Z"
       inkscape:label="Founder's Memorial Park" /><path
       id="SHS"
       style="opacity:1;fill:#5f5f5f;stroke:#000000;stroke-width:0.5;stroke-dasharray:none"
       d="m 15,370 h 25 v 75 H 15 Z"
       inkscape:label="Senior High School Bldg." /><path
       id="Alumni"
       style="opacity:1;fill:#b54400;fill-opacity:1;stroke:#000000;stroke-width:0.5;stroke-dasharray:none;stroke-opacity:1"
       d="m 70,350 v 35 H 55 v 55 h 30 v -25 h 15 v -65 z"
       inkscape:label="Alumni Center" /><path
       id="Centrum"
       style="opacity:1;fill:#ff9e05;fill-opacity:1;stroke:#000000;stroke-width:0.5;stroke-dasharray:none;stroke-opacity:1"
       d="m 65,445 v 40 H 50 v 15 15 1 14 h 15 v 15 h 50 V 445 Z"
       inkscape:label="Centrum Bldg." /><path
       id="BSA"
       style="opacity:1;fill:#fff613;stroke:#000000;stroke-width:0.5;stroke-dasharray:none"
       d="m 14.999999,449.99999 h 25 v 145 h -25 z"
       inkscape:label="Business Administration Bldg." /><path
       id="Cafeteria1"
       style="opacity:1;fill:#ffaf80;fill-opacity:1;stroke:#000000;stroke-width:0.5;stroke-dasharray:none;stroke-opacity:1"
       d="m 85,550 v 20 H 65 v 30 h 50 v -50 z"
       inkscape:label="Cafeteria 1 &amp; Commissary" /><path
       id="OSA"
       style="opacity:1;fill:#b22800;stroke:#000000;stroke-width:0.5;stroke-dasharray:none"
       d="m 65,550 h 20 v 20 H 65 Z"
       inkscape:label="Office of Student Affairs and Services" /><path
       id="Clinic"
       style="opacity:1;fill:#001c99;fill-opacity:1;stroke:#000000;stroke-width:0.5;stroke-dasharray:none;stroke-opacity:1"
       d="m 65,600 v 20 h 40 v -9.94336 H 79.943359 V 600 Z"
       inkscape:label="University Clinic" /><path
       id="Security"
       style="fill:#4e71a3;stroke:#000000;stroke-width:0.5;stroke-dasharray:none"
       d="m 105,610.02832 h 10 v 9.94334 h -10 z"
       inkscape:label="Security Office" /><path
       id="Guidance"
       style="fill:#00ffb4;fill-opacity:1;stroke:#000000;stroke-width:0.5;stroke-dasharray:none"
       d="m 80,600 v 10 h 25 v -5 h 10 v -5 z"
       inkscape:label="Guidance &amp; Testing Center" /><path
       id="Virginian"
       style="fill:#4e71a3;stroke:#000000;stroke-width:0.5;stroke-dasharray:none"
       d="m 105,605 h 10 v 5 h -10 z"
       inkscape:label="The Virginian" /><path
       id="COOP"
       style="fill:#ff6e00;stroke:#000000;stroke-width:0.5;stroke-dasharray:none"
       d="m 55,590 h 4.999999 v 4.99996 H 55 Z"
       inkscape:label="Multipurpose Cooperative Store" /><path
       id="Chapel"
       style="fill:#81fff6;fill-opacity:1;stroke:#000000;stroke-width:0.5;stroke-dasharray:none"
       inkscape:label="University Chapel"
       d="M 233.35938 535.13281 L 231.62891 536.86328 L 229.83008 535.4082 L 225.00977 540.22852 L 208.6543 540.22852 L 179.81836 569.06641 L 182.31445 571.5625 L 165.09961 588.77734 L 175.68555 599.36523 L 168.80078 606.25195 L 191.00781 628.45898 L 210.11719 609.34961 L 244.29102 575.17773 L 245.83984 573.62695 L 242.14258 559.83008 L 247.25 554.72266 L 244.83594 550.54102 L 246.44922 548.92969 L 241.04688 539.57227 L 233.35938 535.13281 z M 207.92969 557.92969 L 215 565 L 222.07031 557.92969 L 225.60742 561.46484 L 218.53516 568.53516 L 225.60742 575.60742 L 222.07031 579.14258 L 215 572.07031 L 200.85742 586.21289 L 197.32227 582.67773 L 211.46484 568.53516 L 204.39258 561.46484 L 207.92969 557.92969 z " /><path
       id="VMMC"
       style="fill:#3eaeff;fill-opacity:1;stroke:#000000;stroke-width:0.5;stroke-dasharray:none"
       d="m 15,630 v 150 h 35 v -30 l 14.999998,-2e-5 v 30 H 105 v -90 H 64.999998 v 30 L 50,720 v -90 z"
       inkscape:label="Virgen Milagrosa Medical Center"
       sodipodi:nodetypes="ccccccccccccc" /><path
       id="MAHS"
       style="fill:#39ff00;stroke:#000000;stroke-width:0.5;stroke-dasharray:none"
       inkscape:label="Medicine and Allied Health Science Bldg."
       d="M 120 655 L 120 685 L 440 685 L 440 655 L 120 655 z M 237.46094 662.21094 C 238.19531 662.21094 238.85547 662.25391 239.44141 662.33984 C 240.03516 662.41797 240.58203 662.52344 241.08203 662.65625 C 241.60547 662.80469 242.07812 662.97266 242.5 663.16016 C 242.92969 663.33984 243.30469 663.50781 243.625 663.66406 L 243.625 667.89453 L 243.10938 667.89453 C 242.89062 667.70703 242.61328 667.48438 242.27734 667.22656 C 241.94922 666.96875 241.57422 666.71484 241.15234 666.46484 C 240.72266 666.21484 240.25781 666.00391 239.75781 665.83203 C 239.25781 665.66016 238.72266 665.57422 238.15234 665.57422 C 237.51953 665.57422 236.91797 665.67578 236.34766 665.87891 C 235.77734 666.07422 235.25 666.40234 234.76562 666.86328 C 234.30469 667.30859 233.92969 667.89844 233.64062 668.63281 C 233.35938 669.36719 233.21875 670.25781 233.21875 671.30469 C 233.21875 672.39844 233.37109 673.3125 233.67578 674.04688 C 233.98828 674.78125 234.37891 675.35938 234.84766 675.78125 C 235.32422 676.21094 235.85547 676.51953 236.44141 676.70703 C 237.02734 676.88672 237.60547 676.97656 238.17578 676.97656 C 238.72266 676.97656 239.26172 676.89453 239.79297 676.73047 C 240.33203 676.56641 240.82812 676.34375 241.28125 676.0625 C 241.66406 675.83594 242.01953 675.59375 242.34766 675.33594 C 242.67578 675.07812 242.94531 674.85547 243.15625 674.66797 L 243.625 674.66797 L 243.625 678.83984 C 243.1875 679.03516 242.76953 679.21875 242.37109 679.39062 C 241.97266 679.5625 241.55469 679.71094 241.11719 679.83594 C 240.54688 680 240.01172 680.125 239.51172 680.21094 C 239.01172 680.29688 238.32422 680.33984 237.44922 680.33984 C 236.15234 680.33984 234.95312 680.14844 233.85156 679.76562 C 232.75781 679.38281 231.81641 678.8125 231.02734 678.05469 C 230.23828 677.29688 229.625 676.35156 229.1875 675.21875 C 228.75781 674.08594 228.54297 672.77734 228.54297 671.29297 C 228.54297 669.91016 228.75 668.65625 229.16406 667.53125 C 229.57812 666.40625 230.17969 665.44141 230.96875 664.63672 C 231.72656 663.86328 232.66406 663.26562 233.78125 662.84375 C 234.90625 662.42188 236.13281 662.21094 237.46094 662.21094 z M 314.00781 662.21094 C 314.74219 662.21094 315.40234 662.25391 315.98828 662.33984 C 316.58203 662.41797 317.12891 662.52344 317.62891 662.65625 C 318.15234 662.80469 318.625 662.97266 319.04688 663.16016 C 319.47656 663.33984 319.85156 663.50781 320.17188 663.66406 L 320.17188 667.89453 L 319.65625 667.89453 C 319.4375 667.70703 319.16016 667.48438 318.82422 667.22656 C 318.49609 666.96875 318.12109 666.71484 317.69922 666.46484 C 317.26953 666.21484 316.80469 666.00391 316.30469 665.83203 C 315.80469 665.66016 315.26953 665.57422 314.69922 665.57422 C 314.06641 665.57422 313.46484 665.67578 312.89453 665.87891 C 312.32422 666.07422 311.79688 666.40234 311.3125 666.86328 C 310.85156 667.30859 310.47656 667.89844 310.1875 668.63281 C 309.90625 669.36719 309.76562 670.25781 309.76562 671.30469 C 309.76562 672.39844 309.91797 673.3125 310.22266 674.04688 C 310.53516 674.78125 310.92578 675.35938 311.39453 675.78125 C 311.87109 676.21094 312.40234 676.51953 312.98828 676.70703 C 313.57422 676.88672 314.15234 676.97656 314.72266 676.97656 C 315.26953 676.97656 315.80859 676.89453 316.33984 676.73047 C 316.87891 676.56641 317.375 676.34375 317.82812 676.0625 C 318.21094 675.83594 318.56641 675.59375 318.89453 675.33594 C 319.22266 675.07812 319.49219 674.85547 319.70312 674.66797 L 320.17188 674.66797 L 320.17188 678.83984 C 319.73438 679.03516 319.31641 679.21875 318.91797 679.39062 C 318.51953 679.5625 318.10156 679.71094 317.66406 679.83594 C 317.09375 680 316.55859 680.125 316.05859 680.21094 C 315.55859 680.29688 314.87109 680.33984 313.99609 680.33984 C 312.69922 680.33984 311.5 680.14844 310.39844 679.76562 C 309.30469 679.38281 308.36328 678.8125 307.57422 678.05469 C 306.78516 677.29688 306.17188 676.35156 305.73438 675.21875 C 305.30469 674.08594 305.08984 672.77734 305.08984 671.29297 C 305.08984 669.91016 305.29688 668.65625 305.71094 667.53125 C 306.125 666.40625 306.72656 665.44141 307.51562 664.63672 C 308.27344 663.86328 309.21094 663.26562 310.32812 662.84375 C 311.45312 662.42188 312.67969 662.21094 314.00781 662.21094 z M 381.19141 662.21094 C 381.92578 662.21094 382.58594 662.25391 383.17188 662.33984 C 383.76562 662.41797 384.3125 662.52344 384.8125 662.65625 C 385.33594 662.80469 385.80859 662.97266 386.23047 663.16016 C 386.66016 663.33984 387.03516 663.50781 387.35547 663.66406 L 387.35547 667.89453 L 386.83984 667.89453 C 386.62109 667.70703 386.34375 667.48438 386.00781 667.22656 C 385.67969 666.96875 385.30469 666.71484 384.88281 666.46484 C 384.45312 666.21484 383.98828 666.00391 383.48828 665.83203 C 382.98828 665.66016 382.45312 665.57422 381.88281 665.57422 C 381.25 665.57422 380.64844 665.67578 380.07812 665.87891 C 379.50781 666.07422 378.98047 666.40234 378.49609 666.86328 C 378.03516 667.30859 377.66016 667.89844 377.37109 668.63281 C 377.08984 669.36719 376.94922 670.25781 376.94922 671.30469 C 376.94922 672.39844 377.10156 673.3125 377.40625 674.04688 C 377.71875 674.78125 378.10938 675.35938 378.57812 675.78125 C 379.05469 676.21094 379.58594 676.51953 380.17188 676.70703 C 380.75781 676.88672 381.33594 676.97656 381.90625 676.97656 C 382.45312 676.97656 382.99219 676.89453 383.52344 676.73047 C 384.0625 676.56641 384.55859 676.34375 385.01172 676.0625 C 385.39453 675.83594 385.75 675.59375 386.07812 675.33594 C 386.40625 675.07812 386.67578 674.85547 386.88672 674.66797 L 387.35547 674.66797 L 387.35547 678.83984 C 386.91797 679.03516 386.5 679.21875 386.10156 679.39062 C 385.70312 679.5625 385.28516 679.71094 384.84766 679.83594 C 384.27734 680 383.74219 680.125 383.24219 680.21094 C 382.74219 680.29688 382.05469 680.33984 381.17969 680.33984 C 379.88281 680.33984 378.68359 680.14844 377.58203 679.76562 C 376.48828 679.38281 375.54688 678.8125 374.75781 678.05469 C 373.96875 677.29688 373.35547 676.35156 372.91797 675.21875 C 372.48828 674.08594 372.27344 672.77734 372.27344 671.29297 C 372.27344 669.91016 372.48047 668.65625 372.89453 667.53125 C 373.30859 666.40625 373.91016 665.44141 374.69922 664.63672 C 375.45703 663.86328 376.39453 663.26562 377.51172 662.84375 C 378.63672 662.42188 379.86328 662.21094 381.19141 662.21094 z M 296.01953 662.23438 C 297.16797 662.23438 298.30078 662.34766 299.41797 662.57422 C 300.54297 662.79297 301.51562 663.07031 302.33594 663.40625 L 302.33594 667.42578 L 301.85547 667.42578 C 301.15234 666.86328 300.28906 666.39453 299.26562 666.01953 C 298.25 665.63672 297.21094 665.44531 296.14844 665.44531 C 295.77344 665.44531 295.39844 665.47266 295.02344 665.52734 C 294.65625 665.57422 294.30078 665.66797 293.95703 665.80859 C 293.65234 665.92578 293.39062 666.10547 293.17188 666.34766 C 292.95312 666.58203 292.84375 666.85156 292.84375 667.15625 C 292.84375 667.61719 293.01953 667.97266 293.37109 668.22266 C 293.72266 668.46484 294.38672 668.6875 295.36328 668.89062 C 296.00391 669.02344 296.61719 669.15234 297.20312 669.27734 C 297.79688 669.40234 298.43359 669.57422 299.11328 669.79297 C 300.44922 670.23047 301.43359 670.82812 302.06641 671.58594 C 302.70703 672.33594 303.02734 673.3125 303.02734 674.51562 C 303.02734 676.23438 302.29688 677.63281 300.83594 678.71094 C 299.38281 679.78125 297.40625 680.31641 294.90625 680.31641 C 293.46094 680.31641 292.19922 680.19141 291.12109 679.94141 C 290.05078 679.68359 289.04688 679.35938 288.10938 678.96875 L 288.10938 674.78516 L 288.60156 674.78516 C 289.53125 675.52734 290.57031 676.09766 291.71875 676.49609 C 292.875 676.89453 293.98438 677.09375 295.04688 677.09375 C 295.32031 677.09375 295.67969 677.07031 296.125 677.02344 C 296.57031 676.97656 296.93359 676.89844 297.21484 676.78906 C 297.55859 676.64844 297.83984 676.47266 298.05859 676.26172 C 298.28516 676.05078 298.39844 675.73828 298.39844 675.32422 C 298.39844 674.94141 298.23438 674.61328 297.90625 674.33984 C 297.58594 674.05859 297.11328 673.84375 296.48828 673.69531 C 295.83203 673.53906 295.13672 673.39453 294.40234 673.26172 C 293.67578 673.12109 292.99219 672.94531 292.35156 672.73438 C 290.88281 672.25781 289.82422 671.61328 289.17578 670.80078 C 288.53516 669.98047 288.21484 668.96484 288.21484 667.75391 C 288.21484 666.12891 288.94141 664.80469 290.39453 663.78125 C 291.85547 662.75 293.73047 662.23438 296.01953 662.23438 z M 157.39844 662.55078 L 162.625 662.55078 L 166.55078 671.30469 L 170.46484 662.55078 L 175.69141 662.55078 L 175.69141 680 L 171.21484 680 L 171.21484 668.31641 L 167.98047 675.89844 L 164.875 675.89844 L 161.64062 668.31641 L 161.64062 680 L 157.39844 680 L 157.39844 662.55078 z M 180.14453 662.55078 L 192.76562 662.55078 L 192.76562 665.92578 L 184.62109 665.92578 L 184.62109 668.9375 L 192.17969 668.9375 L 192.17969 672.3125 L 184.62109 672.3125 L 184.62109 676.625 L 192.76562 676.625 L 192.76562 680 L 180.14453 680 L 180.14453 662.55078 z M 196.53906 662.55078 L 202.86719 662.55078 C 204.28906 662.55078 205.51562 662.67188 206.54688 662.91406 C 207.57812 663.14844 208.44531 663.48438 209.14844 663.92188 C 210.35156 664.65625 211.29688 665.64844 211.98438 666.89844 C 212.67969 668.14062 213.02734 669.60547 213.02734 671.29297 C 213.02734 672.91797 212.65625 674.375 211.91406 675.66406 C 211.17188 676.94531 210.23438 677.92969 209.10156 678.61719 C 208.25 679.13281 207.31641 679.49219 206.30078 679.69531 C 205.28516 679.89844 204.08203 680 202.69141 680 L 196.53906 680 L 196.53906 662.55078 z M 215.67578 662.55078 L 225.89453 662.55078 L 225.89453 665.64453 L 223.03516 665.64453 L 223.03516 676.90625 L 225.89453 676.90625 L 225.89453 680 L 215.67578 680 L 215.67578 676.90625 L 218.53516 676.90625 L 218.53516 665.64453 L 215.67578 665.64453 L 215.67578 662.55078 z M 251.42969 662.55078 L 256.60938 662.55078 L 263.05469 680 L 258.40234 680 L 257.19531 676.47266 L 250.72656 676.47266 L 249.51953 680 L 244.98438 680 L 251.42969 662.55078 z M 265.5625 662.55078 L 270.0625 662.55078 L 270.0625 676.625 L 278.14844 676.625 L 278.14844 680 L 265.5625 680 L 265.5625 662.55078 z M 322.69141 662.55078 L 332.91016 662.55078 L 332.91016 665.64453 L 330.05078 665.64453 L 330.05078 676.90625 L 332.91016 676.90625 L 332.91016 680 L 322.69141 680 L 322.69141 676.90625 L 325.55078 676.90625 L 325.55078 665.64453 L 322.69141 665.64453 L 322.69141 662.55078 z M 336.57812 662.55078 L 349.19922 662.55078 L 349.19922 665.92578 L 341.05469 665.92578 L 341.05469 668.9375 L 348.61328 668.9375 L 348.61328 672.3125 L 341.05469 672.3125 L 341.05469 676.625 L 349.19922 676.625 L 349.19922 680 L 336.57812 680 L 336.57812 662.55078 z M 352.97266 662.55078 L 358.35156 662.55078 L 364.71484 672.54688 L 364.71484 662.55078 L 368.83984 662.55078 L 368.83984 680 L 364.50391 680 L 357.09766 668.02344 L 357.09766 680 L 352.97266 680 L 352.97266 662.55078 z M 390.66016 662.55078 L 403.28125 662.55078 L 403.28125 665.92578 L 395.13672 665.92578 L 395.13672 668.9375 L 402.69531 668.9375 L 402.69531 672.3125 L 395.13672 672.3125 L 395.13672 676.625 L 403.28125 676.625 L 403.28125 680 L 390.66016 680 L 390.66016 662.55078 z M 201.03906 665.80859 L 201.03906 676.73047 L 202.17578 676.73047 C 203.24609 676.73047 204.03125 676.68359 204.53125 676.58984 C 205.03125 676.48828 205.51953 676.30859 205.99609 676.05078 C 206.81641 675.58203 207.41797 674.95703 207.80078 674.17578 C 208.18359 673.38672 208.375 672.41406 208.375 671.25781 C 208.375 670.10938 208.16406 669.12891 207.74219 668.31641 C 207.32812 667.49609 206.66797 666.85547 205.76172 666.39453 C 205.30078 666.16797 204.82812 666.01562 204.34375 665.9375 C 203.86719 665.85156 203.14453 665.80859 202.17578 665.80859 L 201.03906 665.80859 z M 253.96094 667.01562 L 251.81641 673.27344 L 256.10547 673.27344 L 253.96094 667.01562 z " /><path
       id="Tri"
       style="fill:#73c3ff;stroke:#000000;stroke-width:0.5;stroke-dasharray:none"
       d="m 64.999998,664.99998 h 10 v 25 h -10 z"
       inkscape:label="VMMC Triage Area"
       sodipodi:nodetypes="ccccc" /><path
       id="Engi"
       style="fill:#af3200;stroke:#000000;stroke-width:0.5;stroke-dasharray:none"
       inkscape:label="Engineering / Nursing Annex Bldg."
       d="M 445 655 L 445 685 L 590 685 L 590 655 L 445 655 z M 494.76953 662.81836 L 498.23242 662.81836 L 498.23242 665.30664 L 494.76953 665.30664 L 494.76953 662.81836 z M 548.51758 662.81836 L 551.98242 662.81836 L 551.98242 665.30664 L 548.51758 665.30664 L 548.51758 662.81836 z M 455.94141 663.42773 L 465.75781 663.42773 L 465.75781 666.05273 L 459.42383 666.05273 L 459.42383 668.39648 L 465.30273 668.39648 L 465.30273 671.02148 L 459.42383 671.02148 L 459.42383 674.375 L 465.75781 674.375 L 465.75781 677 L 455.94141 677 L 455.94141 663.42773 z M 519.60742 666.44531 C 521.27235 666.44531 522.52279 666.86827 523.36133 667.71289 C 524.19987 668.55143 524.61914 669.75998 524.61914 671.33984 L 524.61914 672.48828 L 517.10938 672.48828 C 517.15799 673.29036 517.46246 673.90473 518.02148 674.33008 C 518.58659 674.75543 519.41602 674.9668 520.50977 674.9668 C 521.20247 674.9668 521.87326 674.84288 522.52344 674.59375 C 523.17361 674.34462 523.68772 674.07661 524.06445 673.79102 L 524.42773 673.79102 L 524.42773 676.42578 C 523.68641 676.72352 522.98828 676.93859 522.33203 677.07227 C 521.67578 677.20595 520.9503 677.27344 520.1543 677.27344 C 518.10048 677.27344 516.52539 676.81228 515.43164 675.88867 C 514.33789 674.96506 513.79102 673.64887 513.79102 671.94141 C 513.79102 670.25217 514.30881 668.91602 515.3418 667.93164 C 516.38086 666.94119 517.80273 666.44531 519.60742 666.44531 z M 532.00195 666.44531 C 533.66688 666.44531 534.91927 666.86827 535.75781 667.71289 C 536.59635 668.55143 537.01562 669.75998 537.01562 671.33984 L 537.01562 672.48828 L 529.50586 672.48828 C 529.55447 673.29036 529.85699 673.90473 530.41602 674.33008 C 530.98112 674.75543 531.81055 674.9668 532.9043 674.9668 C 533.59701 674.9668 534.26975 674.84288 534.91992 674.59375 C 535.5701 674.34462 536.08225 674.07661 536.45898 673.79102 L 536.82422 673.79102 L 536.82422 676.42578 C 536.0829 676.72352 535.38477 676.93859 534.72852 677.07227 C 534.07227 677.20595 533.34484 677.27344 532.54883 677.27344 C 530.49501 677.27344 528.92187 676.81228 527.82812 675.88867 C 526.73438 674.96506 526.1875 673.64887 526.1875 671.94141 C 526.1875 670.25217 526.70334 668.91602 527.73633 667.93164 C 528.77539 666.94119 530.19727 666.44531 532.00195 666.44531 z M 475.26367 666.48242 C 476.36957 666.48242 477.23372 666.80317 477.85352 667.44727 C 478.47938 668.09136 478.79102 669.05577 478.79102 670.33789 L 478.79102 677 L 475.49219 677 L 475.49219 671.92383 C 475.49219 671.51063 475.47027 671.10048 475.42773 670.69336 C 475.3852 670.28016 475.31228 669.97569 475.20898 669.78125 C 475.08746 669.55642 474.90885 669.39236 474.67188 669.28906 C 474.44097 669.18576 474.11654 669.13477 473.69727 669.13477 C 473.39952 669.13477 473.09505 669.18207 472.78516 669.2793 C 472.48134 669.37652 472.14952 669.53147 471.79102 669.74414 L 471.79102 677 L 468.50977 677 L 468.50977 666.76367 L 471.79102 666.76367 L 471.79102 667.89453 C 472.37435 667.4388 472.93403 667.08876 473.46875 666.8457 C 474.00955 666.60265 474.60742 666.48242 475.26367 666.48242 z M 485.71875 666.48242 C 486.2717 666.48242 486.773 666.54796 487.22266 666.68164 C 487.67839 666.80924 488.09223 666.9898 488.46289 667.2207 L 488.58008 666.76367 L 491.76172 666.76367 L 491.76172 675.82422 C 491.76172 676.78429 491.625 677.5918 491.35156 678.24805 C 491.07813 678.9043 490.69531 679.4184 490.20312 679.78906 C 489.71094 680.1658 489.1148 680.43555 488.41602 680.59961 C 487.72331 680.76975 486.93945 680.85547 486.06445 680.85547 C 485.35352 680.85547 484.65169 680.81359 483.95898 680.72852 C 483.27235 680.64345 482.67817 680.5395 482.17383 680.41797 L 482.17383 677.85742 L 482.57422 677.85742 C 482.97526 678.01541 483.46376 678.15755 484.04102 678.28516 C 484.61827 678.41884 485.13607 678.48633 485.5918 678.48633 C 486.19944 678.48633 486.69162 678.42795 487.06836 678.3125 C 487.45117 678.20313 487.74284 678.04449 487.94336 677.83789 C 488.13173 677.64345 488.26845 677.39562 488.35352 677.0918 C 488.43859 676.78798 488.48047 676.42339 488.48047 675.99805 L 488.48047 675.80664 C 488.0855 676.12869 487.648 676.3839 487.16797 676.57227 C 486.68793 676.76063 486.15386 676.85352 485.56445 676.85352 C 484.13043 676.85352 483.02387 676.42339 482.24609 675.56055 C 481.46832 674.6977 481.08008 673.3852 481.08008 671.62305 C 481.08008 670.77843 481.19857 670.04926 481.43555 669.43555 C 481.67253 668.82183 482.00608 668.28581 482.4375 667.83008 C 482.83854 667.40473 483.33073 667.07487 483.91406 666.83789 C 484.50347 666.60091 485.10503 666.48242 485.71875 666.48242 z M 507.99414 666.48242 C 509.10004 666.48242 509.96419 666.80317 510.58398 667.44727 C 511.20985 668.09136 511.52148 669.05577 511.52148 670.33789 L 511.52148 677 L 508.22266 677 L 508.22266 671.92383 C 508.22266 671.51063 508.20074 671.10048 508.1582 670.69336 C 508.11567 670.28016 508.04275 669.97569 507.93945 669.78125 C 507.81793 669.55642 507.63932 669.39236 507.40234 669.28906 C 507.17144 669.18576 506.84701 669.13477 506.42773 669.13477 C 506.12999 669.13477 505.82552 669.18207 505.51562 669.2793 C 505.21181 669.37652 504.87999 669.53147 504.52148 669.74414 L 504.52148 677 L 501.24023 677 L 501.24023 666.76367 L 504.52148 666.76367 L 504.52148 667.89453 C 505.10482 667.4388 505.6645 667.08876 506.19922 666.8457 C 506.74002 666.60265 507.33789 666.48242 507.99414 666.48242 z M 561.74414 666.48242 C 562.85004 666.48242 563.71224 666.80317 564.33203 667.44727 C 564.9579 668.09136 565.27148 669.05577 565.27148 670.33789 L 565.27148 677 L 561.9707 677 L 561.9707 671.92383 C 561.9707 671.51063 561.95074 671.10048 561.9082 670.69336 C 561.86567 670.28016 561.79275 669.97569 561.68945 669.78125 C 561.56793 669.55642 561.38737 669.39236 561.15039 669.28906 C 560.91949 669.18576 560.59505 669.13477 560.17578 669.13477 C 559.87804 669.13477 559.57357 669.18207 559.26367 669.2793 C 558.95985 669.37652 558.62999 669.53147 558.27148 669.74414 L 558.27148 677 L 554.99023 677 L 554.99023 666.76367 L 558.27148 666.76367 L 558.27148 667.89453 C 558.85482 667.4388 559.41254 667.08876 559.94727 666.8457 C 560.48806 666.60265 561.08789 666.48242 561.74414 666.48242 z M 572.19727 666.48242 C 572.75022 666.48242 573.25152 666.54796 573.70117 666.68164 C 574.1569 666.80924 574.57075 666.9898 574.94141 667.2207 L 575.06055 666.76367 L 578.24023 666.76367 L 578.24023 675.82422 C 578.24023 676.78429 578.10352 677.5918 577.83008 678.24805 C 577.55664 678.9043 577.17383 679.4184 576.68164 679.78906 C 576.18945 680.1658 575.59527 680.43555 574.89648 680.59961 C 574.20378 680.76975 573.41992 680.85547 572.54492 680.85547 C 571.83398 680.85547 571.13216 680.81359 570.43945 680.72852 C 569.75282 680.64345 569.15668 680.5395 568.65234 680.41797 L 568.65234 677.85742 L 569.05273 677.85742 C 569.45378 678.01541 569.94423 678.15755 570.52148 678.28516 C 571.09874 678.41884 571.61458 678.48633 572.07031 678.48633 C 572.67795 678.48633 573.17014 678.42795 573.54688 678.3125 C 573.92969 678.20313 574.22135 678.04449 574.42188 677.83789 C 574.61024 677.64345 574.74696 677.39562 574.83203 677.0918 C 574.9171 676.78798 574.95898 676.42339 574.95898 675.99805 L 574.95898 675.80664 C 574.56402 676.12869 574.12652 676.3839 573.64648 676.57227 C 573.16645 676.76063 572.63238 676.85352 572.04297 676.85352 C 570.60894 676.85352 569.50239 676.42339 568.72461 675.56055 C 567.94683 674.6977 567.55859 673.3852 567.55859 671.62305 C 567.55859 670.77843 567.67708 670.04926 567.91406 669.43555 C 568.15104 668.82183 568.48459 668.28581 568.91602 667.83008 C 569.31706 667.40473 569.80924 667.07487 570.39258 666.83789 C 570.98199 666.60091 571.58355 666.48242 572.19727 666.48242 z M 545.97461 666.72852 C 546.09006 666.72852 546.22135 666.73025 546.36719 666.73633 C 546.51302 666.7424 546.64063 666.75152 546.75 666.76367 L 546.75 669.89062 L 546.45898 669.89062 C 546.31923 669.84201 546.0931 669.80556 545.7832 669.78125 C 545.47331 669.75694 545.21636 669.74414 545.00977 669.74414 C 544.54188 669.74414 544.12804 669.77517 543.76953 669.83594 C 543.41102 669.8967 543.02452 670.00065 542.61133 670.14648 L 542.61133 677 L 539.33008 677 L 539.33008 666.76367 L 542.61133 666.76367 L 542.61133 668.26758 C 543.33442 667.64779 543.96332 667.23763 544.49805 667.03711 C 545.03277 666.83051 545.52496 666.72852 545.97461 666.72852 z M 494.86133 666.76367 L 498.14258 666.76367 L 498.14258 677 L 494.86133 677 L 494.86133 666.76367 z M 548.60938 666.76367 L 551.89062 666.76367 L 551.89062 677 L 548.60938 677 L 548.60938 666.76367 z M 519.3418 668.49609 C 518.70985 668.49609 518.19032 668.66016 517.7832 668.98828 C 517.37609 669.31641 517.14822 669.84136 517.09961 670.56445 L 521.35742 670.56445 C 521.33919 669.87782 521.16775 669.36198 520.8457 669.01562 C 520.52365 668.66927 520.02235 668.49609 519.3418 668.49609 z M 531.73828 668.49609 C 531.10634 668.49609 530.58681 668.66016 530.17969 668.98828 C 529.77257 669.31641 529.5447 669.84136 529.49609 670.56445 L 533.75195 670.56445 C 533.73372 669.87782 533.56424 669.36198 533.24219 669.01562 C 532.92014 668.66927 532.41884 668.49609 531.73828 668.49609 z M 487.04883 668.87891 C 486.18598 668.87891 485.53885 669.12869 485.10742 669.62695 C 484.676 670.11914 484.46094 670.80816 484.46094 671.69531 C 484.46094 672.67969 484.64323 673.36697 485.00781 673.75586 C 485.37847 674.14475 485.92535 674.33789 486.64844 674.33789 C 486.97656 674.33789 487.29926 674.28689 487.61523 674.18359 C 487.93121 674.0803 488.21918 673.94358 488.48047 673.77344 L 488.48047 669.13477 C 488.2921 669.05577 488.06055 668.99371 487.78711 668.95117 C 487.51367 668.90256 487.26758 668.87891 487.04883 668.87891 z M 573.5293 668.87891 C 572.66645 668.87891 572.01931 669.12869 571.58789 669.62695 C 571.15647 670.11914 570.93945 670.80816 570.93945 671.69531 C 570.93945 672.67969 571.12174 673.36697 571.48633 673.75586 C 571.85699 674.14475 572.40386 674.33789 573.12695 674.33789 C 573.45508 674.33789 573.77778 674.28689 574.09375 674.18359 C 574.40972 674.0803 574.6977 673.94358 574.95898 673.77344 L 574.95898 669.13477 C 574.77062 669.05577 574.54102 668.99371 574.26758 668.95117 C 573.99414 668.90256 573.74805 668.87891 573.5293 668.87891 z " /><path
       id="RQPM"
       style="fill:#b600e5;stroke:#000000;stroke-width:0.5;stroke-dasharray:none;fill-opacity:1"
       inkscape:label="Dr. Rosalina Q Posadas Memorial Bldg."
       d="M 595 655 L 595 685 L 730 685 L 730 655 L 595 655 z " /><path
       id="path228"
       style="display:inline;stroke-width:0.5;stroke-dasharray:none;fill:#b600e5;stroke:#000000;fill-opacity:1"
       inkscape:label="Dr. Rosalina Q Posadas Memorial Bldg."
       d="M 595 655 L 595 685 L 730 685 L 730 655 L 595 655 z M 629.76562 662.28516 C 630.69792 662.28516 631.43099 662.55729 631.96484 663.10156 C 632.4987 663.64323 632.76562 664.38151 632.76562 665.31641 C 632.76562 666.24349 632.5 666.98047 631.96875 667.52734 C 631.4375 668.07161 630.70312 668.34375 629.76562 668.34375 C 628.83073 668.34375 628.09766 668.07161 627.56641 667.52734 C 627.03516 666.98047 626.76953 666.24349 626.76953 665.31641 C 626.76953 664.38151 627.03516 663.64323 627.56641 663.10156 C 628.09766 662.55729 628.83073 662.28516 629.76562 662.28516 z M 673.64453 662.28516 C 674.57682 662.28516 675.3099 662.55729 675.84375 663.10156 C 676.3776 663.64323 676.64453 664.38151 676.64453 665.31641 C 676.64453 666.00651 676.48828 666.60286 676.17578 667.10547 C 675.86328 667.60547 675.41016 667.95443 674.81641 668.15234 C 674.82682 668.41016 674.89714 668.59505 675.02734 668.70703 C 675.15755 668.81901 675.38021 668.875 675.69531 668.875 C 675.80208 668.875 675.92839 668.85677 676.07422 668.82031 C 676.22005 668.78385 676.32161 668.7513 676.37891 668.72266 L 676.52734 668.72266 L 676.52734 669.75391 C 676.38151 669.78776 676.22266 669.81771 676.05078 669.84375 C 675.88151 669.86979 675.62109 669.88281 675.26953 669.88281 C 674.95964 669.88281 674.6888 669.84375 674.45703 669.76562 C 674.22786 669.6901 674.03646 669.58203 673.88281 669.44141 C 673.73177 669.30339 673.61849 669.14062 673.54297 668.95312 C 673.46745 668.76562 673.42318 668.55729 673.41016 668.32812 C 672.54036 668.27865 671.86198 667.98828 671.375 667.45703 C 670.89062 666.92318 670.64844 666.20964 670.64844 665.31641 C 670.64844 664.38151 670.91406 663.64323 671.44531 663.10156 C 671.97656 662.55729 672.70964 662.28516 673.64453 662.28516 z M 689.04297 662.28516 C 689.97526 662.28516 690.70833 662.55729 691.24219 663.10156 C 691.77604 663.64323 692.04297 664.38151 692.04297 665.31641 C 692.04297 666.24349 691.77734 666.98047 691.24609 667.52734 C 690.71484 668.07161 689.98047 668.34375 689.04297 668.34375 C 688.10807 668.34375 687.375 668.07161 686.84375 667.52734 C 686.3125 666.98047 686.04688 666.24349 686.04688 665.31641 C 686.04688 664.38151 686.3125 663.64323 686.84375 663.10156 C 687.375 662.55729 688.10807 662.28516 689.04297 662.28516 z M 636.23047 662.30078 C 636.61328 662.30078 636.99089 662.33854 637.36328 662.41406 C 637.73828 662.48698 638.0625 662.57943 638.33594 662.69141 L 638.33594 664.03125 L 638.17578 664.03125 C 637.94141 663.84375 637.65365 663.6875 637.3125 663.5625 C 636.97396 663.4349 636.6276 663.37109 636.27344 663.37109 C 636.14844 663.37109 636.02344 663.38021 635.89844 663.39844 C 635.77604 663.41406 635.65755 663.44531 635.54297 663.49219 C 635.44141 663.53125 635.35417 663.59115 635.28125 663.67188 C 635.20833 663.75 635.17188 663.83984 635.17188 663.94141 C 635.17188 664.09505 635.23047 664.21354 635.34766 664.29688 C 635.46484 664.3776 635.6862 664.45182 636.01172 664.51953 C 636.22526 664.5638 636.42969 664.60677 636.625 664.64844 C 636.82292 664.6901 637.03516 664.7474 637.26172 664.82031 C 637.70703 664.96615 638.03516 665.16536 638.24609 665.41797 C 638.45964 665.66797 638.56641 665.99349 638.56641 666.39453 C 638.56641 666.96745 638.32292 667.43359 637.83594 667.79297 C 637.35156 668.14974 636.69271 668.32812 635.85938 668.32812 C 635.3776 668.32812 634.95703 668.28646 634.59766 668.20312 C 634.24089 668.11719 633.90625 668.00911 633.59375 667.87891 L 633.59375 666.48438 L 633.75781 666.48438 C 634.06771 666.73177 634.41406 666.92188 634.79688 667.05469 C 635.18229 667.1875 635.55208 667.25391 635.90625 667.25391 C 635.9974 667.25391 636.11719 667.24609 636.26562 667.23047 C 636.41406 667.21484 636.53516 667.1888 636.62891 667.15234 C 636.74349 667.10547 636.83724 667.04688 636.91016 666.97656 C 636.98568 666.90625 637.02344 666.80208 637.02344 666.66406 C 637.02344 666.53646 636.96875 666.42708 636.85938 666.33594 C 636.7526 666.24219 636.59505 666.17057 636.38672 666.12109 C 636.16797 666.06901 635.9362 666.02083 635.69141 665.97656 C 635.44922 665.92969 635.22135 665.87109 635.00781 665.80078 C 634.51823 665.64193 634.16536 665.42708 633.94922 665.15625 C 633.73568 664.88281 633.62891 664.54427 633.62891 664.14062 C 633.62891 663.59896 633.87109 663.15755 634.35547 662.81641 C 634.84245 662.47266 635.46745 662.30078 636.23047 662.30078 z M 695.50781 662.30078 C 695.89062 662.30078 696.26823 662.33854 696.64062 662.41406 C 697.01562 662.48698 697.33984 662.57943 697.61328 662.69141 L 697.61328 664.03125 L 697.45312 664.03125 C 697.21875 663.84375 696.93099 663.6875 696.58984 663.5625 C 696.2513 663.4349 695.90495 663.37109 695.55078 663.37109 C 695.42578 663.37109 695.30078 663.38021 695.17578 663.39844 C 695.05339 663.41406 694.9349 663.44531 694.82031 663.49219 C 694.71875 663.53125 694.63151 663.59115 694.55859 663.67188 C 694.48568 663.75 694.44922 663.83984 694.44922 663.94141 C 694.44922 664.09505 694.50781 664.21354 694.625 664.29688 C 694.74219 664.3776 694.96354 664.45182 695.28906 664.51953 C 695.5026 664.5638 695.70703 664.60677 695.90234 664.64844 C 696.10026 664.6901 696.3125 664.7474 696.53906 664.82031 C 696.98438 664.96615 697.3125 665.16536 697.52344 665.41797 C 697.73698 665.66797 697.84375 665.99349 697.84375 666.39453 C 697.84375 666.96745 697.60026 667.43359 697.11328 667.79297 C 696.62891 668.14974 695.97005 668.32812 695.13672 668.32812 C 694.65495 668.32812 694.23438 668.28646 693.875 668.20312 C 693.51823 668.11719 693.18359 668.00911 692.87109 667.87891 L 692.87109 666.48438 L 693.03516 666.48438 C 693.34505 666.73177 693.69141 666.92188 694.07422 667.05469 C 694.45964 667.1875 694.82943 667.25391 695.18359 667.25391 C 695.27474 667.25391 695.39453 667.24609 695.54297 667.23047 C 695.69141 667.21484 695.8125 667.1888 695.90625 667.15234 C 696.02083 667.10547 696.11458 667.04688 696.1875 666.97656 C 696.26302 666.90625 696.30078 666.80208 696.30078 666.66406 C 696.30078 666.53646 696.24609 666.42708 696.13672 666.33594 C 696.02995 666.24219 695.8724 666.17057 695.66406 666.12109 C 695.44531 666.06901 695.21354 666.02083 694.96875 665.97656 C 694.72656 665.92969 694.4987 665.87109 694.28516 665.80078 C 693.79557 665.64193 693.44271 665.42708 693.22656 665.15625 C 693.01302 664.88281 692.90625 664.54427 692.90625 664.14062 C 692.90625 663.59896 693.14844 663.15755 693.63281 662.81641 C 694.11979 662.47266 694.74479 662.30078 695.50781 662.30078 z M 720.25391 662.30078 C 720.63672 662.30078 721.01432 662.33854 721.38672 662.41406 C 721.76172 662.48698 722.08594 662.57943 722.35938 662.69141 L 722.35938 664.03125 L 722.19922 664.03125 C 721.96484 663.84375 721.67708 663.6875 721.33594 663.5625 C 720.9974 663.4349 720.65104 663.37109 720.29688 663.37109 C 720.17188 663.37109 720.04688 663.38021 719.92188 663.39844 C 719.79948 663.41406 719.68099 663.44531 719.56641 663.49219 C 719.46484 663.53125 719.3776 663.59115 719.30469 663.67188 C 719.23177 663.75 719.19531 663.83984 719.19531 663.94141 C 719.19531 664.09505 719.25391 664.21354 719.37109 664.29688 C 719.48828 664.3776 719.70964 664.45182 720.03516 664.51953 C 720.2487 664.5638 720.45313 664.60677 720.64844 664.64844 C 720.84635 664.6901 721.05859 664.7474 721.28516 664.82031 C 721.73047 664.96615 722.05859 665.16536 722.26953 665.41797 C 722.48307 665.66797 722.58984 665.99349 722.58984 666.39453 C 722.58984 666.96745 722.34635 667.43359 721.85938 667.79297 C 721.375 668.14974 720.71615 668.32812 719.88281 668.32812 C 719.40104 668.32812 718.98047 668.28646 718.62109 668.20312 C 718.26432 668.11719 717.92969 668.00911 717.61719 667.87891 L 717.61719 666.48438 L 717.78125 666.48438 C 718.09115 666.73177 718.4375 666.92188 718.82031 667.05469 C 719.20573 667.1875 719.57552 667.25391 719.92969 667.25391 C 720.02083 667.25391 720.14062 667.24609 720.28906 667.23047 C 720.4375 667.21484 720.55859 667.1888 720.65234 667.15234 C 720.76693 667.10547 720.86068 667.04688 720.93359 666.97656 C 721.00911 666.90625 721.04687 666.80208 721.04688 666.66406 C 721.04688 666.53646 720.99219 666.42708 720.88281 666.33594 C 720.77604 666.24219 720.61849 666.17057 720.41016 666.12109 C 720.19141 666.06901 719.95964 666.02083 719.71484 665.97656 C 719.47266 665.92969 719.24479 665.87109 719.03125 665.80078 C 718.54167 665.64193 718.1888 665.42708 717.97266 665.15625 C 717.75911 664.88281 717.65234 664.54427 717.65234 664.14062 C 717.65234 663.59896 717.89453 663.15755 718.37891 662.81641 C 718.86589 662.47266 719.49089 662.30078 720.25391 662.30078 z M 602.32812 662.40625 L 604.4375 662.40625 C 604.91146 662.40625 605.32031 662.44661 605.66406 662.52734 C 606.00781 662.60547 606.29688 662.71745 606.53125 662.86328 C 606.93229 663.10807 607.2474 663.4388 607.47656 663.85547 C 607.70833 664.26953 607.82422 664.75781 607.82422 665.32031 C 607.82422 665.86198 607.70052 666.34766 607.45312 666.77734 C 607.20573 667.20443 606.89323 667.53255 606.51562 667.76172 C 606.23177 667.93359 605.92057 668.05339 605.58203 668.12109 C 605.24349 668.1888 604.84245 668.22266 604.37891 668.22266 L 602.32812 668.22266 L 602.32812 662.40625 z M 608.96875 662.40625 L 611.48438 662.40625 C 611.82812 662.40625 612.1237 662.42578 612.37109 662.46484 C 612.61849 662.50391 612.85026 662.58854 613.06641 662.71875 C 613.28516 662.84896 613.45833 663.01823 613.58594 663.22656 C 613.71615 663.43229 613.78125 663.69141 613.78125 664.00391 C 613.78125 664.43359 613.68099 664.78385 613.48047 665.05469 C 613.28255 665.32552 612.9987 665.55078 612.62891 665.73047 L 614.57031 668.22266 L 612.73828 668.22266 L 611.15234 666.08984 L 610.46094 666.08984 L 610.46094 668.22266 L 608.96875 668.22266 L 608.96875 662.40625 z M 620.85156 662.40625 L 623.36719 662.40625 C 623.71094 662.40625 624.00651 662.42578 624.25391 662.46484 C 624.5013 662.50391 624.73307 662.58854 624.94922 662.71875 C 625.16797 662.84896 625.34115 663.01823 625.46875 663.22656 C 625.59896 663.43229 625.66406 663.69141 625.66406 664.00391 C 625.66406 664.43359 625.5638 664.78385 625.36328 665.05469 C 625.16536 665.32552 624.88151 665.55078 624.51172 665.73047 L 626.45312 668.22266 L 624.62109 668.22266 L 623.03516 666.08984 L 622.34375 666.08984 L 622.34375 668.22266 L 620.85156 668.22266 L 620.85156 662.40625 z M 641.09375 662.40625 L 642.82031 662.40625 L 644.96875 668.22266 L 643.41797 668.22266 L 643.01562 667.04688 L 640.85938 667.04688 L 640.45703 668.22266 L 638.94531 668.22266 L 641.09375 662.40625 z M 645.80469 662.40625 L 647.30469 662.40625 L 647.30469 667.09766 L 650 667.09766 L 650 668.22266 L 645.80469 668.22266 L 645.80469 662.40625 z M 650.64062 662.40625 L 654.04688 662.40625 L 654.04688 663.4375 L 653.09375 663.4375 L 653.09375 667.19141 L 654.04688 667.19141 L 654.04688 668.22266 L 650.64062 668.22266 L 650.64062 667.19141 L 651.59375 667.19141 L 651.59375 663.4375 L 650.64062 663.4375 L 650.64062 662.40625 z M 655.26953 662.40625 L 657.0625 662.40625 L 659.18359 665.73828 L 659.18359 662.40625 L 660.55859 662.40625 L 660.55859 668.22266 L 659.11328 668.22266 L 656.64453 664.23047 L 656.64453 668.22266 L 655.26953 668.22266 L 655.26953 662.40625 z M 663.54297 662.40625 L 665.26953 662.40625 L 667.41797 668.22266 L 665.86719 668.22266 L 665.46484 667.04688 L 663.30859 667.04688 L 662.90625 668.22266 L 661.39453 668.22266 L 663.54297 662.40625 z M 680.52344 662.40625 L 682.99219 662.40625 C 683.36198 662.40625 683.67318 662.4388 683.92578 662.50391 C 684.18099 662.56641 684.40625 662.66146 684.60156 662.78906 C 684.83594 662.94271 685.01432 663.13932 685.13672 663.37891 C 685.26172 663.61849 685.32422 663.90625 685.32422 664.24219 C 685.32422 664.5026 685.27865 664.75781 685.1875 665.00781 C 685.09635 665.25521 684.96615 665.46354 684.79688 665.63281 C 684.5651 665.86198 684.30599 666.03516 684.01953 666.15234 C 683.73568 666.26953 683.38151 666.32812 682.95703 666.32812 L 682.02344 666.32812 L 682.02344 668.22266 L 680.52344 668.22266 L 680.52344 662.40625 z M 700.37109 662.40625 L 702.09766 662.40625 L 704.24609 668.22266 L 702.69531 668.22266 L 702.29297 667.04688 L 700.13672 667.04688 L 699.73438 668.22266 L 698.22266 668.22266 L 700.37109 662.40625 z M 705.08203 662.40625 L 707.19141 662.40625 C 707.66536 662.40625 708.07422 662.44661 708.41797 662.52734 C 708.76172 662.60547 709.05078 662.71745 709.28516 662.86328 C 709.6862 663.10807 710.0013 663.4388 710.23047 663.85547 C 710.46224 664.26953 710.57812 664.75781 710.57812 665.32031 C 710.57812 665.86198 710.45443 666.34766 710.20703 666.77734 C 709.95964 667.20443 709.64714 667.53255 709.26953 667.76172 C 708.98568 667.93359 708.67448 668.05339 708.33594 668.12109 C 707.9974 668.1888 707.59635 668.22266 707.13281 668.22266 L 705.08203 668.22266 L 705.08203 662.40625 z M 713.22266 662.40625 L 714.94922 662.40625 L 717.09766 668.22266 L 715.54688 668.22266 L 715.14453 667.04688 L 712.98828 667.04688 L 712.58594 668.22266 L 711.07422 668.22266 L 713.22266 662.40625 z M 629.76953 663.38281 C 629.57943 663.38281 629.39974 663.41667 629.23047 663.48438 C 629.0638 663.55208 628.91016 663.66406 628.76953 663.82031 C 628.63932 663.96615 628.53255 664.16797 628.44922 664.42578 C 628.36849 664.68099 628.32812 664.97786 628.32812 665.31641 C 628.32812 665.66276 628.36719 665.95833 628.44531 666.20312 C 628.52604 666.44531 628.63151 666.64323 628.76172 666.79688 C 628.89193 666.95052 629.04427 667.0638 629.21875 667.13672 C 629.39323 667.20964 629.57682 667.24609 629.76953 667.24609 C 629.96224 667.24609 630.14583 667.20964 630.32031 667.13672 C 630.49479 667.0612 630.64714 666.94531 630.77734 666.78906 C 630.92318 666.61198 631.03125 666.40365 631.10156 666.16406 C 631.17188 665.92188 631.20703 665.63802 631.20703 665.3125 C 631.20703 664.96354 631.16667 664.66667 631.08594 664.42188 C 631.00521 664.17708 630.89974 663.97917 630.76953 663.82812 C 630.63672 663.67188 630.48307 663.55859 630.30859 663.48828 C 630.13672 663.41797 629.95703 663.38281 629.76953 663.38281 z M 673.64844 663.38281 C 673.45833 663.38281 673.27865 663.41667 673.10938 663.48438 C 672.94271 663.55208 672.78906 663.66406 672.64844 663.82031 C 672.51823 663.96615 672.41146 664.16797 672.32812 664.42578 C 672.2474 664.68099 672.20703 664.97786 672.20703 665.31641 C 672.20703 665.66276 672.24609 665.95833 672.32422 666.20312 C 672.40495 666.44531 672.51042 666.64323 672.64062 666.79688 C 672.77083 666.95052 672.92318 667.0638 673.09766 667.13672 C 673.27214 667.20964 673.45573 667.24609 673.64844 667.24609 C 673.84115 667.24609 674.02474 667.20964 674.19922 667.13672 C 674.3737 667.0612 674.52604 666.94531 674.65625 666.78906 C 674.80208 666.61198 674.91016 666.40365 674.98047 666.16406 C 675.05078 665.92188 675.08594 665.63802 675.08594 665.3125 C 675.08594 664.96354 675.04557 664.66667 674.96484 664.42188 C 674.88411 664.17708 674.77865 663.97917 674.64844 663.82812 C 674.51562 663.67188 674.36198 663.55859 674.1875 663.48828 C 674.01562 663.41797 673.83594 663.38281 673.64844 663.38281 z M 689.04688 663.38281 C 688.85677 663.38281 688.67708 663.41667 688.50781 663.48438 C 688.34115 663.55208 688.1875 663.66406 688.04688 663.82031 C 687.91667 663.96615 687.8099 664.16797 687.72656 664.42578 C 687.64583 664.68099 687.60547 664.97786 687.60547 665.31641 C 687.60547 665.66276 687.64453 665.95833 687.72266 666.20312 C 687.80339 666.44531 687.90885 666.64323 688.03906 666.79688 C 688.16927 666.95052 688.32161 667.0638 688.49609 667.13672 C 688.67057 667.20964 688.85417 667.24609 689.04688 667.24609 C 689.23958 667.24609 689.42318 667.20964 689.59766 667.13672 C 689.77214 667.0612 689.92448 666.94531 690.05469 666.78906 C 690.20052 666.61198 690.30859 666.40365 690.37891 666.16406 C 690.44922 665.92188 690.48438 665.63802 690.48438 665.3125 C 690.48438 664.96354 690.44401 664.66667 690.36328 664.42188 C 690.28255 664.17708 690.17708 663.97917 690.04688 663.82812 C 689.91406 663.67188 689.76042 663.55859 689.58594 663.48828 C 689.41406 663.41797 689.23438 663.38281 689.04688 663.38281 z M 610.46094 663.47656 L 610.46094 665.04297 L 610.92188 665.04297 C 611.16146 665.04297 611.36198 665.03125 611.52344 665.00781 C 611.6849 664.98438 611.82031 664.93099 611.92969 664.84766 C 612.03385 664.76693 612.10938 664.67839 612.15625 664.58203 C 612.20573 664.48307 612.23047 664.35156 612.23047 664.1875 C 612.23047 664.04167 612.20052 663.91667 612.14062 663.8125 C 612.08073 663.70833 611.97786 663.6263 611.83203 663.56641 C 611.73047 663.52474 611.61198 663.5 611.47656 663.49219 C 611.34115 663.48177 611.18359 663.47656 611.00391 663.47656 L 610.46094 663.47656 z M 622.34375 663.47656 L 622.34375 665.04297 L 622.80469 665.04297 C 623.04427 665.04297 623.24479 665.03125 623.40625 665.00781 C 623.56771 664.98438 623.70312 664.93099 623.8125 664.84766 C 623.91667 664.76693 623.99219 664.67839 624.03906 664.58203 C 624.08854 664.48307 624.11328 664.35156 624.11328 664.1875 C 624.11328 664.04167 624.08333 663.91667 624.02344 663.8125 C 623.96354 663.70833 623.86068 663.6263 623.71484 663.56641 C 623.61328 663.52474 623.49479 663.5 623.35938 663.49219 C 623.22396 663.48177 623.06641 663.47656 622.88672 663.47656 L 622.34375 663.47656 z M 603.82812 663.49219 L 603.82812 667.13281 L 604.20703 667.13281 C 604.5638 667.13281 604.82552 667.11719 604.99219 667.08594 C 605.15885 667.05208 605.32161 666.99219 605.48047 666.90625 C 605.75391 666.75 605.95443 666.54167 606.08203 666.28125 C 606.20964 666.01823 606.27344 665.69401 606.27344 665.30859 C 606.27344 664.92578 606.20312 664.59896 606.0625 664.32812 C 605.92448 664.05469 605.70443 663.84115 605.40234 663.6875 C 605.2487 663.61198 605.09115 663.5612 604.92969 663.53516 C 604.77083 663.50651 604.52995 663.49219 604.20703 663.49219 L 603.82812 663.49219 z M 682.02344 663.49219 L 682.02344 665.23438 L 682.45312 665.23438 C 682.70833 665.23438 682.91797 665.21875 683.08203 665.1875 C 683.2487 665.15625 683.38802 665.09375 683.5 665 C 683.59635 664.91667 683.66536 664.81771 683.70703 664.70312 C 683.7513 664.58594 683.77344 664.44401 683.77344 664.27734 C 683.77344 664.11328 683.72917 663.97266 683.64062 663.85547 C 683.55208 663.73568 683.44922 663.65234 683.33203 663.60547 C 683.17578 663.54297 683.02344 663.50911 682.875 663.50391 C 682.72656 663.49609 682.52865 663.49219 682.28125 663.49219 L 682.02344 663.49219 z M 706.58203 663.49219 L 706.58203 667.13281 L 706.96094 667.13281 C 707.31771 667.13281 707.57943 667.11719 707.74609 667.08594 C 707.91276 667.05208 708.07552 666.99219 708.23438 666.90625 C 708.50781 666.75 708.70833 666.54167 708.83594 666.28125 C 708.96354 666.01823 709.02734 665.69401 709.02734 665.30859 C 709.02734 664.92578 708.95703 664.59896 708.81641 664.32812 C 708.67839 664.05469 708.45833 663.84115 708.15625 663.6875 C 708.0026 663.61198 707.84505 663.5612 707.68359 663.53516 C 707.52474 663.50651 707.28385 663.49219 706.96094 663.49219 L 706.58203 663.49219 z M 641.9375 663.89453 L 641.22266 665.98047 L 642.65234 665.98047 L 641.9375 663.89453 z M 664.38672 663.89453 L 663.67188 665.98047 L 665.10156 665.98047 L 664.38672 663.89453 z M 701.21484 663.89453 L 700.5 665.98047 L 701.92969 665.98047 L 701.21484 663.89453 z M 714.06641 663.89453 L 713.35156 665.98047 L 714.78125 665.98047 L 714.06641 663.89453 z M 615.19922 666.6875 L 616.66016 666.6875 L 616.66016 668.22266 L 615.19922 668.22266 L 615.19922 666.6875 z M 683.58398 672.14453 L 684.99023 672.14453 L 684.99023 678.22266 L 683.58398 678.22266 L 683.58398 672.14453 z M 689.17773 672.14453 L 690.58398 672.14453 L 690.58398 678.22266 L 689.17773 678.22266 L 689.17773 677.76562 C 688.93555 677.96354 688.70898 678.10938 688.49805 678.20312 C 688.28711 678.29688 688.04362 678.34375 687.76758 678.34375 C 687.23372 678.34375 686.80664 678.13802 686.48633 677.72656 C 686.16602 677.3151 686.00586 676.76042 686.00586 676.0625 C 686.00586 675.6901 686.05924 675.36068 686.16602 675.07422 C 686.27539 674.78516 686.42383 674.53776 686.61133 674.33203 C 686.78841 674.13672 687.00326 673.98568 687.25586 673.87891 C 687.50846 673.76953 687.76107 673.71484 688.01367 673.71484 C 688.27669 673.71484 688.49154 673.74349 688.6582 673.80078 C 688.82747 673.85547 689.00065 673.92578 689.17773 674.01172 L 689.17773 672.14453 z M 648.75586 672.28516 C 649.68815 672.28516 650.42122 672.55729 650.95508 673.10156 C 651.48893 673.64323 651.75586 674.38151 651.75586 675.31641 C 651.75586 676.24349 651.49023 676.98047 650.95898 677.52734 C 650.42773 678.07161 649.69336 678.34375 648.75586 678.34375 C 647.82096 678.34375 647.08789 678.07161 646.55664 677.52734 C 646.02539 676.98047 645.75977 676.24349 645.75977 675.31641 C 645.75977 674.38151 646.02539 673.64323 646.55664 673.10156 C 647.08789 672.55729 647.82096 672.28516 648.75586 672.28516 z M 625.4707 672.40625 L 627.21289 672.40625 L 628.52148 675.32422 L 629.82617 672.40625 L 631.56836 672.40625 L 631.56836 678.22266 L 630.07617 678.22266 L 630.07617 674.32812 L 628.99805 676.85547 L 627.96289 676.85547 L 626.88477 674.32812 L 626.88477 678.22266 L 625.4707 678.22266 L 625.4707 672.40625 z M 633.05273 672.40625 L 637.25977 672.40625 L 637.25977 673.53125 L 634.54492 673.53125 L 634.54492 674.53516 L 637.06445 674.53516 L 637.06445 675.66016 L 634.54492 675.66016 L 634.54492 677.09766 L 637.25977 677.09766 L 637.25977 678.22266 L 633.05273 678.22266 L 633.05273 672.40625 z M 638.51758 672.40625 L 640.25977 672.40625 L 641.56836 675.32422 L 642.87305 672.40625 L 644.61523 672.40625 L 644.61523 678.22266 L 643.12305 678.22266 L 643.12305 674.32812 L 642.04492 676.85547 L 641.00977 676.85547 L 639.93164 674.32812 L 639.93164 678.22266 L 638.51758 678.22266 L 638.51758 672.40625 z M 652.90039 672.40625 L 655.41602 672.40625 C 655.75977 672.40625 656.05534 672.42578 656.30273 672.46484 C 656.55013 672.50391 656.7819 672.58854 656.99805 672.71875 C 657.2168 672.84896 657.38997 673.01823 657.51758 673.22656 C 657.64779 673.43229 657.71289 673.69141 657.71289 674.00391 C 657.71289 674.43359 657.61263 674.78385 657.41211 675.05469 C 657.21419 675.32552 656.93034 675.55078 656.56055 675.73047 L 658.50195 678.22266 L 656.66992 678.22266 L 655.08398 676.08984 L 654.39258 676.08984 L 654.39258 678.22266 L 652.90039 678.22266 L 652.90039 672.40625 z M 658.89648 672.40625 L 662.30273 672.40625 L 662.30273 673.4375 L 661.34961 673.4375 L 661.34961 677.19141 L 662.30273 677.19141 L 662.30273 678.22266 L 658.89648 678.22266 L 658.89648 677.19141 L 659.84961 677.19141 L 659.84961 673.4375 L 658.89648 673.4375 L 658.89648 672.40625 z M 665.02539 672.40625 L 666.75195 672.40625 L 668.90039 678.22266 L 667.34961 678.22266 L 666.94727 677.04688 L 664.79102 677.04688 L 664.38867 678.22266 L 662.87695 678.22266 L 665.02539 672.40625 z M 669.73633 672.40625 L 671.23633 672.40625 L 671.23633 677.09766 L 673.93164 677.09766 L 673.93164 678.22266 L 669.73633 678.22266 L 669.73633 672.40625 z M 677.56836 672.40625 L 679.82617 672.40625 C 680.29492 672.40625 680.63737 672.42188 680.85352 672.45312 C 681.07227 672.48438 681.28841 672.55339 681.50195 672.66016 C 681.72331 672.77214 681.88737 672.92318 681.99414 673.11328 C 682.10352 673.30078 682.1582 673.51562 682.1582 673.75781 C 682.1582 674.03906 682.08398 674.28776 681.93555 674.50391 C 681.78711 674.71745 681.57747 674.88411 681.30664 675.00391 L 681.30664 675.03516 C 681.68685 675.11068 681.98763 675.26693 682.20898 675.50391 C 682.43294 675.74089 682.54492 676.05339 682.54492 676.44141 C 682.54492 676.72266 682.48763 676.97396 682.37305 677.19531 C 682.26107 677.41667 682.10612 677.60026 681.9082 677.74609 C 681.67904 677.91797 681.42643 678.04036 681.15039 678.11328 C 680.87695 678.1862 680.5293 678.22266 680.10742 678.22266 L 677.56836 678.22266 L 677.56836 672.40625 z M 648.75977 673.38281 C 648.56966 673.38281 648.38997 673.41667 648.2207 673.48438 C 648.05404 673.55208 647.90039 673.66406 647.75977 673.82031 C 647.62956 673.96615 647.52279 674.16797 647.43945 674.42578 C 647.35872 674.68099 647.31836 674.97786 647.31836 675.31641 C 647.31836 675.66276 647.35742 675.95833 647.43555 676.20312 C 647.51628 676.44531 647.62174 676.64323 647.75195 676.79688 C 647.88216 676.95052 648.03451 677.0638 648.20898 677.13672 C 648.38346 677.20964 648.56706 677.24609 648.75977 677.24609 C 648.95247 677.24609 649.13607 677.20964 649.31055 677.13672 C 649.48503 677.0612 649.63737 676.94531 649.76758 676.78906 C 649.91341 676.61198 650.02148 676.40365 650.0918 676.16406 C 650.16211 675.92188 650.19727 675.63802 650.19727 675.3125 C 650.19727 674.96354 650.1569 674.66667 650.07617 674.42188 C 649.99544 674.17708 649.88997 673.97917 649.75977 673.82812 C 649.62695 673.67188 649.47331 673.55859 649.29883 673.48828 C 649.12695 673.41797 648.94727 673.38281 648.75977 673.38281 z M 679.06055 673.47266 L 679.06055 674.70312 L 679.29492 674.70312 C 679.5319 674.70312 679.73372 674.69922 679.90039 674.69141 C 680.06706 674.68359 680.19857 674.65755 680.29492 674.61328 C 680.43034 674.55339 680.51888 674.47656 680.56055 674.38281 C 680.60221 674.28646 680.62305 674.17578 680.62305 674.05078 C 680.62305 673.95443 680.59831 673.85807 680.54883 673.76172 C 680.50195 673.66536 680.41732 673.59375 680.29492 673.54688 C 680.18555 673.50521 680.04883 673.48307 679.88477 673.48047 C 679.72331 673.47526 679.49544 673.47266 679.20117 673.47266 L 679.06055 673.47266 z M 654.39258 673.47656 L 654.39258 675.04297 L 654.85352 675.04297 C 655.0931 675.04297 655.29362 675.03125 655.45508 675.00781 C 655.61654 674.98438 655.75195 674.93099 655.86133 674.84766 C 655.96549 674.76693 656.04102 674.67839 656.08789 674.58203 C 656.13737 674.48307 656.16211 674.35156 656.16211 674.1875 C 656.16211 674.04167 656.13216 673.91667 656.07227 673.8125 C 656.01237 673.70833 655.90951 673.6263 655.76367 673.56641 C 655.66211 673.52474 655.54362 673.5 655.4082 673.49219 C 655.27279 673.48177 655.11523 673.47656 654.93555 673.47656 L 654.39258 673.47656 z M 693.58789 673.71484 C 693.82487 673.71484 694.03971 673.74349 694.23242 673.80078 C 694.42773 673.85547 694.60482 673.93229 694.76367 674.03125 L 694.81445 673.83594 L 696.17773 673.83594 L 696.17773 677.71875 C 696.17773 678.13021 696.11914 678.47656 696.00195 678.75781 C 695.88477 679.03906 695.7207 679.25911 695.50977 679.41797 C 695.29883 679.57943 695.04362 679.69531 694.74414 679.76562 C 694.44727 679.83854 694.11133 679.875 693.73633 679.875 C 693.43164 679.875 693.13086 679.85677 692.83398 679.82031 C 692.53971 679.78385 692.28451 679.73958 692.06836 679.6875 L 692.06836 678.58984 L 692.24023 678.58984 C 692.41211 678.65755 692.62174 678.71875 692.86914 678.77344 C 693.11654 678.83073 693.33789 678.85938 693.5332 678.85938 C 693.79362 678.85938 694.00456 678.83464 694.16602 678.78516 C 694.33008 678.73828 694.45508 678.67057 694.54102 678.58203 C 694.62174 678.4987 694.68034 678.39193 694.7168 678.26172 C 694.75326 678.13151 694.77148 677.97526 694.77148 677.79297 L 694.77148 677.71094 C 694.60221 677.84896 694.41471 677.95833 694.20898 678.03906 C 694.00326 678.11979 693.77409 678.16016 693.52148 678.16016 C 692.9069 678.16016 692.43294 677.97526 692.09961 677.60547 C 691.76628 677.23568 691.59961 676.67318 691.59961 675.91797 C 691.59961 675.55599 691.65039 675.24349 691.75195 674.98047 C 691.85352 674.71745 691.99674 674.48828 692.18164 674.29297 C 692.35352 674.11068 692.56445 673.96875 692.81445 673.86719 C 693.06706 673.76562 693.32487 673.71484 693.58789 673.71484 z M 665.86914 673.89453 L 665.1543 675.98047 L 666.58398 675.98047 L 665.86914 673.89453 z M 688.56445 674.74219 C 688.19466 674.74219 687.91732 674.85807 687.73242 675.08984 C 687.54753 675.31901 687.45508 675.63802 687.45508 676.04688 C 687.45508 676.47656 687.5293 676.78906 687.67773 676.98438 C 687.82617 677.17708 688.06445 677.27344 688.39258 677.27344 C 688.52018 677.27344 688.6556 677.25 688.79883 677.20312 C 688.94206 677.15365 689.06836 677.08984 689.17773 677.01172 L 689.17773 674.85938 C 689.07878 674.81771 688.97461 674.78776 688.86523 674.76953 C 688.75586 674.7513 688.6556 674.74219 688.56445 674.74219 z M 694.1582 674.74219 C 693.78841 674.74219 693.51107 674.84896 693.32617 675.0625 C 693.14128 675.27344 693.04883 675.56901 693.04883 675.94922 C 693.04883 676.37109 693.12695 676.66536 693.2832 676.83203 C 693.44206 676.9987 693.67643 677.08203 693.98633 677.08203 C 694.12695 677.08203 694.26497 677.0599 694.40039 677.01562 C 694.53581 676.97135 694.65951 676.91276 694.77148 676.83984 L 694.77148 674.85156 C 694.69076 674.81771 694.5918 674.79167 694.47461 674.77344 C 694.35742 674.7526 694.25195 674.74219 694.1582 674.74219 z M 679.06055 675.70703 L 679.06055 677.15625 L 679.16992 677.15625 C 679.5918 677.15625 679.89388 677.15495 680.07617 677.15234 C 680.25846 677.14974 680.42643 677.11589 680.58008 677.05078 C 680.73633 676.98568 680.8431 676.89974 680.90039 676.79297 C 680.96029 676.68359 680.99023 676.55859 680.99023 676.41797 C 680.99023 676.23307 680.95378 676.09115 680.88086 675.99219 C 680.81055 675.89062 680.68945 675.8151 680.51758 675.76562 C 680.40039 675.73177 680.23893 675.71354 680.0332 675.71094 C 679.82747 675.70833 679.61263 675.70703 679.38867 675.70703 L 679.06055 675.70703 z M 697.55664 676.6875 L 699.01758 676.6875 L 699.01758 678.22266 L 697.55664 678.22266 L 697.55664 676.6875 z " /><path
       id="Court"
       style="display:inline;fill:#999999;fill-opacity:1;stroke:#000000;stroke-width:0.5;stroke-dasharray:none;stroke-opacity:1"
       d="m 539.99999,319.99999 0,269.99999 L 510,590 v 40 l 34.65234,-0.35156 75.34764,0.35154 V 319.99999 Z"
       sodipodi:nodetypes="cccccccc"
       inkscape:label="Tennis / Volleyball/ Basketball/ Sepak Takraw Court" /><path
       id="Oval"
       style="display:inline;fill:#7c1400;fill-opacity:1;stroke:#000000;stroke-width:0.5;stroke-dasharray:none;stroke-opacity:1"
       inkscape:label="International Standard Rubberized Track &amp; Field Oval"
       d="M 430.25391 230.03711 A 99.746605 99.984726 0 0 0 330.50586 330.02148 A 99.746605 99.984726 0 0 0 330.5293 330.35156 L 329.97656 330.35156 L 329.97656 519.64453 L 330.63672 519.64453 A 99.746605 99.984726 0 0 0 330.25391 525.01562 A 99.746605 99.984726 0 0 0 430 625 A 99.746605 99.984726 0 0 0 507.61719 587.5 L 535 587.5 L 535 282.5 L 518.00195 282.5 A 99.746605 99.984726 0 0 0 430.25391 230.03711 z M 430 255 A 75 69.809273 0 0 1 505 324.80859 A 75 69.809273 0 0 1 504.98438 325.00391 L 504.99609 325.00391 L 504.99609 529.625 A 75 69.809273 0 0 1 505 529.80859 A 75 69.809273 0 0 1 503.0957 545.34961 L 357.06836 545.34961 A 75 69.809273 0 0 1 355 529.80859 A 75 69.809273 0 0 1 355.01367 529.625 L 355.00391 529.625 L 355.00391 325.00391 L 355.01562 325.00391 A 75 69.809273 0 0 1 355 324.80859 A 75 69.809273 0 0 1 430 255 z M 395.15625 561.25 C 398.88542 561.25 401.81771 562.33854 403.95312 564.51562 C 406.08854 566.68229 407.15625 569.63542 407.15625 573.375 C 407.15625 577.08333 406.09375 580.03125 403.96875 582.21875 C 401.84375 584.39583 398.90625 585.48438 395.15625 585.48438 C 391.41667 585.48438 388.48438 584.39583 386.35938 582.21875 C 384.23438 580.03125 383.17188 577.08333 383.17188 573.375 C 383.17188 569.63542 384.23438 566.68229 386.35938 564.51562 C 388.48438 562.33854 391.41667 561.25 395.15625 561.25 z M 409.14062 561.73438 L 415.4375 561.73438 L 421.0625 578.07812 L 426.6875 561.73438 L 432.82812 561.73438 L 424.34375 585 L 417.625 585 L 409.14062 561.73438 z M 442.17188 561.73438 L 449.07812 561.73438 L 457.67188 585 L 451.46875 585 L 449.85938 580.29688 L 441.23438 580.29688 L 439.625 585 L 433.57812 585 L 442.17188 561.73438 z M 461.01562 561.73438 L 467.01562 561.73438 L 467.01562 580.5 L 477.79688 580.5 L 477.79688 585 L 461.01562 585 L 461.01562 561.73438 z M 395.17188 565.64062 C 394.41146 565.64062 393.69271 565.77604 393.01562 566.04688 C 392.34896 566.31771 391.73437 566.76562 391.17188 567.39062 C 390.65104 567.97396 390.22396 568.78125 389.89062 569.8125 C 389.56771 570.83333 389.40625 572.02083 389.40625 573.375 C 389.40625 574.76042 389.5625 575.94271 389.875 576.92188 C 390.19792 577.89062 390.61979 578.68229 391.14062 579.29688 C 391.66146 579.91146 392.27083 580.36458 392.96875 580.65625 C 393.66667 580.94792 394.40104 581.09375 395.17188 581.09375 C 395.94271 581.09375 396.67708 580.94792 397.375 580.65625 C 398.07292 580.35417 398.68229 579.89062 399.20312 579.26562 C 399.78646 578.55729 400.21875 577.72396 400.5 576.76562 C 400.78125 575.79688 400.92188 574.66146 400.92188 573.35938 C 400.92188 571.96354 400.76042 570.77604 400.4375 569.79688 C 400.11458 568.81771 399.69271 568.02604 399.17188 567.42188 C 398.64062 566.79688 398.02604 566.34375 397.32812 566.0625 C 396.64062 565.78125 395.92188 565.64062 395.17188 565.64062 z M 445.54688 567.6875 L 442.6875 576.03125 L 448.40625 576.03125 L 445.54688 567.6875 z " /><path
       id="MPPM"
       style="fill:#0063ff;stroke:#000000;stroke-width:0.5;stroke-dasharray:none"
       inkscape:label="Dr. Martin P. Posadas Memorial Stadium"
       d="M 680 320 L 680 630 L 730 630 L 730 320 L 680 320 z M 715.54688 382.79297 L 715.5918 386.30859 C 715.60184 387.09846 715.54327 387.78089 715.41602 388.35547 C 715.2931 388.92999 715.11307 389.41296 714.875 389.80664 C 714.47555 390.48017 713.93172 391.01356 713.24219 391.4043 C 712.55705 391.79932 711.74602 392.00175 710.80859 392.01367 C 709.90589 392.02515 709.09242 391.82897 708.37109 391.42578 C 707.65411 391.02254 707.10085 390.5092 706.71094 389.88477 C 706.41849 389.41536 706.21376 388.89869 706.09375 388.33594 C 705.97374 387.77318 705.90826 387.10649 705.89844 386.33398 L 705.85547 382.91602 L 715.54688 382.79297 z M 713.76953 385.31641 L 707.70312 385.39258 L 707.71094 386.02539 C 707.7185 386.61996 707.74908 387.05494 707.80469 387.33203 C 707.86464 387.60907 707.96865 387.87966 708.11523 388.14258 C 708.38142 388.59496 708.73323 388.92372 709.16992 389.13086 C 709.61096 389.33794 710.15261 389.43785 710.79492 389.42969 C 711.43289 389.42158 711.97546 389.29673 712.42383 389.05664 C 712.87659 388.82083 713.22886 388.45005 713.47852 387.94336 C 713.60112 387.6857 713.68073 387.42197 713.7207 387.15234 C 713.76508 386.887 713.78419 386.48542 713.77734 385.94727 L 713.76953 385.31641 z M 715.68945 393.85938 L 715.74219 398.05273 C 715.74947 398.6256 715.72197 399.11813 715.66211 399.53125 C 715.60225 399.94437 715.46632 400.33234 715.25391 400.69531 C 715.04155 401.06262 714.76441 401.3552 714.41992 401.57227 C 714.07983 401.79362 713.6497 401.90744 713.12891 401.91406 C 712.41282 401.92317 711.82669 401.76398 711.37109 401.43555 C 710.91555 401.11145 710.53385 400.64176 710.22656 400.0293 L 706.11328 403.31836 L 706.07617 400.26562 L 709.5957 397.57617 L 709.58203 396.42383 L 706.02734 396.4707 L 705.99609 393.98242 L 715.68945 393.85938 z M 699.04297 395.55664 L 699.07812 398.45898 L 694.24414 400.70117 L 699.13477 402.81445 L 699.17188 405.71875 L 689.47852 405.8418 L 689.44727 403.35352 L 695.9375 403.27148 L 691.70117 401.5293 L 691.67969 399.80273 L 695.86914 397.95312 L 689.37891 398.03516 L 689.34961 395.67969 L 699.04297 395.55664 z M 713.93555 396.36914 L 711.32617 396.40234 L 711.33594 397.16992 C 711.34101 397.56919 711.36377 397.9033 711.40625 398.17188 C 711.44873 398.44045 711.54045 398.66519 711.68164 398.8457 C 711.81839 399.01759 711.96929 399.14267 712.13086 399.21875 C 712.29682 399.29911 712.51565 399.33746 712.78906 399.33398 C 713.0321 399.33089 713.23978 399.27781 713.41211 399.17578 C 713.58444 399.07376 713.71968 398.90055 713.81641 398.65625 C 713.88369 398.48611 713.92149 398.28834 713.93164 398.0625 C 713.94613 397.8366 713.95107 397.57289 713.94727 397.27344 L 713.93555 396.36914 z M 708.68555 404.33398 L 708.7168 406.76758 L 706.1582 406.80078 L 706.12695 404.36719 L 708.68555 404.33398 z M 699.20312 408.19141 L 699.29102 415.20312 L 697.41797 415.22656 L 697.35938 410.70312 L 695.68555 410.72266 L 695.74023 414.92188 L 693.86523 414.94531 L 693.8125 410.74805 L 691.41602 410.77734 L 691.47266 415.30273 L 689.59961 415.32617 L 689.50977 408.31445 L 699.20312 408.19141 z M 715.93945 413.66211 L 715.97656 416.56641 L 711.14258 418.80859 L 716.0332 420.92188 L 716.07031 423.82422 L 706.37695 423.94727 L 706.34375 421.46094 L 712.83594 421.37891 L 708.59961 419.63477 L 708.57812 417.91016 L 712.76758 416.06055 L 706.27734 416.14258 L 706.24805 413.78711 L 715.93945 413.66211 z M 699.31836 417.29883 L 699.35547 420.20312 L 694.51953 422.44531 L 699.41016 424.55664 L 699.44727 427.46094 L 689.75391 427.58398 L 689.72266 425.09766 L 696.21289 425.01562 L 691.97852 423.27148 L 691.95703 421.54688 L 696.14648 419.69727 L 689.65625 419.7793 L 689.625 417.42188 L 699.31836 417.29883 z M 706.39453 425.3418 L 716.13281 428.79883 L 716.16992 431.67578 L 706.52148 435.37891 L 706.48828 432.79492 L 708.43945 432.09961 L 708.39453 428.50586 L 706.42578 427.86133 L 706.39453 425.3418 z M 710.17969 429.08984 L 710.20898 431.4707 L 713.66992 430.23633 L 710.17969 429.08984 z M 694.62305 429.42969 C 696.18108 429.40988 697.41612 429.83707 698.33008 430.71094 C 699.24838 431.58475 699.71847 432.80135 699.73828 434.35938 C 699.75804 435.91306 699.31956 437.1398 698.42383 438.04102 C 697.53244 438.94218 696.30803 439.40207 694.75 439.42188 C 693.20499 439.44152 691.96951 439.01438 691.04688 438.14062 C 690.12858 437.26681 689.66049 436.0487 689.64062 434.48633 C 689.62082 432.9283 690.05929 431.70156 690.95508 430.80469 C 691.8552 429.90776 693.07804 429.44933 694.62305 429.42969 z M 694.6543 432.02734 C 694.07709 432.03468 693.58598 432.1068 693.17969 432.24219 C 692.77779 432.38186 692.45056 432.561 692.19727 432.78125 C 691.94397 433.0015 691.75845 433.25846 691.64062 433.55078 C 691.5228 433.8431 691.46662 434.14955 691.4707 434.4707 C 691.47479 434.79186 691.53885 435.09749 691.66406 435.38672 C 691.79362 435.67589 691.9888 435.92694 692.25195 436.14062 C 692.55016 436.37991 692.90002 436.55587 693.30078 436.66797 C 693.70588 436.78001 694.18017 436.83112 694.72266 436.82422 C 695.3042 436.81682 695.79884 436.74324 696.20508 436.60352 C 696.61132 436.46379 696.93854 436.28465 697.1875 436.06445 C 697.44508 435.83981 697.63066 435.58133 697.74414 435.28906 C 697.85768 435.00114 697.91218 434.70115 697.9082 434.38867 C 697.90418 434.07186 697.84299 433.77285 697.72656 433.49219 C 697.61019 433.21587 697.42158 432.96151 697.1582 432.73047 C 696.91241 432.51656 696.574 432.34435 696.14258 432.21094 C 695.71556 432.08181 695.21849 432.02017 694.6543 432.02734 z M 716.23242 436.64844 L 716.28516 440.8418 C 716.29244 441.41467 716.26689 441.90719 716.20703 442.32031 C 716.14717 442.73343 716.01124 443.1214 715.79883 443.48438 C 715.58647 443.85169 715.30738 444.14426 714.96289 444.36133 C 714.6228 444.58268 714.19266 444.6965 713.67188 444.70312 C 712.95579 444.71223 712.36966 444.55304 711.91406 444.22461 C 711.45852 443.90051 711.07682 443.43277 710.76953 442.82031 L 706.6582 446.10742 L 706.61914 443.05469 L 710.14062 440.36719 L 710.125 439.21484 L 706.57031 439.25977 L 706.53906 436.77344 L 716.23242 436.64844 z M 714.48047 439.1582 L 711.86914 439.19141 L 711.87891 439.96094 C 711.88398 440.36021 711.90869 440.69236 711.95117 440.96094 C 711.99365 441.22952 712.08537 441.45425 712.22656 441.63477 C 712.36331 441.80665 712.51226 441.93174 712.67383 442.00781 C 712.83979 442.08817 713.06057 442.12652 713.33398 442.12305 C 713.57702 442.11996 713.7847 442.06687 713.95703 441.96484 C 714.12936 441.86282 714.26265 441.68962 714.35938 441.44531 C 714.42666 441.27517 714.46641 441.0774 714.47656 440.85156 C 714.49105 440.62567 714.49599 440.36391 714.49219 440.06445 L 714.48047 439.1582 z M 699.62305 441.26758 L 699.67578 445.46094 C 699.68306 446.03381 699.65751 446.52633 699.59766 446.93945 C 699.5378 447.35257 699.40187 447.74054 699.18945 448.10352 C 698.97709 448.47083 698.69801 448.7634 698.35352 448.98047 C 698.01342 449.20182 697.58329 449.31564 697.0625 449.32227 C 696.34641 449.33137 695.76029 449.17218 695.30469 448.84375 C 694.84914 448.51966 694.46745 448.05191 694.16016 447.43945 L 690.04883 450.72656 L 690.00977 447.67383 L 693.53125 444.98633 L 693.51562 443.83398 L 689.96094 443.87891 L 689.92969 441.39062 L 699.62305 441.26758 z M 697.87109 443.77734 L 695.26172 443.81055 L 695.27148 444.58008 C 695.27656 444.97935 695.29932 445.3115 695.3418 445.58008 C 695.38428 445.84866 695.47599 446.0734 695.61719 446.25391 C 695.75393 446.42579 695.90288 446.55088 696.06445 446.62695 C 696.23042 446.70731 696.45119 446.74566 696.72461 446.74219 C 696.96764 446.7391 697.17533 446.68601 697.34766 446.58398 C 697.51998 446.48196 697.65327 446.30876 697.75 446.06445 C 697.81729 445.89431 697.85704 445.69654 697.86719 445.4707 C 697.88168 445.24481 697.88662 444.98305 697.88281 444.68359 L 697.87109 443.77734 z M 716.35352 446.10742 L 716.46094 454.66211 L 714.58594 454.68555 L 714.54883 451.6582 L 706.73047 451.75781 L 706.69727 449.25781 L 714.51562 449.1582 L 714.47852 446.13281 L 716.35352 446.10742 z M 699.75 451.26172 L 699.82227 456.9375 L 698.10352 456.95898 L 698.08398 455.37109 L 691.82812 455.45117 L 691.84766 457.03906 L 690.12891 457.06055 L 690.05664 451.38477 L 691.77539 451.36328 L 691.79688 452.95117 L 698.05273 452.87109 L 698.03125 451.2832 L 699.75 451.26172 z M 716.47461 455.73047 L 716.54688 461.40625 L 714.82812 461.42773 L 714.80859 459.83984 L 708.55273 459.91992 L 708.57227 461.50781 L 706.85352 461.5293 L 706.78125 455.85352 L 708.5 455.83203 L 708.52148 457.41992 L 714.77734 457.33984 L 714.75586 455.75195 L 716.47461 455.73047 z M 690.14062 458.01758 L 699.88086 461.47461 L 699.91602 464.35156 L 690.26953 468.05664 L 690.23633 465.4707 L 692.1875 464.77539 L 692.14062 461.18359 L 690.17383 460.53711 L 690.14062 458.01758 z M 693.92578 461.76562 L 693.95703 464.14844 L 697.41797 462.91211 L 693.92578 461.76562 z M 716.57227 463.44336 L 716.61133 466.43164 L 711.10352 470.03711 L 716.65625 469.9668 L 716.68555 472.25781 L 706.99219 472.38086 L 706.96094 469.97266 L 713.5625 465.77344 L 706.9082 465.85938 L 706.88086 463.56641 L 716.57227 463.44336 z M 699.98047 469.32617 L 700.01172 471.82617 L 692.19336 471.92578 L 692.25 476.41602 L 690.375 476.44141 L 690.28711 469.44922 L 699.98047 469.32617 z M 716.77539 479.28906 L 716.82617 483.40234 C 716.83401 484.01861 716.78674 484.53859 716.68359 484.96094 C 716.58484 485.38757 716.43117 485.76555 716.22266 486.09375 C 715.97157 486.4876 715.64863 486.78899 715.25195 486.99805 C 714.85533 487.21144 714.37626 487.32101 713.81641 487.32812 C 713.38241 487.33364 712.95567 487.26379 712.53711 487.11719 C 712.12289 486.97053 711.77396 486.75702 711.48828 486.47852 C 711.10146 486.09712 710.80683 485.67022 710.60547 485.19531 C 710.40416 484.72474 710.30001 484.13514 710.29102 483.42773 L 710.27148 481.87109 L 707.11328 481.91211 L 707.08203 479.41211 L 716.77539 479.28906 z M 714.99609 481.8125 L 712.09375 481.84961 L 712.10156 482.56445 C 712.10697 482.98976 712.1378 483.33858 712.19336 483.61133 C 712.24897 483.88842 712.35702 484.12006 712.51562 484.30469 C 712.65654 484.4635 712.82183 484.57557 713.01367 484.64258 C 713.20991 484.71387 713.44685 484.74767 713.72461 484.74414 C 713.99802 484.74066 714.23236 484.66371 714.42578 484.51367 C 714.62354 484.36358 714.7603 484.19043 714.83594 483.99414 C 714.93678 483.73242 714.99056 483.47795 714.99609 483.23047 C 715.00597 482.98293 715.0072 482.65448 715.00195 482.24219 L 714.99609 481.8125 z M 693.34375 481.9375 L 693.3457 482.21094 C 692.93998 482.73263 692.63119 483.3143 692.41797 483.95508 C 692.2048 484.6002 692.10187 485.21641 692.10938 485.80664 C 692.11131 485.95854 692.12707 486.15921 692.15625 486.40625 C 692.18543 486.65329 692.23218 486.8543 692.29492 487.00977 C 692.37547 487.19973 692.47503 487.35458 692.59375 487.47461 C 692.71253 487.59898 692.88522 487.65917 693.11523 487.65625 C 693.32789 487.65355 693.51058 487.56116 693.66016 487.37695 C 693.81413 487.19703 693.92977 486.93223 694.00781 486.58398 C 694.08998 486.21833 694.16578 485.83077 694.23438 485.42188 C 694.30736 485.01727 694.39907 484.63666 694.51172 484.2793 C 694.76608 483.46003 695.11768 482.8679 695.56445 482.50195 C 696.01562 482.14029 696.57731 481.95387 697.25 481.94531 C 698.1527 481.93384 698.89386 482.32891 699.47266 483.12891 C 700.05584 483.93319 700.35493 484.97059 700.37109 486.24219 C 700.37921 486.88016 700.325 487.5106 700.20703 488.13281 C 700.09346 488.75931 699.94449 489.3017 699.76367 489.75977 L 697.53125 489.78906 L 697.52734 489.52148 C 697.83485 489.12692 698.08993 488.64344 698.29102 488.07227 C 698.4965 487.50537 698.59539 486.92812 698.58789 486.33789 C 698.58524 486.12957 698.56818 485.92082 698.53516 485.71289 C 698.50652 485.50925 698.45164 485.31301 698.37109 485.12305 C 698.30384 484.95462 698.20249 484.80926 698.06641 484.68945 C 697.93466 484.56959 697.78449 484.51152 697.61523 484.51367 C 697.35918 484.51693 697.16178 484.61739 697.02539 484.81445 C 696.89334 485.01146 696.77391 485.38186 696.66797 485.92578 C 696.59871 486.28259 696.5321 486.62284 696.4668 486.94922 C 696.40155 487.27994 696.31008 487.63651 696.19336 488.01562 C 695.95976 488.76084 695.63525 489.31108 695.21875 489.66797 C 694.80664 490.02914 694.266 490.21416 693.59766 490.22266 C 692.64287 490.2348 691.86118 489.83911 691.25195 489.03516 C 690.64712 488.23549 690.33602 487.14073 690.31836 485.75195 C 690.30815 484.94907 690.36874 484.24716 690.5 483.64648 C 690.63566 483.05009 690.80916 482.49035 691.01953 481.9668 L 693.34375 481.9375 z M 700.25391 490.88086 L 700.36328 499.43359 L 698.48828 499.45703 L 698.44922 496.43164 L 690.63086 496.5293 L 690.59961 494.03125 L 698.41797 493.93164 L 698.37891 490.9043 L 700.25391 490.88086 z M 716.95703 493.61719 L 717.00977 497.73047 C 717.0176 498.34674 716.97033 498.86671 716.86719 499.28906 C 716.76844 499.7157 716.61477 500.09368 716.40625 500.42188 C 716.15516 500.81572 715.83027 501.11712 715.43359 501.32617 C 715.03697 501.53956 714.5579 501.64913 713.99805 501.65625 C 713.56406 501.66177 713.13927 501.59191 712.7207 501.44531 C 712.30648 501.29866 711.9556 501.08515 711.66992 500.80664 C 711.2831 500.42524 710.98848 499.99835 710.78711 499.52344 C 710.5858 499.05287 710.48165 498.46327 710.47266 497.75586 L 710.45312 496.19922 L 707.29492 496.24023 L 707.26367 493.74023 L 716.95703 493.61719 z M 715.17969 496.14062 L 712.27539 496.17773 L 712.28516 496.89258 C 712.29056 497.31789 712.3214 497.6667 712.37695 497.93945 C 712.43256 498.21655 712.53866 498.44818 712.69727 498.63281 C 712.83818 498.79162 713.00543 498.90369 713.19727 498.9707 C 713.3935 499.042 713.63045 499.0758 713.9082 499.07227 C 714.18162 499.06879 714.414 498.99184 714.60742 498.8418 C 714.80518 498.6917 714.94194 498.51856 715.01758 498.32227 C 715.11843 498.06055 715.1722 497.80608 715.17773 497.55859 C 715.18761 497.31105 715.18884 496.9826 715.18359 496.57031 L 715.17969 496.14062 z M 690.67578 499.98047 L 700.41406 503.4375 L 700.45117 506.31445 L 690.80273 510.01953 L 690.76953 507.43359 L 692.7207 506.73828 L 692.67578 503.14453 L 690.70703 502.5 L 690.67578 499.98047 z M 712.22461 502.88477 C 713.78264 502.86496 715.01768 503.2902 715.93164 504.16406 C 716.84994 505.03787 717.32003 506.25447 717.33984 507.8125 C 717.3596 509.36619 716.92112 510.59293 716.02539 511.49414 C 715.134 512.3953 713.90959 512.85714 712.35156 512.87695 C 710.80655 512.8966 709.57303 512.46946 708.65039 511.5957 C 707.73209 510.72189 707.26205 509.50378 707.24219 507.94141 C 707.22238 506.38338 707.66085 505.15469 708.55664 504.25781 C 709.45677 503.36088 710.6796 502.90441 712.22461 502.88477 z M 694.45898 503.72852 L 694.49023 506.11133 L 697.95117 504.875 L 694.45898 503.72852 z M 712.25781 505.48047 C 711.6806 505.48781 711.18755 505.55993 710.78125 505.69531 C 710.37935 505.83498 710.05212 506.01412 709.79883 506.23438 C 709.54553 506.45463 709.36001 506.71159 709.24219 507.00391 C 709.12437 507.29623 709.06818 507.60267 709.07227 507.92383 C 709.07635 508.24498 709.14041 508.55061 709.26562 508.83984 C 709.39518 509.12902 709.59231 509.38006 709.85547 509.59375 C 710.15367 509.83303 710.50158 510.00899 710.90234 510.12109 C 711.30745 510.23314 711.78173 510.28619 712.32422 510.2793 C 712.90577 510.2719 713.4004 510.19832 713.80664 510.05859 C 714.21288 509.91887 714.54011 509.73777 714.78906 509.51758 C 715.04664 509.29293 715.23222 509.03445 715.3457 508.74219 C 715.45924 508.45426 715.51374 508.15427 715.50977 507.8418 C 715.50574 507.52498 715.4465 507.22597 715.33008 506.94531 C 715.21371 506.66899 715.02314 506.41659 714.75977 506.18555 C 714.51397 505.97164 714.17556 505.79748 713.74414 505.66406 C 713.31712 505.53493 712.822 505.4733 712.25781 505.48047 z M 700.51367 511.28906 L 700.55859 514.80469 C 700.56864 515.59455 700.51007 516.27503 700.38281 516.84961 C 700.2599 517.42413 700.07987 517.90905 699.8418 518.30273 C 699.44234 518.97627 698.89656 519.5077 698.20703 519.89844 C 697.5219 520.29346 696.71086 520.49785 695.77344 520.50977 C 694.87073 520.52124 694.05922 520.32506 693.33789 519.92188 C 692.6209 519.51863 692.06765 519.00529 691.67773 518.38086 C 691.38529 517.91145 691.1786 517.39479 691.05859 516.83203 C 690.93858 516.26928 690.8731 515.60258 690.86328 514.83008 L 690.82031 511.41211 L 700.51367 511.28906 z M 698.73633 513.81055 L 692.66797 513.88867 L 692.67578 514.51953 C 692.68334 515.1141 692.71587 515.55103 692.77148 515.82812 C 692.83143 516.10516 692.93349 516.3738 693.08008 516.63672 C 693.34627 517.0891 693.69807 517.41982 694.13477 517.62695 C 694.5758 517.83404 695.11746 517.93395 695.75977 517.92578 C 696.39773 517.91767 696.94225 517.79283 697.39062 517.55273 C 697.84339 517.31693 698.19371 516.94614 698.44336 516.43945 C 698.56596 516.1818 698.64752 515.91806 698.6875 515.64844 C 698.73187 515.3831 698.75098 514.98151 698.74414 514.44336 L 698.73633 513.81055 z M 710.42188 514.28125 L 710.42578 514.55469 C 710.02006 515.07638 709.71127 515.65805 709.49805 516.29883 C 709.28488 516.94395 709.18195 517.56212 709.18945 518.15234 C 709.19138 518.30424 709.20714 518.50296 709.23633 518.75 C 709.26551 518.99704 709.3103 519.19805 709.37305 519.35352 C 709.45359 519.54348 709.55315 519.69833 709.67188 519.81836 C 709.79065 519.94273 709.9653 520.00292 710.19531 520 C 710.40797 519.9973 710.5887 519.90491 710.73828 519.7207 C 710.89226 519.54078 711.00789 519.27598 711.08594 518.92773 C 711.1681 518.56208 711.24391 518.17452 711.3125 517.76562 C 711.38549 517.36102 711.47914 516.98041 711.5918 516.62305 C 711.84616 515.80378 712.19581 515.21165 712.64258 514.8457 C 713.09374 514.48404 713.65544 514.29957 714.32812 514.29102 C 715.23083 514.27954 715.97199 514.67266 716.55078 515.47266 C 717.13397 516.27694 717.43305 517.31434 717.44922 518.58594 C 717.45733 519.22391 717.40312 519.85435 717.28516 520.47656 C 717.17158 521.10306 717.02457 521.64545 716.84375 522.10352 L 714.61133 522.13281 L 714.60742 521.86523 C 714.91493 521.47067 715.17001 520.98719 715.37109 520.41602 C 715.57658 519.84912 715.67547 519.27187 715.66797 518.68164 C 715.66532 518.47332 715.64631 518.26457 715.61328 518.05664 C 715.58465 517.853 715.52977 517.65676 715.44922 517.4668 C 715.38197 517.29837 715.28061 517.15301 715.14453 517.0332 C 715.01279 516.91334 714.86262 516.85527 714.69336 516.85742 C 714.4373 516.86068 714.24186 516.96114 714.10547 517.1582 C 713.97341 517.35521 713.85399 517.72561 713.74805 518.26953 C 713.67879 518.62634 713.61218 518.96855 713.54688 519.29492 C 713.48163 519.62564 713.39015 519.98026 713.27344 520.35938 C 713.03984 521.10459 712.71533 521.65483 712.29883 522.01172 C 711.88672 522.37289 711.34608 522.55791 710.67773 522.56641 C 709.72295 522.57855 708.94126 522.18286 708.33203 521.37891 C 707.7272 520.57924 707.41609 519.48448 707.39844 518.0957 C 707.38823 517.29282 707.44882 516.59091 707.58008 515.99023 C 707.71574 515.39384 707.88728 514.8341 708.09766 514.31055 L 710.42188 514.28125 z M 700.64844 521.91992 L 700.7207 527.5957 L 699.00195 527.61719 L 698.98242 526.0293 L 692.72656 526.10938 L 692.74609 527.69727 L 691.02734 527.71875 L 690.95508 522.04297 L 692.67383 522.02148 L 692.69531 523.60938 L 698.95117 523.5293 L 698.92969 521.94141 L 700.64844 521.91992 z M 707.63867 523.23633 L 717.37695 526.69336 L 717.41406 529.57031 L 707.76562 533.27539 L 707.73438 530.69141 L 709.68359 529.99414 L 709.63867 526.40234 L 707.66992 525.75586 L 707.63867 523.23633 z M 711.42383 526.98438 L 711.45312 529.36719 L 714.91406 528.13086 L 711.42383 526.98438 z M 700.74414 529.49609 L 700.77734 532.00977 L 694.72852 532.08594 C 694.05583 532.09449 693.55672 532.24301 693.23047 532.5293 C 692.90422 532.81559 692.74585 533.27458 692.75391 533.9082 C 692.76185 534.53315 692.92564 534.98712 693.24609 535.26953 C 693.5666 535.55628 694.07666 535.69443 694.77539 535.68555 L 700.82227 535.60938 L 700.85547 538.12305 L 694.66992 538.20117 C 693.47211 538.2164 692.54958 537.86357 691.90234 537.14258 C 691.25511 536.42158 690.92234 535.35079 690.9043 533.93164 C 690.88625 532.51249 691.19161 531.43448 691.82031 530.69727 C 692.44907 529.96439 693.36121 529.59135 694.55469 529.57617 L 700.74414 529.49609 z M 717.47656 534.54492 L 717.52148 538.06055 C 717.53153 538.85041 717.47296 539.53284 717.3457 540.10742 C 717.22279 540.68195 717.04276 541.16491 716.80469 541.55859 C 716.40523 542.23213 715.86141 542.76551 715.17188 543.15625 C 714.48674 543.55128 713.6757 543.75371 712.73828 543.76562 C 711.83558 543.7771 711.02211 543.58092 710.30078 543.17773 C 709.58379 542.77449 709.03054 542.26115 708.64062 541.63672 C 708.34818 541.16731 708.1415 540.65065 708.02148 540.08789 C 707.90147 539.52514 707.83795 538.85844 707.82812 538.08594 L 707.7832 534.66797 L 717.47656 534.54492 z M 715.69922 537.06836 L 709.63281 537.14453 L 709.64062 537.77539 C 709.64818 538.36996 709.67876 538.80689 709.73438 539.08398 C 709.79433 539.36102 709.89834 539.63162 710.04492 539.89453 C 710.31111 540.34691 710.66291 540.67567 711.09961 540.88281 C 711.54064 541.0899 712.0823 541.18981 712.72461 541.18164 C 713.36258 541.17353 713.90514 541.04869 714.35352 540.80859 C 714.80628 540.57278 715.1566 540.202 715.40625 539.69531 C 715.52885 539.43766 715.61041 539.17392 715.65039 538.9043 C 715.69476 538.63896 715.71387 538.23737 715.70703 537.69922 L 715.69922 537.06836 z M 700.88477 540.45898 L 700.92188 543.36328 L 696.08594 545.60547 L 700.97656 547.71875 L 701.01367 550.62109 L 691.32031 550.74414 L 691.28906 548.25781 L 697.7793 548.17578 L 693.54492 546.43164 L 693.52344 544.70703 L 697.71094 542.85742 L 691.2207 542.93945 L 691.19141 540.58203 L 700.88477 540.45898 z M 707.91016 544.6543 L 717.65039 548.11133 L 717.68555 550.98828 L 708.03906 554.69141 L 708.00586 552.10742 L 709.95703 551.41211 L 709.91016 547.81836 L 707.94336 547.17383 L 707.91016 544.6543 z M 711.69531 548.40234 L 711.72656 550.78516 L 715.1875 549.54883 L 711.69531 548.40234 z M 710.94727 555.52148 L 710.94922 555.79492 C 710.54349 556.31661 710.23471 556.89828 710.02148 557.53906 C 709.80832 558.18418 709.70539 558.8004 709.71289 559.39062 C 709.71482 559.54252 709.73058 559.74319 709.75977 559.99023 C 709.78895 560.23728 709.83569 560.43829 709.89844 560.59375 C 709.97898 560.78371 710.07854 560.93857 710.19727 561.05859 C 710.31604 561.18296 710.49069 561.24316 710.7207 561.24023 C 710.93336 561.23753 711.11409 561.14515 711.26367 560.96094 C 711.41765 560.78101 711.53328 560.51621 711.61133 560.16797 C 711.69349 559.80231 711.7693 559.41475 711.83789 559.00586 C 711.91088 558.60125 712.00258 558.22064 712.11523 557.86328 C 712.3696 557.04401 712.7212 556.45189 713.16797 556.08594 C 713.61914 555.72427 714.18083 555.5398 714.85352 555.53125 C 715.75622 555.51977 716.49738 555.91289 717.07617 556.71289 C 717.65936 557.51717 717.95844 558.55458 717.97461 559.82617 C 717.98272 560.46414 717.92851 561.09459 717.81055 561.7168 C 717.69698 562.34329 717.54801 562.88569 717.36719 563.34375 L 715.13477 563.37305 L 715.13086 563.10547 C 715.43837 562.7109 715.69344 562.22743 715.89453 561.65625 C 716.10001 561.08936 716.19891 560.5121 716.19141 559.92188 C 716.18876 559.71356 716.1717 559.5048 716.13867 559.29688 C 716.11004 559.09323 716.05516 558.89699 715.97461 558.70703 C 715.90736 558.5386 715.806 558.39324 715.66992 558.27344 C 715.53818 558.15358 715.38801 558.0955 715.21875 558.09766 C 714.96269 558.10091 714.7653 558.20138 714.62891 558.39844 C 714.49685 558.59544 714.37742 558.96584 714.27148 559.50977 C 714.20223 559.86658 714.13561 560.20683 714.07031 560.5332 C 714.00507 560.86392 713.91359 561.22049 713.79688 561.59961 C 713.56328 562.34483 713.23877 562.89507 712.82227 563.25195 C 712.41016 563.61312 711.86952 563.79814 711.20117 563.80664 C 710.24639 563.81878 709.4647 563.42309 708.85547 562.61914 C 708.25064 561.81948 707.93953 560.72471 707.92188 559.33594 C 707.91167 558.53305 707.97225 557.83114 708.10352 557.23047 C 708.23917 556.63408 708.41267 556.07433 708.62305 555.55078 L 710.94727 555.52148 z " /><path
       id="Hazard"
       style="fill:#97c500;stroke:#000000;stroke-width:0.5;stroke-dasharray:none"
       d="m 745,310 h 35 v 25 h -35 z"
       inkscape:label="Hazardous Waste Safety Facility" /><path
       id="VetMed"
       style="fill:#00c572;stroke:#000000;stroke-width:0.5;stroke-dasharray:none"
       d="m 770,425 h 150 v 25 H 770 Z"
       inkscape:label="College of Veterinary Medicine (Lecture Rooms)" /><path
       id="VetDean"
       style="fill:#00c572;stroke:#000000;stroke-width:0.5;stroke-dasharray:none"
       d="m 770.01129,470.01126 h 69.65161 v 19.97747 h -69.65161 z"
       inkscape:label="College of Veterinary Medicine Office of the Dean" /><path
       id="VetLab"
       style="fill:#00c572;stroke:#000000;stroke-width:0.5;stroke-dasharray:none"
       d="m 850.362,470.01202 h 69.62598 v 19.97596 H 850.362 Z"
       inkscape:label="Vetenirary Medicine Laboratory Bldg." /><path
       id="EventCenter"
       style="fill:#06ebff;fill-opacity:1;stroke:#000000;stroke-width:0.5;stroke-dasharray:none;stroke-opacity:1"
       d="m 855,565 v 10 h -40 v 20.34961 h -20.00195 v 15.06836 h -19.58008 v 64.56641 h 19.58008 v 14.66601 H 815 V 710 h 40 v 10 h 40 v -10 h 40 v -20.18359 h 19.98242 V 674.7832 h 19.9707 v -64.5664 h -19.9707 V 595.18359 H 935 V 575 h -40 v -10 z"
       inkscape:label="VMUF Event Center" /><path
       id="Henyo"
       style="fill:#ffb206;stroke:#000000;stroke-width:0.5;stroke-dasharray:none"
       d="m 255.11284,622.6579 h 49.77432 v 21.87926 h -49.77432 z"
       inkscape:label="Henyo Corner" /><path
       id="Cafeteria2"
       style="fill:#06ffee;stroke:#000000;stroke-width:0.5;stroke-dasharray:none"
       inkscape:label="Cafeteria 2"
       d="m 99.248077,159.99808 h 20.753843 v 5.00384 H 99.248077 Z" /></g></svg>
